<svg width="97" height="110" viewBox="0 0 97 110" fill="none" xmlns="http://www.w3.org/2000/svg">
<g clip-path="url(#clip0_1_671)">
<path d="M71.0973 45.6243C73.3306 47.1332 75.3783 48.537 77.4259 49.9409C77.8874 50.2511 78.3279 50.5984 78.6312 51.015C79.2587 51.8112 79.2889 52.7103 78.838 53.6802C78.219 54.947 77.3452 55.9716 76.2696 56.833C74.9938 57.8751 73.7019 58.859 72.3568 59.7639C69.0707 62.0204 65.6781 64.1186 62.179 66.0586C55.302 69.8111 48.4833 73.5476 41.6757 77.4374C38.4301 79.2758 35.3974 81.4308 32.2422 83.3694C29.066 85.345 25.8155 87.2787 22.6393 89.2544C20.8824 90.3673 18.9938 90.3275 17.1248 89.9068C14.9539 89.4133 13.6541 87.2075 14.1105 85.0157C14.4633 83.3532 15.2453 81.8847 16.5582 80.8636C18.9257 79.0183 21.3996 77.3311 23.8735 75.644C24.6647 75.1118 25.5946 74.854 26.589 74.8287C28.0806 74.7908 28.5484 75.3495 28.1522 76.7424C28.1263 76.8747 28.0632 76.9861 27.9694 77.325C28.4393 77.1009 28.7509 76.9832 29.0464 76.8075C33.8017 74.2063 38.4183 71.3307 42.8752 68.2177C49.848 63.3433 57.066 58.9017 64.3048 54.4229C65.3705 53.752 66.5056 53.2183 67.6085 52.5684C67.904 52.3926 68.1785 52.2539 68.5531 52.0249C67.296 51.2155 66.1504 50.4691 65.0419 49.7438C64.7289 49.5176 64.4383 49.5982 64.0846 49.7901C63.2402 50.2432 62.3957 50.6963 61.5512 51.1495C59.7411 52.1832 57.9687 52.1112 56.2341 50.9335C55.7355 50.6023 55.1788 50.2872 54.7432 49.8447C53.5218 48.7125 53.5308 47.0515 54.7001 45.8511C55.0425 45.5059 55.4382 45.2397 55.8338 44.9736C62.9306 40.6594 69.9693 36.3614 77.0821 32.1053C79.1506 30.8747 81.3255 29.8025 83.4682 28.614C83.7637 28.4382 84.0382 28.2995 84.4128 28.0705C83.9142 27.7393 83.5431 27.5293 83.1768 27.224C82.3329 26.5504 82.1445 25.7577 82.4953 24.8781C82.7781 24.2052 83.2319 23.9229 83.9728 23.9992C84.4279 24.0608 84.8348 23.948 85.2577 23.8933C85.7388 23.8226 86.3683 23.8358 86.8137 24.0879C88.6583 24.9848 90.4076 25.8768 92.152 26.864C92.783 27.2211 93.3881 27.7105 93.935 28.2161C95.066 29.2482 95.1137 30.5493 94.0284 31.6011C93.4647 32.1642 92.7897 32.6642 92.0454 33.027C89.4636 34.2121 86.9834 35.6506 84.5886 37.2845C80.5322 40.0362 76.3904 42.5924 72.1421 44.9905C71.8466 45.1663 71.5511 45.342 71.0973 45.6243Z" fill="black"/>
<path d="M34.8147 45.5739C33.6592 45.018 32.578 44.5041 31.4806 43.9321C29.7474 43.0982 27.9771 42.2433 26.2649 41.3723C25.8727 41.1994 25.5387 41.0103 25.1885 40.7632C23.8251 39.7955 23.6597 38.1828 24.7548 36.9405C24.8759 36.8131 24.997 36.6856 25.1343 36.6163C29.2831 33.1819 33.0124 29.363 36.6884 25.4651C40.786 21.1687 44.9207 16.8932 49.0344 12.6549C49.8404 11.837 50.6834 11.04 51.4894 10.222C52.5957 9.13304 53.8211 8.69947 55.3155 9.34919C56.8842 10.0409 58.4787 10.6003 60.0264 11.3292C66.9382 14.7018 74.0391 17.7404 81.1239 20.7208C82.899 21.4804 84.6904 22.2982 86.4236 23.1321C87.0385 23.431 87.6113 23.8042 88.084 24.2678C89.3054 25.4 89.143 27.0722 87.8511 28.0562C87.4345 28.3595 86.9646 28.5836 86.4948 28.8077C85.2385 29.4689 84.0033 30.0929 82.7842 30.775C79.4385 32.7038 76.1299 34.6536 72.7682 36.5243C69.4064 38.395 66.0075 40.2446 62.6085 42.0943C61.6268 42.6168 60.6661 43.1021 59.7054 43.5875C59.4309 43.7261 59.1354 43.9019 58.7026 44.1471C59.0738 44.3571 59.2965 44.4831 59.5192 44.6092C62.5788 46.3897 65.6594 48.1331 68.7189 49.9136C68.9416 50.0396 69.1804 50.2238 69.3821 50.3869C70.6244 51.482 70.5944 53.1802 69.3186 54.2223C68.86 54.5997 68.2739 54.8561 67.7088 55.0753C65.0528 56.2183 62.3807 57.3033 59.7409 58.5044C58.4896 59.0703 57.2494 59.7896 56.0836 60.5509C49.8424 64.5653 43.6594 68.5635 37.4715 72.6571C31.0883 76.836 24.7372 81.1312 18.3911 85.3312C17.9163 85.6505 17.4045 85.9489 16.8233 86.11C15.4074 86.5338 14.2617 85.7874 13.8169 84.4086C13.5059 83.3995 13.5549 82.4472 14.0219 81.5354C14.8557 79.8022 15.6735 78.0109 16.6768 76.3245C20.233 70.3006 23.9005 64.3397 27.4567 58.3158C29.8624 54.238 32.194 50.1181 34.5627 46.0193C34.6999 45.95 34.7468 45.7805 34.8147 45.5739Z" fill="#EA552B"/>
</g>
<defs>
<clipPath id="clip0_1_671">
<rect width="58" height="92.5441" fill="white" transform="translate(45.5807) rotate(29.507)"/>
</clipPath>
</defs>
</svg>
