<svg width="48" height="48" viewBox="0 0 48 48" fill="none" xmlns="http://www.w3.org/2000/svg">
<circle cx="24" cy="24" r="24" fill="#563ACC"/>
<path d="M26.25 23.25H24.75V17.25H25.5C26.2949 17.2525 27.0565 17.5693 27.6186 18.1314C28.1807 18.6935 28.4975 19.4551 28.5 20.25C28.5 20.4489 28.579 20.6397 28.7197 20.7803C28.8603 20.921 29.0511 21 29.25 21C29.4489 21 29.6397 20.921 29.7803 20.7803C29.921 20.6397 30 20.4489 30 20.25C30 19.0565 29.5259 17.9119 28.682 17.068C27.8381 16.2241 26.6935 15.75 25.5 15.75H24.75V14.25C24.75 14.0511 24.671 13.8603 24.5303 13.7197C24.3897 13.579 24.1989 13.5 24 13.5C23.8011 13.5 23.6103 13.579 23.4697 13.7197C23.329 13.8603 23.25 14.0511 23.25 14.25V15.75H22.125C20.9315 15.75 19.7869 16.2241 18.943 17.068C18.0991 17.9119 17.625 19.0565 17.625 20.25C17.625 21.4435 18.0991 22.5881 18.943 23.432C19.7869 24.2759 20.9315 24.75 22.125 24.75H23.25V30.75H21.75C20.9551 30.7475 20.1935 30.4307 19.6314 29.8686C19.0693 29.3065 18.7525 28.5449 18.75 27.75C18.75 27.5511 18.671 27.3603 18.5303 27.2197C18.3897 27.079 18.1989 27 18 27C17.8011 27 17.6103 27.079 17.4697 27.2197C17.329 27.3603 17.25 27.5511 17.25 27.75C17.25 28.9435 17.7241 30.0881 18.568 30.932C19.4119 31.7759 20.5565 32.25 21.75 32.25H23.25V33.75C23.25 33.9489 23.329 34.1397 23.4697 34.2803C23.6103 34.421 23.8011 34.5 24 34.5C24.1989 34.5 24.3897 34.421 24.5303 34.2803C24.671 34.1397 24.75 33.9489 24.75 33.75V32.25H26.25C27.4435 32.25 28.5881 31.7759 29.432 30.932C30.2759 30.0881 30.75 28.9435 30.75 27.75C30.75 26.5565 30.2759 25.4119 29.432 24.568C28.5881 23.7241 27.4435 23.25 26.25 23.25ZM23.25 23.25H22.125C21.3294 23.25 20.5663 22.9339 20.0037 22.3713C19.4411 21.8087 19.125 21.0456 19.125 20.25C19.125 19.4544 19.4411 18.6913 20.0037 18.1287C20.5663 17.5661 21.3294 17.25 22.125 17.25H23.25V23.25ZM26.25 30.75H24.75V24.75H26.25C27.0456 24.75 27.8087 25.0661 28.3713 25.6287C28.9339 26.1913 29.25 26.9544 29.25 27.75C29.25 28.5456 28.9339 29.3087 28.3713 29.8713C27.8087 30.4339 27.0456 30.75 26.25 30.75Z" fill="white"/>
</svg>
