<svg width="161" height="32" viewBox="0 0 161 32" fill="none" xmlns="http://www.w3.org/2000/svg">
<path d="M4.05 20.9749C3.71667 21.2082 3.375 21.2249 3.025 21.0249C2.675 20.8249 2.5 20.5249 2.5 20.1249V11.8749C2.5 11.4749 2.675 11.1789 3.025 10.9869C3.375 10.7956 3.71667 10.8082 4.05 11.0249L10.25 15.1749C10.55 15.3749 10.7 15.6499 10.7 15.9999C10.7 16.3499 10.55 16.6249 10.25 16.8249L4.05 20.9749ZM14.05 20.9749C13.7167 21.2082 13.375 21.2249 13.025 21.0249C12.675 20.8249 12.5 20.5249 12.5 20.1249V11.8749C12.5 11.4749 12.675 11.1789 13.025 10.9869C13.375 10.7956 13.7167 10.8082 14.05 11.0249L20.25 15.1749C20.55 15.3749 20.7 15.6499 20.7 15.9999C20.7 16.3499 20.55 16.6249 20.25 16.8249L14.05 20.9749Z" fill="url(#paint0_linear_1_322)"/>
<path d="M43.184 17.632V15.496H36.368V9.808H44.48V7.648H34.016V25H36.368V17.632H43.184ZM48.0485 10.48C48.8645 10.48 49.5365 9.808 49.5365 8.992C49.5365 8.152 48.8645 7.504 48.0485 7.504C47.2325 7.504 46.5605 8.152 46.5605 8.992C46.5605 9.808 47.2325 10.48 48.0485 10.48ZM46.9445 25H49.2005V13.264H46.9445V25ZM54.7318 25V18.784C54.7318 16.504 55.9558 14.992 58.0678 14.992C59.7958 14.992 60.8998 15.952 60.8998 18.328V25H63.1558V17.824C63.1558 14.824 61.7398 12.928 58.6438 12.928C56.9878 12.928 55.4998 13.72 54.7558 15.064L54.5158 13.264H52.4758V25H54.7318ZM69.7124 25.288C71.6084 25.288 73.2164 24.448 73.8164 23.104L74.0564 25H75.9764V17.632C75.9764 14.464 74.0084 12.928 71.1044 12.928C68.0804 12.928 66.0644 14.536 66.0644 16.984H68.0324C68.0324 15.568 69.1124 14.728 71.0084 14.728C72.5924 14.728 73.7684 15.424 73.7684 17.392V17.728L70.0724 18.016C67.3124 18.232 65.7044 19.576 65.7044 21.736C65.7044 23.872 67.1924 25.288 69.7124 25.288ZM70.3604 23.536C68.8964 23.536 67.9844 22.912 67.9844 21.664C67.9844 20.512 68.8004 19.744 70.7924 19.552L73.7924 19.312V19.936C73.7924 22.144 72.4964 23.536 70.3604 23.536ZM81.3568 25V18.784C81.3568 16.504 82.5808 14.992 84.6928 14.992C86.4208 14.992 87.5248 15.952 87.5248 18.328V25H89.7808V17.824C89.7808 14.824 88.3648 12.928 85.2688 12.928C83.6128 12.928 82.1248 13.72 81.3808 15.064L81.1408 13.264H79.1008V25H81.3568ZM92.1374 19.144C92.1374 22.84 94.4174 25.288 97.8734 25.288C100.705 25.288 102.889 23.584 103.345 21.04H101.089C100.681 22.432 99.4814 23.272 97.8734 23.272C95.7374 23.272 94.3694 21.64 94.3694 19.12C94.3694 16.576 95.8334 14.944 97.9694 14.944C99.4814 14.944 100.681 15.736 101.065 17.224H103.321C102.913 14.608 100.849 12.928 97.8974 12.928C94.4654 12.928 92.1374 15.472 92.1374 19.144ZM110.79 25.288C113.694 25.288 115.662 23.872 116.238 21.352H114.126C113.742 22.696 112.59 23.416 110.838 23.416C108.606 23.416 107.31 22.048 107.142 19.576L116.214 19.552V18.712C116.214 15.232 114.03 12.928 110.694 12.928C107.286 12.928 104.958 15.472 104.958 19.144C104.958 22.792 107.334 25.288 110.79 25.288ZM110.694 14.824C112.686 14.824 113.958 16.12 113.958 18.064H107.19C107.478 16 108.726 14.824 110.694 14.824ZM128.286 17.632V15.496H121.47V9.808H129.582V7.648H119.118V25H121.47V17.632H128.286ZM134.517 25.288C136.413 25.288 138.021 24.448 138.621 23.104L138.861 25H140.781V17.632C140.781 14.464 138.813 12.928 135.909 12.928C132.885 12.928 130.869 14.536 130.869 16.984H132.837C132.837 15.568 133.917 14.728 135.813 14.728C137.397 14.728 138.573 15.424 138.573 17.392V17.728L134.877 18.016C132.117 18.232 130.509 19.576 130.509 21.736C130.509 23.872 131.997 25.288 134.517 25.288ZM135.165 23.536C133.701 23.536 132.789 22.912 132.789 21.664C132.789 20.512 133.605 19.744 135.597 19.552L138.597 19.312V19.936C138.597 22.144 137.301 23.536 135.165 23.536ZM142.945 21.592C142.945 23.824 144.697 25.288 147.457 25.288C150.241 25.288 152.161 23.872 152.161 21.64C152.161 19.888 151.177 18.976 149.185 18.496L147.121 17.992C145.969 17.704 145.393 17.176 145.393 16.384C145.393 15.304 146.185 14.68 147.601 14.68C148.969 14.68 149.761 15.424 149.809 16.6H151.969C151.921 14.368 150.241 12.928 147.673 12.928C145.081 12.928 143.257 14.296 143.257 16.456C143.257 18.184 144.241 19.216 146.329 19.72L148.393 20.2C149.617 20.512 150.001 20.992 150.001 21.784C150.001 22.864 149.089 23.512 147.505 23.512C146.017 23.512 145.105 22.792 145.105 21.592H142.945ZM157.975 25V15.16H160.279V13.264H157.975V9.592H155.719V13.264H153.415V15.16H155.719V25H157.975Z" fill="#1A1A1A"/>
<defs>
<linearGradient id="paint0_linear_1_322" x1="11.6" y1="10.8523" x2="11.6" y2="21.1633" gradientUnits="userSpaceOnUse">
<stop offset="0.645833" stop-color="#6364FF"/>
<stop offset="1" stop-color="#563ACC"/>
</linearGradient>
</defs>
</svg>
