<svg width="150" height="75" viewBox="0 0 150 75" fill="none" xmlns="http://www.w3.org/2000/svg">
<path d="M17.9562 15.9937V29.6537L57.2062 29.6524V15.9937H17.9562ZM51.8 19.6749L52.1675 19.6824C52.24 19.6849 52.2987 19.7487 52.2987 19.8074V25.8987L51.7987 25.4687C51.82 25.4312 51.8362 25.3937 51.8362 25.3437V19.7724C51.83 19.7399 51.8212 19.7149 51.8112 19.6912L51.8 19.6749ZM52.1475 25.9999H49.05C49.036 25.9166 49.0041 25.8373 48.9567 25.7674C48.9092 25.6975 48.8472 25.6387 48.775 25.5949H51.56C51.5898 25.5965 51.6194 25.5905 51.6462 25.5774L52.1475 25.9999ZM45.4637 19.7674C45.5388 19.7142 45.6261 19.6807 45.7175 19.6699C45.745 19.6699 45.78 19.6649 45.8112 19.6649H45.8387C46.4012 19.6649 47.07 19.7062 47.5887 19.8999C48.1075 20.0937 48.4562 20.4162 48.4575 21.0249H48.645C48.6487 20.4274 48.9975 20.1124 49.5175 19.8999C50.0175 19.7049 50.705 19.6649 51.2612 19.6649H51.3237C51.3512 19.6649 51.3737 19.6699 51.3987 19.6699C51.4535 19.6785 51.5072 19.6932 51.5587 19.7137C51.5925 19.7312 51.6175 19.7474 51.6312 19.7574L51.6387 25.3287C51.6387 25.3749 51.6012 25.4099 51.5637 25.4099H45.5387C45.4975 25.4099 45.4637 25.3724 45.4637 25.3287V19.7662V19.7674ZM45.5387 25.5962H48.1662C48.0237 25.6837 47.92 25.8462 47.8912 26.0012H44.925C44.9125 26.0012 44.905 25.9987 44.8925 25.9987L45.41 25.5612C45.45 25.5837 45.4937 25.5987 45.5387 25.5987V25.5962ZM44.805 19.7962C44.805 19.7499 44.8587 19.6874 44.9325 19.6712L45.3037 19.6637C45.2891 19.6889 45.2801 19.7171 45.2775 19.7462V25.3174C45.2775 25.3474 45.2825 25.3774 45.2925 25.4024L44.7925 25.8187V19.7812L44.805 19.7962ZM41.2762 19.6937C41.345 19.6937 41.4062 19.7649 41.4062 19.8187V25.8687L40.9087 25.4512C40.9231 25.4206 40.9307 25.3874 40.9312 25.3537V19.7787C40.925 19.7462 40.9162 19.7262 40.9062 19.7037L41.275 19.7049L41.2762 19.6937ZM41.2962 26.0137H38.1562C38.1448 25.9308 38.1157 25.8514 38.0711 25.7807C38.0265 25.71 37.9673 25.6496 37.8975 25.6037H40.6687C40.7062 25.6037 40.7437 25.5937 40.7937 25.5787L41.2962 26.0137ZM37.7462 20.8362C37.75 20.3137 38.0237 20.0362 38.4275 19.8699C38.8312 19.7037 39.355 19.6649 39.7925 19.6649L40.4925 19.6774C40.5511 19.6847 40.6081 19.7016 40.6612 19.7274C40.6912 19.7399 40.7212 19.7599 40.7362 19.7724L40.7425 19.7774V25.3449C40.7425 25.3862 40.7087 25.4162 40.67 25.4162H37.7475L37.7462 20.8362ZM34.5675 19.7762C34.5825 19.7674 34.6262 19.7349 34.6775 19.7137C34.7263 19.6965 34.7771 19.686 34.8287 19.6824L35.5412 19.6637C35.9737 19.6637 36.4962 19.7012 36.8962 19.8687C37.2925 20.0437 37.5612 20.3137 37.5625 20.8349V25.4137H34.65C34.6037 25.4137 34.57 25.3837 34.57 25.3424V19.7749L34.5675 19.7762ZM34.6475 25.6012H37.2575C37.1872 25.6469 37.1275 25.7071 37.0825 25.7779C37.0374 25.8486 37.008 25.9281 36.9962 26.0112H34.0287C34.0162 26.0112 34.0037 26.0112 33.9887 26.0049L34.5137 25.5649C34.5512 25.5899 34.5962 25.6012 34.6475 25.6012ZM33.9075 19.8049C33.9075 19.7649 33.965 19.6799 34.0387 19.6799L34.4075 19.6787C34.395 19.7012 34.3862 19.7224 34.3825 19.7537V25.3287C34.3839 25.3558 34.3903 25.3825 34.4012 25.4074L33.9087 25.8237L33.9075 19.8049ZM30.0112 19.6799L30.3787 19.6812C30.4475 19.6812 30.51 19.7524 30.51 19.8062V25.8712L30.01 25.4462C30.0225 25.4137 30.0325 25.3787 30.0325 25.3412V19.7662C30.0312 19.7349 30.0225 19.7137 30.01 19.6912L30.0112 19.6799ZM30.3937 26.0012H27.26C27.248 25.9188 27.2191 25.8398 27.175 25.7692C27.1309 25.6986 27.0726 25.638 27.0037 25.5912H29.7712C29.8087 25.5912 29.8487 25.5849 29.8812 25.5712L30.3937 26.0012ZM26.8537 20.8237C26.8575 20.3012 27.1287 20.0237 27.5312 19.8574C27.9337 19.6912 28.4612 19.6524 28.9012 19.6524L29.5962 19.6649C29.6137 19.6649 29.7 19.6824 29.765 19.7149C29.7922 19.7266 29.8178 19.7417 29.8412 19.7599L29.8475 19.7649V25.3324C29.8475 25.3737 29.8137 25.4037 29.77 25.4037H26.85L26.8537 20.8237ZM23.6712 19.7637C23.6862 19.7549 23.7312 19.7224 23.7962 19.7012C23.8448 19.6849 23.8952 19.6744 23.9462 19.6699L24.6562 19.6512C25.09 19.6512 25.6087 19.6887 26.0087 19.8562C26.4062 20.0312 26.675 20.3012 26.68 20.8224L26.6787 25.4012H23.75C23.7062 25.4012 23.67 25.3712 23.67 25.3299L23.6712 19.7637ZM23.75 25.5999H26.375C26.2325 25.6937 26.1412 25.8399 26.115 26.0099H23.125C23.1 26.0099 23.0837 26.0099 23.0712 26.0012L23.5925 25.5562C23.6337 25.5837 23.6875 25.5999 23.7387 25.5999H23.75ZM23 19.8037C23 19.7637 23.0575 19.6787 23.1287 19.6787L23.4937 19.6774C23.4812 19.6999 23.4762 19.7174 23.4712 19.7524V25.3274C23.4712 25.3487 23.4762 25.3687 23.4837 25.3949L23 25.8049V19.8037ZM22.345 26.4587C22.2475 26.4587 22.1737 26.3774 22.1737 26.2837V25.3712C21.9175 25.3387 21.7187 25.1787 21.7187 24.9899C21.7187 24.8012 21.9187 24.6399 22.1737 24.6062V21.6624C21.9175 21.6249 21.7187 21.4699 21.7187 21.2812C21.7187 21.0924 21.9187 20.9362 22.1737 20.8987V19.7312C22.1737 19.6362 22.2487 19.5624 22.345 19.5624L22.855 19.6624C22.83 19.6999 22.8137 19.7499 22.8125 19.8024V25.9099C22.8137 26.0787 22.9587 26.1974 23.1225 26.1974H26.09C26.105 26.2949 26.1462 26.3824 26.205 26.4574L22.345 26.4587ZM26.8387 26.4587H26.495C26.4263 26.4248 26.3684 26.3725 26.3278 26.3076C26.2872 26.2426 26.2654 26.1677 26.265 26.0912C26.265 25.9847 26.3073 25.8827 26.3825 25.8074C26.4578 25.7322 26.5598 25.6899 26.6662 25.6899C26.7727 25.6899 26.8747 25.7322 26.95 25.8074C27.0252 25.8827 27.0675 25.9847 27.0675 26.0912C27.0675 26.2537 26.9737 26.3912 26.8375 26.4587H26.8387ZM31.5712 24.9912C31.5712 25.1787 31.3737 25.3337 31.1187 25.3724V26.2849C31.1187 26.3762 31.0437 26.4599 30.9475 26.4599H27.125C27.1827 26.3824 27.2228 26.2933 27.2425 26.1987H30.3725C30.5312 26.1987 30.6762 26.0799 30.6762 25.9112V19.8037C30.6762 19.7337 30.6512 19.6737 30.6137 19.6262L30.9462 19.5637C31.0425 19.5637 31.1175 19.6387 31.1175 19.7324V20.9012C31.3737 20.9387 31.57 21.0912 31.57 21.2824C31.57 21.4737 31.3725 21.6262 31.1175 21.6637V24.6074C31.375 24.6449 31.5712 24.8049 31.5712 24.9912ZM33.2337 26.4587C33.14 26.4587 33.0662 26.3774 33.0662 26.2837V25.3712C32.8162 25.3387 32.6087 25.1787 32.6087 24.9899C32.6087 24.8012 32.8037 24.6399 33.0662 24.6062V21.6624C32.8162 21.6249 32.6087 21.4699 32.6087 21.2812C32.6087 21.0924 32.8037 20.9362 33.0662 20.8987V19.7312C33.0662 19.6362 33.1387 19.5624 33.2337 19.5624L33.7337 19.6624C33.7087 19.7024 33.6962 19.7499 33.6962 19.8024V25.9099C33.6962 26.0787 33.8387 26.1974 34.0025 26.1974H36.9712C36.9886 26.2919 37.028 26.381 37.0862 26.4574L33.2337 26.4587ZM37.73 26.4587H37.3837C37.2537 26.3912 37.1562 26.2549 37.1562 26.0912C37.1562 25.8737 37.3375 25.6937 37.5612 25.6937C37.6671 25.6933 37.7688 25.735 37.844 25.8095C37.9192 25.884 37.9618 25.9853 37.9625 26.0912C37.9637 26.2537 37.865 26.3912 37.73 26.4587ZM42.4625 24.9912C42.4625 25.1787 42.27 25.3337 42.0125 25.3724V26.2849C42.0122 26.3307 41.9939 26.3745 41.9617 26.407C41.9294 26.4394 41.8857 26.458 41.84 26.4587H38.0212C38.0785 26.3812 38.1177 26.2919 38.1362 26.1974H41.2637C41.4262 26.1974 41.5737 26.0787 41.5737 25.9099V19.8024C41.5737 19.7324 41.5487 19.6724 41.5087 19.6249L41.8412 19.5624C41.9387 19.5624 42.0137 19.6374 42.0137 19.7312V20.8999C42.2712 20.9374 42.4637 21.0899 42.4637 21.2812C42.4637 21.4724 42.2712 21.6249 42.0137 21.6624V24.6062C42.2712 24.6437 42.4637 24.8037 42.4637 24.9899L42.4625 24.9912ZM44.1287 26.4587C44.0412 26.4587 43.96 26.3774 43.96 26.2837V25.3712C43.71 25.3387 43.5062 25.1787 43.5062 24.9899C43.5062 24.8012 43.7 24.6399 43.96 24.6062V21.6624C43.71 21.6249 43.5062 21.4699 43.5062 21.2812C43.5062 21.0924 43.7 20.9362 43.96 20.8987V19.7312C43.96 19.6362 44.0387 19.5624 44.1287 19.5624L44.635 19.6624C44.614 19.7027 44.6021 19.747 44.6 19.7924V25.8999C44.6037 26.0649 44.745 26.1824 44.9075 26.1824H47.875C47.8925 26.2849 47.9375 26.3749 47.9962 26.4574L44.1287 26.4587ZM48.6262 26.4587H48.2825C48.1575 26.3912 48.0537 26.2549 48.0537 26.0912C48.0544 25.9859 48.0965 25.8852 48.1709 25.8108C48.2453 25.7364 48.346 25.6943 48.4512 25.6937C48.6762 25.6937 48.8575 25.8737 48.8575 26.0912C48.8575 26.2537 48.7587 26.3912 48.6262 26.4587ZM53.36 24.9912C53.36 25.1787 53.1637 25.3412 52.9012 25.3724V26.2849C52.9012 26.3762 52.8287 26.4599 52.735 26.4599H48.9125C48.9747 26.3796 49.0159 26.2851 49.0325 26.1849H52.155C52.32 26.1849 52.4675 26.0674 52.4675 25.8974V19.7937C52.4675 19.7287 52.445 19.6737 52.4125 19.6262L52.735 19.5637C52.8287 19.5637 52.9012 19.6387 52.9012 19.7324V20.8999C53.1512 20.9374 53.36 21.0899 53.36 21.2824C53.36 21.4749 53.1637 21.6262 52.9012 21.6637V24.6074C53.1512 24.6449 53.36 24.8049 53.36 24.9912ZM28.365 23.9412C28.1725 23.9412 28.1187 23.8937 28.1187 23.7162V22.7387C28.4087 22.7387 28.5587 22.8574 28.5962 23.3637H28.6687V21.9999H28.5962C28.5487 22.4999 28.4012 22.6074 28.1187 22.6024V21.6649C28.1187 21.4899 28.1687 21.4774 28.3312 21.4774C28.7275 21.4774 28.9362 21.5774 29.0012 22.1524H29.0737V21.3374H27.3787V21.4412C27.5037 21.4537 27.6287 21.4599 27.6287 21.7287V23.6874C27.6287 23.9299 27.5375 23.9462 27.3787 23.9687V24.0712H29.1012L29.22 23.2274H29.135C28.95 23.8524 28.655 23.9449 28.3637 23.9449L28.365 23.9412ZM49.975 23.8587C50.0662 23.8587 50.1962 23.9837 50.4787 23.9837C51.0162 23.9837 51.2062 23.4937 51.2062 23.1337C51.2062 22.6962 50.985 22.4612 50.8812 22.3837L50.4537 22.0899C50.2037 21.9212 50.15 21.8324 50.15 21.6149C50.15 21.3649 50.3125 21.2312 50.4625 21.2312C50.8125 21.2312 50.9875 21.6937 51.0425 21.9749H51.1225V21.0999H51.0387C51.0212 21.1812 51.0075 21.2412 50.9387 21.2412C50.8562 21.2412 50.7175 21.1062 50.4825 21.1062C49.9225 21.1062 49.8325 21.6562 49.8325 21.9062C49.8325 22.0937 49.8325 22.4387 50.3362 22.7812L50.5337 22.9062C50.7212 23.0287 50.8587 23.1274 50.8587 23.4062C50.8587 23.4649 50.85 23.8649 50.4837 23.8649C50.1087 23.8649 49.9375 23.4024 49.8775 22.9974H49.7925V23.9974H49.8775C49.8925 23.9312 49.9025 23.8724 49.965 23.8724L49.975 23.8587ZM24.3 21.6649L25.05 24.0862H25.1287L25.7987 21.7162C25.8675 21.4912 25.9037 21.4099 26.0637 21.3849V21.2824H25.4387V21.3849C25.6075 21.3974 25.6925 21.4099 25.6925 21.5674C25.6925 21.6499 25.66 21.7549 25.635 21.8487L25.26 23.1737L24.8787 21.8987C24.8512 21.7987 24.7875 21.6262 24.7875 21.5487C24.7875 21.3987 24.8575 21.3987 25.0437 21.3824V21.2799H24.0437V21.3824C24.1687 21.4074 24.215 21.4199 24.29 21.6624L24.3 21.6649ZM36.0212 23.8899C35.8312 23.8524 35.765 23.8399 35.765 23.5199V22.7274H35.8437L36.4537 23.9949H37.0537V23.8899C37.0162 23.8899 36.9725 23.8887 36.9325 23.8149L36.3412 22.6649C36.4987 22.5924 36.8012 22.4699 36.8012 21.9699C36.8012 21.2912 36.1812 21.2599 35.9762 21.2599H35.03V21.3674C35.1975 21.3799 35.29 21.3874 35.29 21.7324V23.5199C35.29 23.8449 35.2275 23.8574 35.03 23.8899V23.9949H36.0212V23.8899ZM35.765 21.5699C35.7775 21.4412 35.785 21.3987 35.95 21.3987C36.1837 21.3987 36.3037 21.5737 36.3037 21.9812C36.3037 22.5024 36.1537 22.6062 35.7662 22.5962L35.765 21.5699ZM46.3112 21.3924V23.5174C46.3112 23.8549 46.2437 23.8674 46.0262 23.8874V23.9924H47.0787V23.8749C46.8575 23.8549 46.7875 23.8462 46.7875 23.5049V21.3799C46.99 21.3887 47.2937 21.4174 47.35 22.0637H47.4375L47.4337 21.2387H45.6675L45.6612 22.0537H45.7487C45.8037 21.4037 46.1037 21.3787 46.3112 21.3699V21.3924ZM48.0987 23.8862C47.9987 23.8774 47.8562 23.8662 47.8562 23.7137C47.8562 23.6449 47.9062 23.4787 47.99 23.1849H48.65C48.6875 23.3149 48.7787 23.6162 48.7787 23.7262C48.7787 23.8599 48.7287 23.8662 48.5487 23.8862V23.9812H49.4987V23.8749C49.3587 23.8837 49.3112 23.7424 49.1787 23.3124L48.5262 21.1874H48.445L47.795 23.3999C47.7037 23.7049 47.6637 23.8437 47.505 23.8749V23.9699H48.1012L48.0987 23.8862ZM48.3075 22.0524L48.6025 23.0312H48.03L48.3075 22.0524ZM38.6825 21.3674C38.8075 21.3762 38.955 21.3849 38.955 21.6474V23.6012C38.955 23.8512 38.84 23.8687 38.6825 23.8887V23.9937H39.7125V23.8887C39.55 23.8762 39.4325 23.8599 39.4325 23.6012V21.6512C39.4325 21.3812 39.5725 21.3762 39.7125 21.3712V21.2499H38.6825V21.3674ZM44.6625 30.9174C44.9119 31.2998 45.0796 31.7296 45.155 32.1799C45.3675 33.4512 44.7475 34.7949 42.4237 34.9299C42.3862 36.8349 41.9175 37.6137 39.5012 37.6549C39.71 39.6824 38.6512 40.3424 37.51 40.3424C36.3687 40.3424 35.3037 39.6837 35.5137 37.6549C33.0975 37.6112 32.6312 36.8324 32.5887 34.9299C30.2637 34.8087 29.6475 33.4649 29.8637 32.1799C29.9337 31.7274 30.1087 31.2887 30.3537 30.9299H17.9537V31.5599C17.975 54.8749 37.2337 64.8999 37.2912 64.9312L37.5825 65.0874L37.8787 64.9312C37.9362 64.8999 57.1975 54.8624 57.2162 31.5599V30.9299L44.6625 30.9174ZM28.575 52.2999C29.0375 52.0574 29.3912 51.3461 29.475 50.8624C29.6 50.2374 29.7175 49.9874 30.05 49.9649C30.3825 49.9424 30.5125 50.2374 30.625 50.8624C30.7075 51.3461 31.06 52.0562 31.5225 52.2999C31.81 52.4524 32.74 52.4749 32.5512 53.0199C32.4225 53.2674 32.2512 53.7749 32.0012 53.5499C31.7512 53.3249 31.3112 52.7374 31.1262 52.6999C30.9587 52.6712 30.9825 52.9249 31.0537 53.0124C31.1512 53.1224 31.445 53.5499 31.6125 53.7462C31.825 53.9862 31.89 54.4274 31.5187 54.6012C31.1475 54.7749 30.7687 54.5537 30.7775 54.3549C30.79 54.0549 30.6112 53.1987 30.4487 53.1987C30.32 53.1987 30.315 53.4237 30.3287 53.6637C30.2787 54.1687 30.6162 54.5724 30.5787 54.8324C30.5325 55.0849 30.4787 55.3537 30.0362 55.3487C29.5912 55.3362 29.5362 55.0987 29.4937 54.8324C29.4525 54.5824 29.7937 54.1674 29.7387 53.6637C29.7537 53.4224 29.7487 53.1987 29.62 53.1987C29.4625 53.1987 29.275 54.0562 29.295 54.3549C29.3025 54.5549 28.92 54.7762 28.55 54.6012C28.18 54.4262 28.245 53.9849 28.4537 53.7462C28.6225 53.5487 28.92 53.1237 29.0162 53.0124C29.085 52.9249 29.1137 52.6712 28.9437 52.6999C28.7725 52.7374 28.3387 53.3224 28.0837 53.5499C27.8287 53.7774 27.6612 53.2674 27.5337 53.0199C27.3462 52.4762 28.2737 52.4524 28.5625 52.2999H28.575ZM28.8925 50.6999C29.1887 50.6662 29.04 50.9749 29.0087 51.2499C28.9775 51.5249 28.9037 51.5499 28.6175 51.1649C28.3312 50.7799 28.5712 50.7362 28.8925 50.7024V50.6999ZM31.1925 50.7274C31.5112 50.7699 31.755 50.8149 31.4675 51.1899C31.18 51.5749 31.1075 51.5449 31.075 51.2774C31.0425 51.0099 30.8937 50.6974 31.1925 50.7249V50.7274ZM44.8925 53.1987C44.7337 53.1987 44.555 54.0562 44.5675 54.3549C44.575 54.5549 44.1975 54.7762 43.8237 54.6012C43.45 54.4262 43.52 53.9849 43.73 53.7462C43.9 53.5487 44.1987 53.1237 44.2925 53.0124C44.36 52.9249 44.3862 52.6712 44.2175 52.6999C44.0487 52.7374 43.6112 53.3224 43.3425 53.5499C43.0737 53.7774 42.9212 53.2674 42.7925 53.0199C42.6 52.4774 43.5325 52.4524 43.8175 52.2999C44.28 52.0574 44.6337 51.3461 44.7175 50.8624C44.8262 50.2374 44.9675 49.9874 45.2925 49.9649C45.6175 49.9424 45.75 50.2374 45.8675 50.8624C45.9487 51.3461 46.305 52.0562 46.7675 52.2999C47.055 52.4524 47.9837 52.4749 47.7962 53.0199C47.665 53.2674 47.4962 53.7749 47.2425 53.5499C46.9887 53.3249 46.555 52.7374 46.3837 52.6999C46.2175 52.6712 46.2412 52.9249 46.3112 53.0124C46.4112 53.1224 46.7062 53.5499 46.8762 53.7462C47.0887 53.9862 47.1512 54.4274 46.7762 54.6012C46.4012 54.7749 46.0262 54.5537 46.0362 54.3549C46.0487 54.0549 45.8675 53.1987 45.7075 53.1987C45.5775 53.1987 45.5825 53.4237 45.5887 53.6637C45.5337 54.1687 45.8762 54.5724 45.8312 54.8324C45.79 55.0849 45.735 55.3537 45.2937 55.3487C44.8462 55.3362 44.7937 55.0987 44.7487 54.8324C44.7062 54.5824 45.0462 54.1674 44.9937 53.6637C45.0112 53.4224 45.0087 53.1987 44.875 53.1987H44.8925ZM44.1512 50.6987C44.4512 50.6649 44.2975 50.9737 44.27 51.2487C44.2425 51.5237 44.1625 51.5487 43.8787 51.1637C43.595 50.7787 43.8337 50.7349 44.1537 50.7012L44.1512 50.6987ZM46.4512 50.7262C46.7737 50.7687 47.01 50.8137 46.7262 51.1887C46.4412 51.5737 46.3662 51.5437 46.335 51.2762C46.3037 51.0087 46.15 50.6962 46.45 50.7237L46.4512 50.7262ZM46.7262 35.8212C46.4412 36.2037 46.3662 36.1762 46.335 35.9049C46.3037 35.6337 46.15 35.3262 46.45 35.3549C46.7712 35.3899 47.01 35.4424 46.7262 35.8212ZM44.1487 35.3262C44.4487 35.2937 44.295 35.6049 44.2675 35.8724C44.24 36.1399 44.16 36.1762 43.8762 35.7924C43.5925 35.4087 43.8312 35.3587 44.1512 35.3262H44.1487ZM43.8312 36.9262C44.2937 36.6837 44.6475 35.9799 44.7312 35.4912C44.84 34.8624 44.9812 34.6162 45.3062 34.5912C45.6312 34.5849 45.7637 34.8637 45.8812 35.4912C45.9625 35.9912 46.3187 36.6824 46.7812 36.9262C47.0687 37.0812 47.9975 37.1012 47.81 37.6474C47.6787 37.9024 47.51 38.4024 47.2562 38.1774C47.0025 37.9524 46.5687 37.3649 46.3975 37.3299C46.2262 37.2949 46.255 37.5624 46.325 37.6387C46.425 37.7549 46.72 38.1762 46.89 38.3712C47.1025 38.6124 47.165 39.0587 46.79 39.2462C46.415 39.4337 46.04 39.1962 46.05 38.9962C46.0625 38.6962 45.8812 37.8387 45.7212 37.8387C45.5912 37.8387 45.5962 38.0587 45.6025 38.3062C45.5475 38.8099 45.89 39.2112 45.845 39.4724C45.8 39.7337 45.7487 39.9949 45.3075 39.9887C44.86 39.9787 44.8075 39.7312 44.7625 39.4724C44.7175 39.2137 45.06 38.8099 45.0075 38.3062C45.0275 38.0587 45.0237 37.8387 44.8887 37.8387C44.73 37.8387 44.5512 38.6974 44.5637 38.9962C44.5712 39.1924 44.1937 39.4174 43.82 39.2462C43.4462 39.0749 43.5162 38.6249 43.7262 38.3887C43.8962 38.1887 44.195 37.7674 44.2887 37.6387C44.3562 37.5637 44.3825 37.2974 44.2137 37.3299C44.045 37.3624 43.6075 37.9499 43.3387 38.1774C43.07 38.4049 42.9175 37.9024 42.7887 37.6474C42.5962 37.0999 43.5287 37.0824 43.8137 36.9262H43.8312ZM45.3062 43.0512C45.0937 40.9012 46.4487 40.2837 48.0587 40.4074C47.8462 38.2574 48.9337 37.5537 50.8562 37.6349C50.6012 35.1187 52.2987 34.8287 53.6137 34.9124C53.41 33.0374 54.745 32.2649 55.6512 32.1699H55.9387C55.8137 40.7949 52.9312 47.4574 49.4787 52.4274C48.0462 52.0724 47.8162 50.9124 47.9312 49.8699C45.815 50.1199 44.9662 48.5887 45.26 47.1424C44.455 47.4299 42.7162 47.0174 42.5062 45.4874C42.2962 43.9574 43.525 43.0512 45.3062 43.0512ZM38.8062 43.0336C39.1262 43.0662 39.3687 43.1149 39.0837 43.4937C38.7987 43.8724 38.7237 43.8474 38.6925 43.5774C38.6612 43.3074 38.5075 42.9999 38.8175 43.0336H38.8062ZM36.5062 42.9999C36.8 42.9662 36.6525 43.2799 36.6312 43.5449C36.61 43.8099 36.5275 43.8474 36.2562 43.4662C35.985 43.0849 36.21 43.0349 36.5337 42.9999H36.5062ZM36.1875 44.5999C36.6475 44.3574 37.0037 43.6499 37.085 43.1624C37.195 42.5399 37.3312 42.2874 37.66 42.2649C37.9887 42.2424 38.1225 42.5399 38.23 43.1624C38.315 43.6624 38.67 44.3562 39.13 44.5999C39.42 44.7524 40.35 44.7749 40.16 45.3249C40.0287 45.5786 39.86 46.0812 39.6075 45.8549C39.355 45.6287 38.9162 45.0399 38.7512 45.0049C38.5787 44.9749 38.605 45.2299 38.6762 45.3174C38.7712 45.4424 39.0675 45.8549 39.2387 46.0512C39.4512 46.2924 39.5112 46.7312 39.1412 46.9074C38.7712 47.0837 38.3887 46.8574 38.3975 46.6574C38.4162 46.3549 38.2287 45.5012 38.0687 45.5012C37.9412 45.5012 37.9375 45.7187 37.9437 45.9599C37.8937 46.4599 38.2312 46.8749 38.1887 47.1349C38.1462 47.3949 38.0912 47.6562 37.6487 47.6499C37.2062 47.6437 37.1487 47.3999 37.1112 47.1349C37.065 46.8762 37.4025 46.4724 37.3512 45.9599C37.3662 45.7199 37.36 45.5012 37.235 45.5012C37.0725 45.5012 36.8925 46.3549 36.9037 46.6574C36.9162 46.8549 36.535 47.0799 36.1637 46.9074C35.7925 46.7349 35.8575 46.2924 36.07 46.0512C36.2387 45.8562 36.535 45.4299 36.6287 45.3174C36.6987 45.2299 36.7262 44.9762 36.5537 45.0049C36.3812 45.0337 35.95 45.6249 35.6987 45.8549C35.4475 46.0849 35.2737 45.5799 35.145 45.3249C34.955 44.7749 35.895 44.7524 36.1737 44.5999H36.1875ZM35.4962 52.7249C35.3287 51.1074 36.3037 50.0399 37.6175 50.0399C38.9312 50.0399 39.905 51.1074 39.7387 52.7249C41.18 52.3124 43.0862 53.0074 42.6225 55.4912C44.2675 54.9337 45.535 55.7949 45.615 57.1449C41.9712 60.9412 38.54 63.0449 37.55 63.6262C36.545 63.0512 33.1787 60.9787 29.6037 57.2699C29.6037 55.8474 30.9162 54.9137 32.6137 55.4912C32.1475 53.0074 34.0575 52.3137 35.4962 52.7249ZM32.7837 45.4749C32.5712 47.0024 30.8337 47.4174 30.03 47.1299C30.3225 48.5761 29.48 50.1049 27.3575 49.8574C27.4775 50.9374 27.2325 52.1574 25.6675 52.4524C22.2137 47.4774 19.33 40.7849 19.2 32.1649C19.2125 32.1649 19.225 32.1599 19.2375 32.1599H19.6375C20.5475 32.2599 21.8775 33.0274 21.68 34.9024C22.9925 34.8187 24.6887 35.1087 24.435 37.6249C26.3425 37.5437 27.445 38.2462 27.23 40.3974C28.855 40.2724 30.205 40.8912 29.99 43.0412C31.7675 43.0399 32.9962 43.9499 32.785 45.4762L32.7837 45.4749ZM28.6525 35.8462C28.615 36.1187 28.545 36.1499 28.2575 35.7662C27.97 35.3824 28.2175 35.3324 28.5362 35.2999C28.8362 35.2674 28.6837 35.5774 28.6525 35.8462ZM30.8362 35.3287C31.155 35.3662 31.3962 35.4162 31.1112 35.7949C30.8262 36.1737 30.7525 36.1499 30.72 35.8787C30.6875 35.6074 30.545 35.3012 30.8362 35.3287ZM30.2612 35.4537C30.3487 35.9537 30.7012 36.6449 31.1637 36.8887C31.4512 37.0437 32.3837 37.0637 32.1912 37.6099C32.0625 37.8649 31.8937 38.3687 31.6387 38.1399C31.3837 37.9112 30.9512 37.3274 30.7825 37.2924C30.6137 37.2574 30.64 37.5249 30.7112 37.6012C30.805 37.7174 31.0862 38.1387 31.2737 38.3512C31.4837 38.6012 31.5487 39.0349 31.1787 39.2087C30.8087 39.3824 30.4287 39.1587 30.435 38.9587C30.45 38.6587 30.265 37.8012 30.105 37.8012C29.98 37.8012 29.9737 38.0212 29.98 38.2687C29.925 38.7724 30.2612 39.1737 30.22 39.4349C30.1787 39.6962 30.1237 39.9574 29.68 39.9512C29.2362 39.9449 29.1825 39.6937 29.14 39.4349C29.0975 39.1762 29.4375 38.7724 29.3825 38.2687C29.4025 38.0212 29.395 37.8012 29.2575 37.8012C29.0987 37.8012 28.9137 38.6599 28.9262 38.9587C28.9387 39.1549 28.5587 39.3799 28.1762 39.2087C27.7937 39.0374 27.8675 38.5874 28.0812 38.3512C28.2487 38.1512 28.5475 37.7299 28.6412 37.6012C28.7125 37.5262 28.7375 37.2599 28.5687 37.2924C28.4 37.3249 27.965 37.9124 27.71 38.1399C27.455 38.3674 27.285 37.8649 27.16 37.6099C26.9675 37.0624 27.91 37.0449 28.185 36.8887C28.6475 36.6462 28.9975 35.9424 29.085 35.4537C29.1937 34.8249 29.33 34.5787 29.655 34.5537C29.9862 34.5474 30.1175 34.8262 30.225 35.4537H30.2612ZM77.4237 40.1999C77.4237 41.9774 76.2062 43.1749 73.5112 43.1749H68.4575V32.1499H73.3612C75.7012 32.1499 76.9537 33.2162 76.9537 35.0324C76.9537 36.3249 76.2062 37.2237 75.0262 37.5224C76.58 37.8412 77.4212 38.8899 77.4212 40.1999H77.4237ZM71.5 36.7499H72.68C73.4675 36.7499 73.955 36.4499 73.955 35.6999C73.955 34.9499 73.455 34.6499 72.68 34.6499H71.5V36.7499ZM71.5 40.6624H73.0912C73.8575 40.6624 74.2887 40.3249 74.2887 39.6899C74.2887 39.0549 73.8575 38.7149 73.0912 38.7149H71.5V40.6624ZM83.405 41.5774C83.16 42.7199 82.28 43.4099 80.8025 43.4099C79.23 43.4099 78.1275 42.4374 78.1275 40.4099V34.5249H81.1587V39.7499C81.1587 40.6249 81.4012 41.1349 82.0962 41.1349C82.8837 41.1349 83.3712 40.4224 83.3712 39.0199V34.5249H86.375V43.1724H83.6625L83.405 41.5774ZM89.475 40.1999C89.5352 40.5143 89.7061 40.7967 89.9568 40.9958C90.2075 41.1949 90.5213 41.2975 90.8412 41.2849C91.3837 41.2849 91.7587 41.0974 91.7587 40.7224C91.7587 40.3474 91.4412 40.1799 90.8212 40.0474L89.6587 39.8037C88.0862 39.4662 87.2625 38.6612 87.2625 37.2387C87.2625 35.1424 89.06 34.3187 90.9875 34.3187C93.065 34.3187 94.3187 35.1937 94.6175 36.7899L91.8675 37.2024C91.7737 36.7024 91.475 36.4349 90.8925 36.4349C90.4625 36.4349 90.1625 36.6412 90.1625 36.9774C90.1625 37.3137 90.405 37.4824 90.855 37.5587L92.015 37.7649C93.9237 38.0837 94.7275 39.1124 94.7275 40.5724C94.7275 42.6124 92.95 43.3974 90.815 43.3974C88.85 43.3974 87.54 42.6874 87.065 41.1512L89.475 40.1999ZM97.11 30.7812C98.01 30.7812 98.7762 31.3987 98.7762 32.3724C98.7762 33.3462 98.0087 33.9637 97.11 33.9637C96.2112 33.9637 95.445 33.3462 95.445 32.3724C95.445 31.3987 96.2125 30.7812 97.11 30.7812ZM98.625 34.5249V43.1724H95.625V34.5249H98.625ZM102.932 36.1924C103.382 34.8999 104.392 34.3199 105.682 34.3199C107.011 34.3199 108.21 35.1074 108.21 37.0912V43.1749H105.21V38.2499C105.21 37.3699 104.96 36.8274 104.181 36.8274C103.526 36.8274 102.965 37.2212 102.965 38.5499V43.1724H99.9375V34.5249H102.652L102.932 36.1924ZM114.704 40.0499L117.212 40.8374C116.712 42.6899 115.19 43.3999 113.467 43.3999C110.905 43.3999 109.032 41.7724 109.032 38.9449C109.032 36.0249 110.679 34.3199 113.407 34.3199C115.97 34.3199 117.282 35.9674 117.282 38.3637L117.245 39.4512H111.95C112.007 40.5187 112.53 41.0974 113.43 41.0974C114.055 41.0974 114.497 40.8174 114.702 40.0512L114.704 40.0499ZM114.404 37.9149C114.404 37.1649 114.154 36.5099 113.299 36.5099C112.569 36.5099 112.101 37.1099 112.026 37.9149H114.404Z" fill="#838383"/>
<path d="M120.038 40.1999C120.098 40.5143 120.269 40.7967 120.519 40.9958C120.77 41.1949 121.084 41.2974 121.404 41.2849C121.946 41.2849 122.321 41.0974 122.321 40.7224C122.321 40.3474 122.004 40.1799 121.386 40.0474L120.224 39.8036C118.651 39.4661 117.829 38.6611 117.829 37.2386C117.829 35.1424 119.625 34.3186 121.554 34.3186C123.633 34.3186 124.886 35.1811 125.185 36.7899L122.433 37.2024C122.339 36.7024 122.04 36.4349 121.458 36.4349C121.028 36.4349 120.728 36.6411 120.728 36.9774C120.728 37.3136 120.97 37.4824 121.42 37.5586L122.583 37.7649C124.491 38.0836 125.295 39.1124 125.295 40.5724C125.295 42.6124 123.516 43.3974 121.383 43.3974C119.418 43.3974 118.108 42.6874 117.633 41.1511L120.038 40.1999Z" fill="#838383"/>
<path d="M128.05 40.2C128.11 40.5144 128.281 40.7968 128.532 40.9959C128.783 41.195 129.096 41.2976 129.416 41.285C129.959 41.285 130.335 41.0975 130.335 40.7225C130.335 40.3475 130.016 40.18 129.397 40.0475L128.237 39.8037C126.665 39.4662 125.84 38.6612 125.84 37.2387C125.84 35.1425 127.637 34.3187 129.565 34.3187C131.642 34.3187 132.896 35.1937 133.196 36.79L130.442 37.2025C130.35 36.7025 130.05 36.435 129.47 36.435C129.04 36.435 128.74 36.6412 128.74 36.9775C128.74 37.3137 128.982 37.4825 129.432 37.5587L130.592 37.765C132.502 38.0837 133.307 39.1125 133.307 40.5725C133.307 42.6125 131.529 43.3975 129.395 43.3975C127.43 43.3975 126.12 42.6875 125.645 41.1512L128.05 40.2ZM74.6325 56.5225C74.2787 56.2225 74.1475 55.81 74.0162 55.2875L73.6787 53.9212C73.4912 53.1337 73.1737 52.9837 72.4612 52.9837H71.5075V56.5212H68.4575V45.5H73.1737C75.6437 45.5 77.3487 46.4537 77.3487 48.9625C77.3487 50.7037 76.2237 51.565 75.0087 51.77C76.0187 51.9762 76.525 52.4237 76.7875 53.38L77.3125 55.27C77.4437 55.77 77.5925 56.145 77.9875 56.525L74.6325 56.5225ZM71.5075 50.515H72.6875C73.7537 50.515 74.2225 50.0825 74.2225 49.2975C74.2225 48.5125 73.7537 48.08 72.6875 48.08H71.5075V50.515ZM83.4675 53.3975L85.975 54.185C85.475 56.0387 83.9525 56.7475 82.2312 56.7475C79.6662 56.7475 77.7937 55.1187 77.7937 52.2937C77.7937 49.3737 79.4412 47.6687 82.1687 47.6687C84.7312 47.6687 86.0437 49.3162 86.0437 51.7112L86.0062 52.7987H80.7312C80.7875 53.8637 81.3112 54.4437 82.21 54.4437C82.845 54.4437 83.2762 54.165 83.4825 53.3975H83.4675ZM83.1675 51.25C83.1675 50.5025 82.9175 49.8475 82.0637 49.8475C81.3337 49.8475 80.8662 50.4475 80.7912 51.25H83.1675ZM85.8075 47.875H89L89.9925 51.3562L90.555 53.4725H90.5925C90.5925 53.4725 90.78 52.5975 91.1737 51.3562L92.2962 47.875H95.2337L92.09 56.5212H88.8337L85.8075 47.875ZM97.3725 44.1337C98.2725 44.1337 99.04 44.7512 99.04 45.725C99.04 46.6987 98.2712 47.315 97.3725 47.315C96.4737 47.315 95.7075 46.6987 95.7075 45.725C95.7075 44.7512 96.475 44.1337 97.3725 44.1337ZM98.875 47.875V56.5212H95.875V47.875H98.875ZM105.484 53.3975L107.991 54.185C107.491 56.0387 105.97 56.7475 104.249 56.7475C101.686 56.7475 99.8137 55.1187 99.8137 52.2937C99.8137 49.3737 101.461 47.6687 104.189 47.6687C106.751 47.6687 108.064 49.3162 108.064 51.7112L108.026 52.7987H102.75C102.806 53.8637 103.329 54.4437 104.227 54.4437C104.852 54.4437 105.296 54.165 105.502 53.3975H105.484ZM105.197 51.25C105.197 50.5025 104.947 49.8475 104.094 49.8475C103.362 49.8475 102.894 50.4475 102.821 51.25H105.197ZM116.147 47.875L116.765 50.875L117.265 53.59H117.302L117.845 50.9125L118.537 47.8625H121.475L119.137 56.5087H115.762L115.237 53.9812L114.769 51.2112H114.731L114.264 53.9812L113.739 56.5087H110.37L108.004 47.875H111.054L111.746 50.925L112.289 53.6025H112.326L112.826 50.8875L113.445 47.8875L116.147 47.875ZM86.8 26.975C86.8 27.3875 86.925 27.6 87.2312 27.6C87.4187 27.6 87.6062 27.525 87.7737 27.4312V29.5662C87.3612 29.8662 86.97 29.9787 86.2762 29.9787C85.1162 29.9787 84.48 29.4537 84.1412 28.6112C83.6412 29.5112 82.8862 30.0162 81.6412 30.0162C80.0512 30.0162 79.0575 29.0787 79.0575 27.6012C79.0575 25.7475 80.3862 24.8137 82.9875 24.8137H83.8675V24.2337C83.8675 23.6712 83.68 23.2787 83.1375 23.2787C82.6125 23.2787 82.3712 23.5975 82.3337 24.3087L79.45 23.8587C79.6187 22.08 81.005 20.9587 83.2312 20.9587C85.7025 20.9587 86.7875 22.0462 86.7875 23.9362L86.8 26.975ZM83.88 26.3575H83.5C82.4125 26.3575 82.0375 26.695 82.0375 27.2575C82.0375 27.67 82.3175 27.9875 82.8425 27.9875C83.3475 27.9875 83.89 27.7375 83.89 26.9212L83.88 26.3575ZM94.1575 24.58C93.8012 24.4487 93.595 24.355 93.1075 24.355C92.395 24.355 91.5362 24.635 91.5362 26.1712V29.8212H88.52V21.1712H91.1037L91.4037 23.3062C91.6462 21.8637 92.8637 21.1712 94.3412 21.1712L94.1575 24.58Z" fill="#838383"/>
<path d="M94.625 21.1724H97.8087L98.8 24.6549L99.3625 26.7699H99.4C99.4 26.7699 99.5875 25.8949 99.98 24.6549L101.103 21.1724H104.04L100.895 29.8224H97.65L94.625 21.1724ZM111.315 26.9749C111.315 27.3874 111.44 27.5999 111.746 27.5999C111.938 27.5899 112.125 27.5319 112.289 27.4312V29.5662C111.876 29.8662 111.484 29.9787 110.791 29.9787C109.631 29.9787 108.995 29.4537 108.658 28.6112C108.158 29.5112 107.404 30.0162 106.158 30.0162C104.566 30.0162 103.574 29.0787 103.574 27.6012C103.574 25.7474 104.901 24.8137 107.504 24.8137H108.384V24.2337C108.384 23.6712 108.196 23.2787 107.654 23.2787C107.129 23.2787 106.886 23.5974 106.849 24.3087L103.966 23.8587C104.134 22.0799 105.52 20.9587 107.747 20.9587C110.219 20.9587 111.304 22.0462 111.304 23.9362L111.315 26.9749ZM108.395 26.3574H108C106.915 26.3574 106.541 26.6949 106.541 27.2574C106.541 27.6699 106.821 27.9874 107.346 27.9874C107.852 27.9874 108.396 27.7374 108.396 26.9212L108.395 26.3574ZM118.67 24.5799C118.314 24.4487 118.11 24.3549 117.62 24.3549C116.91 24.3549 116.049 24.6349 116.049 26.1712V29.8212H113.049V21.1712H115.632L115.933 23.3062C116.176 21.8637 117.395 21.1712 118.873 21.1712L118.67 24.5799ZM125.238 18.2524H128.271V29.8212H125.538L125.258 28.3237C124.939 29.4837 123.908 30.0462 122.599 30.0462C120.578 30.0462 119.136 28.4737 119.136 25.6649C119.136 22.7649 120.511 20.9649 122.955 20.9649C124.061 20.9649 124.939 21.4699 125.238 22.2937V18.2524ZM125.258 24.8774C125.258 23.7737 124.714 23.1749 123.835 23.1749C122.956 23.1749 122.206 23.8299 122.206 25.5524C122.206 26.9749 122.806 27.7237 123.796 27.7237C124.565 27.7237 125.259 27.1437 125.259 25.9649L125.258 24.8774ZM68.4575 29.8224V18.7974H71.5275V22.8974H75.3087V18.7974H78.3787V29.8224H75.3087V25.5537H71.525V29.8224H68.4575Z" fill="#838383"/>
</svg>
