<svg width="150" height="18" viewBox="0 0 150 18" fill="none" xmlns="http://www.w3.org/2000/svg">
<mask id="mask0_209_38" style="mask-type:alpha" maskUnits="userSpaceOnUse" x="0" y="0" width="150" height="18">
<g clip-path="url(#clip0_209_38)">
<path d="M19.3931 17.1852H24.8716L27.8086 0.375H22.3302L21.2471 6.395H16.4977L17.5809 0.375H12.1025L9.16541 17.1852H14.6438L15.7478 10.8944H20.4972L19.3931 17.1852Z" fill="white"/>
<path d="M30.9124 0.354077L29.2459 9.70695C29.1001 10.436 29.0376 11.1442 29.0376 11.8108C29.0376 16.7685 33.3704 17.5184 35.9742 17.5184C41.4317 17.5184 43.7856 15.7061 44.6396 10.811L46.4727 0.333252H40.9943L39.432 9.12369C38.9321 11.8733 38.578 13.3106 36.5366 13.3106C35.2034 13.3106 34.5577 12.6024 34.5577 11.1442C34.5577 10.5818 34.641 9.89442 34.8077 9.04037L36.3908 0.333252H30.9124V0.354077Z" fill="white"/>
<path d="M75.427 17.185H80.9054L81.6762 12.8523H84.2591C89.0293 12.8523 91.6748 10.2693 91.6748 5.56161C91.6748 2.24957 89.3834 0.354004 85.3631 0.354004H78.3641L75.427 17.185ZM83.9675 8.70701H82.3844L83.1135 4.74923H84.5924C85.8006 4.74923 86.4463 5.35331 86.4463 6.45733C86.4463 7.85296 85.509 8.70701 83.9675 8.70701Z" fill="white"/>
<path d="M102.319 0C96.3616 0 92.7996 3.85363 92.7996 10.3319C92.7996 14.8313 95.6325 17.5392 100.382 17.5392C106.339 17.5392 109.901 13.6856 109.901 7.20733C109.922 2.68713 107.089 0 102.319 0ZM100.715 13.1857C99.2987 13.1857 98.4655 12.165 98.4655 10.4569C98.4655 9.81113 98.528 9.24871 98.653 8.60297C99.0696 6.39494 99.7778 4.37439 102.007 4.37439C103.423 4.37439 104.256 5.39508 104.256 7.10318C104.256 7.74892 104.194 8.31134 104.069 8.95709C103.652 11.1443 102.944 13.1857 100.715 13.1857Z" fill="white"/>
<path d="M128.961 17.1852H134.44L136.606 4.87438H140.73L141.522 0.375H127.503L126.712 4.87438H131.086L128.961 17.1852Z" fill="white"/>
<path d="M119.879 6.58242C118.15 6.04083 117.442 5.81169 117.442 4.9993C117.442 4.45771 117.796 3.81197 118.838 3.81197C119.608 3.81197 120.254 4.24941 120.504 4.89515L125.337 3.58283C124.774 1.20816 122.733 0 119.213 0C112.589 0 112.068 4.43688 112.068 5.79086C112.068 8.54048 113.526 10.2277 116.692 11.1026C117.525 11.3318 118.484 11.5817 118.484 12.4983C118.484 13.2273 117.942 13.6856 117.005 13.6856C116.151 13.6856 115.234 13.1857 114.922 12.3108L110.151 13.6023C110.672 16.1019 113.026 17.5184 116.713 17.5184C119.525 17.5184 124.233 16.7685 124.233 11.6859C124.254 9.14456 122.816 7.47813 119.879 6.58242Z" fill="black"/>
<path d="M6.10332 17.1852L9.06124 0.375H0V17.1852H6.10332Z" fill="#0DBE98"/>
<path d="M143.876 0.375L140.939 17.1852H150V0.375H143.876Z" fill="#0DBE98"/>
<path d="M53.0135 12.2274H57.617L58.3669 7.99877H53.7634L54.2841 4.87421H60.7207L61.5123 0.354004H49.5973L46.6602 17.185H52.1386L53.0135 12.2274Z" fill="black"/>
<path d="M67.3656 12.2274H71.99L72.7399 7.99877H68.1364L68.6571 4.87421H75.0937L75.8853 0.354004H63.9703L61.0332 17.185H66.5116L67.3656 12.2274Z" fill="black"/>
</g>
</mask>
<g mask="url(#mask0_209_38)">
<rect x="-140.25" y="-89.25" width="833.25" height="336.75" fill="#838383"/>
</g>
<defs>
<clipPath id="clip0_209_38">
<rect width="150" height="17.5392" fill="white"/>
</clipPath>
</defs>
</svg>
