<svg width="40" height="40" viewBox="0 0 40 40" fill="none" xmlns="http://www.w3.org/2000/svg">
<circle cx="20" cy="20" r="20" fill="white"/>
<path d="M23 20C23 20.5933 22.8241 21.1734 22.4944 21.6667C22.1648 22.1601 21.6962 22.5446 21.1481 22.7716C20.5999 22.9987 19.9967 23.0581 19.4147 22.9424C18.8328 22.8266 18.2982 22.5409 17.8787 22.1213C17.4591 21.7018 17.1734 21.1672 17.0576 20.5853C16.9419 20.0033 17.0013 19.4001 17.2284 18.8519C17.4554 18.3038 17.8399 17.8352 18.3333 17.5056C18.8266 17.1759 19.4067 17 20 17C20.7949 17.0025 21.5565 17.3193 22.1186 17.8814C22.6807 18.4435 22.9975 19.2051 23 20ZM29.375 15.875V24.125C29.375 25.5174 28.8219 26.8527 27.8373 27.8373C26.8527 28.8219 25.5174 29.375 24.125 29.375H15.875C14.4826 29.375 13.1473 28.8219 12.1627 27.8373C11.1781 26.8527 10.625 25.5174 10.625 24.125V15.875C10.625 14.4826 11.1781 13.1473 12.1627 12.1627C13.1473 11.1781 14.4826 10.625 15.875 10.625H24.125C25.5174 10.625 26.8527 11.1781 27.8373 12.1627C28.8219 13.1473 29.375 14.4826 29.375 15.875ZM24.5 20C24.5 19.11 24.2361 18.24 23.7416 17.4999C23.2471 16.7599 22.5443 16.1831 21.7221 15.8425C20.8998 15.5019 19.995 15.4128 19.1221 15.5865C18.2492 15.7601 17.4474 16.1887 16.818 16.818C16.1887 17.4474 15.7601 18.2492 15.5865 19.1221C15.4128 19.995 15.5019 20.8998 15.8425 21.7221C16.1831 22.5443 16.7599 23.2471 17.4999 23.7416C18.24 24.2361 19.11 24.5 20 24.5C21.1935 24.5 22.3381 24.0259 23.182 23.182C24.0259 22.3381 24.5 21.1935 24.5 20ZM26 15.125C26 14.9025 25.934 14.685 25.8104 14.5C25.6868 14.315 25.5111 14.1708 25.3055 14.0856C25.1 14.0005 24.8738 13.9782 24.6555 14.0216C24.4373 14.065 24.2368 14.1722 24.0795 14.3295C23.9222 14.4868 23.815 14.6873 23.7716 14.9055C23.7282 15.1238 23.7505 15.35 23.8356 15.5555C23.9208 15.7611 24.065 15.9368 24.25 16.0604C24.435 16.184 24.6525 16.25 24.875 16.25C25.1734 16.25 25.4595 16.1315 25.6705 15.9205C25.8815 15.7095 26 15.4234 26 15.125Z" fill="url(#paint0_linear_1_705)"/>
<defs>
<linearGradient id="paint0_linear_1_705" x1="20" y1="10.625" x2="20" y2="29.375" gradientUnits="userSpaceOnUse">
<stop stop-color="#6364FF"/>
<stop offset="1" stop-color="#563ACC"/>
</linearGradient>
</defs>
</svg>
