<svg width="1018" height="406" viewBox="0 0 1018 406" fill="none" xmlns="http://www.w3.org/2000/svg">
<g opacity="0.3">
<path opacity="0.91" d="M398.968 -157.34C408.987 -158.751 419.053 -159.824 429.167 -160.53C439.28 -161.151 449.428 -161.377 459.636 -161.207C469.843 -160.897 480.098 -160.149 490.376 -158.963C500.678 -157.608 510.991 -155.815 521.34 -153.571C531.665 -151.157 542.002 -148.306 552.316 -145.017C562.606 -141.573 572.848 -137.72 583.009 -133.471C593.087 -129.096 603.059 -124.353 612.854 -119.272C622.52 -114.106 631.951 -108.629 641.122 -102.87C650.081 -97.0831 658.7 -91.0419 666.941 -84.789C674.9 -78.5502 682.411 -72.1279 689.44 -65.5362C696.162 -59.0151 702.379 -52.3528 708.077 -45.5777C713.481 -38.9013 718.414 -32.1261 722.876 -25.2804C729.175 -15.1458 740.477 5.29259 746.046 15.5683C750.143 22.3011 754.499 29.1186 759.232 36.0067C764.648 42.7678 770.629 49.6135 777.281 56.5581C784.769 63.4038 792.998 70.3484 801.934 77.4199C811.647 84.4068 821.937 91.5208 832.698 98.79C843.824 105.989 855.044 113.357 866.158 120.88C876.989 128.375 887.208 136.039 896.568 143.901C904.963 151.749 912.085 159.781 917.76 168.01C922.069 176.239 924.789 184.679 925.954 193.318C925.931 201.97 924.636 210.82 922.328 219.868C919.609 228.944 916.548 238.217 913.522 247.674C911.214 257.16 909.695 266.842 909.295 276.695C910.531 286.575 913.31 296.639 917.725 306.844C923.894 317.092 931.488 327.494 940.224 338.038C949.866 348.596 959.826 359.309 969.586 370.136C978.793 380.976 986.764 391.943 993.039 403.023C997.466 414.118 999.597 425.297 999.302 436.589C996.912 447.881 992.356 459.257 985.987 470.719C978.569 482.18 970.387 493.712 962.051 505.329C954.469 516.931 947.994 528.477 943.085 539.938C940.224 551.414 939.352 562.805 940.436 574.139C943.544 585.459 948.1 596.723 953.681 607.916C960.05 619.123 966.396 630.26 972.165 641.354C977.145 652.463 980.618 663.515 982.255 674.524C982.101 685.59 979.806 696.6 975.402 707.596C969.257 718.648 961.416 729.686 952.209 740.709C942.19 751.818 931.606 762.926 920.915 774.063C910.602 785.27 900.913 796.52 892.141 807.812C884.63 819.188 878.39 830.621 873.457 842.083C869.984 853.671 867.676 865.302 866.37 876.975C866.075 888.747 866.311 900.561 866.793 912.389C867.523 924.302 867.971 936.23 867.876 948.143C867.311 960.098 865.816 972.011 863.285 983.825C859.847 995.639 855.244 1007.33 849.498 1018.84C842.799 1030.25 835.052 1041.44 826.387 1052.35C817.027 1063.08 806.985 1073.44 796.448 1083.42C785.581 1093.1 774.467 1102.31 763.27 1110.99C752.109 1119.29 741.066 1127.01 730.234 1134.08C719.685 1140.7 709.466 1146.66 699.588 1151.89C690.111 1156.66 680.998 1160.7 672.227 1164C663.868 1166.87 655.792 1169.03 647.95 1170.51C640.439 1171.62 633.093 1172.12 625.84 1172.06C618.812 1171.79 611.795 1171.07 604.742 1169.97C597.82 1168.89 590.791 1167.56 583.621 1166.08C576.498 1164.84 569.199 1163.61 561.687 1162.48C554.176 1161.81 546.441 1161.42 538.482 1161.32C530.488 1161.9 522.258 1162.9 513.805 1164.37C505.316 1166.61 496.592 1169.38 487.656 1172.65C478.697 1176.71 469.526 1181.24 460.154 1186.19C450.771 1191.79 441.199 1197.71 431.451 1203.85C421.69 1210.37 411.777 1216.93 401.699 1223.4C391.621 1229.92 381.508 1236.04 371.383 1241.66C361.27 1247 351.145 1251.6 341.019 1255.4C330.894 1258.63 320.781 1260.92 310.691 1262.21C300.602 1262.78 290.547 1262.27 280.516 1260.72C270.521 1258.39 260.56 1255.02 250.659 1250.65C240.793 1245.59 230.998 1239.62 221.285 1232.8C211.619 1225.46 202.059 1217.43 192.628 1208.79C183.268 1199.84 174.038 1190.44 164.973 1180.71C156.001 1170.88 147.207 1160.87 138.6 1150.75C130.1 1140.76 121.812 1130.79 113.735 1120.91C105.765 1111.33 98.0059 1101.92 90.471 1092.74C83.0302 1083.96 75.7896 1075.45 68.761 1067.2C61.7676 1059.41 54.9508 1051.92 48.2989 1044.67C41.6352 1037.87 35.101 1031.32 28.6727 1024.98C22.1738 1019.04 15.7574 1013.25 9.39976 1007.58C2.9362 1002.23 -3.4685 996.938 -9.83787 991.673C-16.3132 986.62 -22.7415 981.524 -29.0991 976.33C-35.5391 971.277 -41.8731 966.083 -48.0895 960.691C-54.3293 955.369 -60.3926 949.822 -66.2793 944.007C-72.1189 938.192 -77.723 932.094 -83.1034 925.7C-88.4132 919.249 -93.4757 912.474 -98.2792 905.374C-103.036 898.204 -107.568 890.695 -111.889 882.847C-116.21 874.928 -120.342 866.671 -124.322 858.103C-128.337 849.437 -132.21 840.46 -135.942 831.2C-139.721 821.856 -143.348 812.23 -146.809 802.349C-150.27 792.384 -153.52 782.179 -156.522 771.748C-159.465 761.261 -162.114 750.562 -164.457 739.665C-166.706 728.74 -168.625 717.617 -170.238 706.339C-171.792 695.033 -173.063 683.572 -174.088 671.97C-175.147 660.353 -176.03 648.609 -176.76 636.753C-177.596 624.882 -178.326 612.913 -178.95 600.83C-179.704 588.748 -180.328 576.581 -180.775 564.315C-181.27 552.063 -181.529 539.854 -181.493 527.715C-181.387 515.576 -180.94 503.508 -180.127 491.496C-179.186 479.484 -177.879 467.543 -176.219 455.672C-174.476 443.802 -172.428 431.987 -170.12 420.244C-167.801 408.486 -165.293 396.799 -162.621 385.168C-160.007 373.537 -157.275 361.963 -154.403 350.445C-151.612 338.913 -148.681 327.452 -145.585 316.047C-142.535 304.628 -139.274 293.266 -135.801 281.988C-132.304 270.682 -128.56 259.432 -124.557 248.267C-120.507 237.088 -116.198 225.994 -111.666 214.984C-107.086 203.975 -102.306 193.05 -97.3374 182.237C-92.4043 171.425 -87.3182 160.74 -82.1027 150.182C-76.9577 139.653 -71.7186 129.264 -66.3735 119.045C-61.099 108.868 -55.7186 98.8605 -50.2204 89.0648C-44.7694 79.3396 -39.1653 69.8261 -33.3963 60.5385C-27.6039 51.3638 -21.6112 42.429 -15.3949 33.7624C-9.08438 25.2229 -2.53841 16.9656 4.26659 9.01893C11.2011 1.19926 18.3828 -6.29578 25.8236 -13.4662C33.3821 -20.4954 41.176 -27.1859 49.1937 -33.5235C57.2937 -39.7341 65.5821 -45.6059 74.0354 -51.1248C82.5358 -56.5309 91.1539 -61.5981 99.8779 -66.3407C108.578 -70.9846 117.373 -75.3178 126.215 -79.3547C135.01 -83.3351 143.84 -87.0332 152.717 -90.4773C161.5 -93.9213 170.318 -97.1254 179.16 -100.118C187.907 -103.153 196.702 -106.004 205.52 -108.686C214.256 -111.466 223.051 -114.092 231.881 -116.59C240.652 -119.229 249.494 -121.756 258.406 -124.17C267.259 -126.753 276.207 -129.223 285.249 -131.608C294.256 -134.149 303.368 -136.591 312.599 -138.92C321.805 -141.39 331.13 -143.733 340.596 -145.921C350.038 -148.222 359.621 -150.339 369.346 -152.244C379.059 -154.206 388.925 -155.914 398.956 -157.34" stroke="url(#paint0_linear_1_378)" stroke-opacity="0.4" stroke-width="2.5" stroke-linecap="round" stroke-dasharray="19 2"/>
<path opacity="0.36" d="M438.801 -130.779C448.651 -131.54 458.496 -131.962 468.335 -132.03C478.183 -132.028 488.012 -131.645 497.81 -130.868C507.613 -129.964 517.384 -128.638 527.122 -126.89C536.829 -124.975 546.491 -122.638 556.074 -119.883C565.624 -116.946 575.07 -113.579 584.403 -109.823C593.657 -105.89 602.762 -101.57 611.672 -96.8834C620.481 -92.062 629.06 -86.8892 637.365 -81.4106C645.523 -75.8293 653.373 -69.9727 660.88 -63.8435C668.184 -57.6862 675.112 -51.3009 681.641 -44.7176C687.946 -38.15 693.842 -31.4134 699.306 -24.5235C704.573 -17.7041 709.446 -10.7711 713.936 -3.75197C718.336 3.20417 722.436 10.2382 726.286 17.3393C730.2 24.346 734.015 31.4165 737.815 38.5707C741.893 45.603 746.131 52.7175 750.613 59.9198C755.618 67.0177 761.044 74.216 766.959 81.5195C773.562 88.7444 780.762 96.082 788.556 103.546C797.038 110.946 806.08 118.471 815.61 126.143C825.604 133.734 835.862 141.471 846.22 149.329C856.593 157.117 866.689 165.027 876.32 173.045C885.378 180.966 893.559 188.967 900.673 197.077C906.72 205.054 911.443 213.122 914.746 221.259C916.852 229.297 917.585 237.423 917.028 245.627C915.637 253.772 913.344 262.051 910.431 270.456C907.493 278.874 904.548 287.461 901.957 296.27C900.293 305.16 899.586 314.286 900.057 323.666C902.113 333.185 905.584 342.96 910.503 353.021C916.903 363.187 924.423 373.587 932.771 384.201C941.717 394.872 950.703 405.687 959.26 416.613C967.11 427.503 973.661 438.429 978.526 449.362C981.627 460.172 982.584 470.943 981.314 481.67C978.163 492.278 973.091 502.85 966.393 513.406C958.789 523.912 950.511 534.455 942.087 545.087C934.368 555.768 927.626 566.477 922.262 577.254C918.754 588.148 917.024 599.125 917.093 610.201C919.031 621.409 922.37 632.674 926.744 643.983C931.988 655.354 937.374 666.72 942.421 678.021C946.949 689.313 950.268 700.491 952.06 711.547C952.322 722.538 950.681 733.38 947.09 744.07C941.838 754.7 934.858 765.222 926.433 775.642C916.982 786.06 906.719 796.434 896.007 806.806C885.305 817.248 874.859 827.738 864.965 838.294C855.983 848.986 847.975 859.788 841.071 870.697C835.467 881.783 831.002 892.963 827.583 904.231C825.277 915.634 823.723 927.104 822.711 938.585C822.261 950.147 821.883 961.673 821.379 973.132C820.77 984.571 819.626 995.872 817.77 1007C815.331 1017.99 811.948 1028.76 807.6 1039.24C802.437 1049.51 796.277 1059.43 789.18 1068.97C781.342 1078.25 772.688 1087.07 763.363 1095.4C753.522 1103.42 743.213 1110.9 732.576 1117.83C721.735 1124.37 710.769 1130.33 699.774 1135.68C688.859 1140.6 678.08 1144.9 667.487 1148.55C657.149 1151.81 647.079 1154.42 637.299 1156.4C627.843 1158.03 618.675 1159.06 609.796 1159.51C601.236 1159.71 592.913 1159.41 584.801 1158.64C576.93 1157.77 569.206 1156.55 561.58 1155.03C554.126 1153.59 546.692 1151.99 539.251 1150.29C531.914 1148.88 524.492 1147.51 516.982 1146.26C509.495 1145.49 501.868 1144.95 494.072 1144.71C486.269 1145.09 478.282 1145.87 470.086 1147.06C461.866 1148.97 453.425 1151.31 444.784 1154.11C436.098 1157.58 427.192 1161.46 418.103 1165.71C408.962 1170.53 399.632 1175.59 390.128 1180.83C380.596 1186.41 370.899 1191.99 361.042 1197.46C351.194 1202.98 341.318 1208.13 331.453 1212.79C321.601 1217.2 311.77 1220.94 301.964 1223.94C292.204 1226.46 282.489 1228.09 272.853 1228.83C263.261 1228.9 253.752 1228 244.338 1226.14C234.994 1223.57 225.756 1220.03 216.647 1215.56C207.617 1210.44 198.712 1204.45 189.963 1197.68C181.311 1190.38 172.811 1182.4 164.48 1173.84C156.239 1164.91 148.183 1155.55 140.324 1145.8C132.554 1135.92 124.972 1125.8 117.599 1115.53C110.305 1105.31 103.201 1095.07 96.3089 1084.84C89.4643 1074.84 82.8155 1064.94 76.3353 1055.21C69.8744 1045.8 63.5801 1036.6 57.4158 1027.64C51.2329 1019.06 45.1556 1010.73 39.1849 1002.63C33.1235 994.933 27.1451 987.47 21.204 980.207C15.1502 973.318 9.13512 966.601 3.14905 960.013C-2.97115 953.756 -9.0713 947.57 -15.1279 941.459C-21.3021 935.579 -27.4174 929.704 -33.4492 923.806C-39.5597 918.072 -45.5486 912.262 -51.4027 906.349C-57.2491 900.521 -62.9117 894.55 -68.3536 888.411C-73.7507 882.317 -78.9016 876.015 -83.805 869.476C-88.6269 862.957 -93.1645 856.174 -97.4657 849.14C-101.706 842.068 -105.709 834.73 -109.475 827.112C-113.226 819.452 -116.786 811.495 -120.156 803.268C-123.558 794.968 -126.804 786.383 -129.872 777.541C-132.985 768.64 -135.931 759.467 -138.7 750.053C-141.477 740.567 -144.043 730.856 -146.386 720.935C-148.691 710.959 -150.727 700.776 -152.494 690.415C-154.2 680.015 -155.627 669.437 -156.762 658.696C-157.85 647.944 -158.693 637.025 -159.294 625.968C-159.905 614.882 -160.321 603.668 -160.554 592.326C-160.87 580.978 -161.014 569.501 -161.023 557.92C-161.101 546.32 -161.01 534.619 -160.737 522.818C-160.488 511.015 -159.993 499.258 -159.241 487.561C-158.454 475.867 -157.364 464.236 -155.959 452.67C-154.483 441.11 -152.691 429.614 -150.597 418.195C-148.456 406.781 -146.046 395.413 -143.405 384.132C-140.751 372.839 -137.911 361.614 -134.898 350.459C-131.92 339.287 -128.791 328.168 -125.513 317.131C-122.281 306.076 -118.887 295.089 -115.32 284.184C-111.765 273.265 -108 262.417 -104.028 251.655C-100.032 240.894 -95.7927 230.221 -91.3225 219.65C-86.7935 209.082 -82.0454 198.615 -77.0663 188.249C-72.0769 177.912 -66.8926 167.687 -61.5492 157.587C-56.2314 147.528 -50.7782 137.591 -45.2143 127.804C-39.7354 118.067 -34.1584 108.492 -28.5075 99.0925C-22.954 89.7567 -17.3154 80.6107 -11.605 71.6819C-5.95755 62.8335 -0.202923 54.2047 5.68029 45.8395C11.5351 37.5713 17.5531 29.5833 23.746 21.8762C29.9922 14.2861 36.4471 7.00755 43.1108 0.0407177C49.874 -6.79184 56.8805 -13.2961 64.118 -19.4589C71.4667 -25.4866 79.0581 -31.172 86.8687 -36.5166C94.7787 -41.727 102.896 -46.5976 111.197 -51.1158C119.576 -55.5437 128.104 -59.65 136.77 -63.4496C145.468 -67.1622 154.28 -70.5838 163.162 -73.7178C172.054 -76.8369 180.992 -79.6841 189.99 -82.3009C198.952 -84.9343 207.952 -87.353 216.988 -89.557C225.958 -91.8506 234.966 -93.9717 243.991 -95.9362C252.962 -98.0176 261.961 -99.9555 270.99 -101.778C279.968 -103.746 288.999 -105.611 298.061 -107.375C307.095 -109.296 316.172 -111.144 325.327 -112.873C334.442 -114.775 343.635 -116.572 352.905 -118.25C362.171 -120.084 371.512 -121.772 380.952 -123.311C390.385 -124.95 399.915 -126.412 409.552 -127.655C419.193 -128.968 428.928 -130.019 438.789 -130.78" stroke="url(#paint1_linear_1_378)" stroke-opacity="0.4" stroke-width="2.5" stroke-linecap="round" stroke-dasharray="13 16"/>
<path opacity="0.88" d="M472.759 -101.549C482.339 -101.684 491.853 -101.501 501.3 -101.001C510.727 -100.419 520.082 -99.4769 529.331 -98.1664C538.567 -96.7298 547.682 -94.9122 556.687 -92.6981C565.641 -90.3207 574.462 -87.5642 583.123 -84.3896C591.723 -81.0675 600.129 -77.3464 608.331 -73.242C616.437 -68.995 624.316 -64.382 631.936 -59.422C639.425 -54.3384 646.635 -48.9392 653.53 -43.2434C660.298 -37.4519 666.719 -31.3968 672.797 -25.1061C678.729 -18.7792 684.308 -12.2324 689.537 -5.50764C694.658 1.23022 699.432 8.11791 703.91 15.1341C708.33 22.1279 712.513 29.2445 716.483 36.473C720.53 43.6415 724.461 50.9071 728.358 58.2816C732.498 65.5911 736.723 72.9979 741.117 80.4997C745.918 87.9597 751.017 95.5189 756.484 103.201C762.501 110.833 768.967 118.6 775.905 126.505C783.442 134.353 791.451 142.339 799.897 150.472C808.799 158.541 818.02 166.741 827.433 175.039C837.006 183.275 846.513 191.587 855.799 199.967C864.789 208.233 873.231 216.522 880.935 224.834C887.886 232.968 893.83 241.102 898.628 249.201C903.637 261.04 906.009 284.359 903.816 295.902C901.547 303.525 898.747 311.244 895.686 319.083C892.894 326.959 890.401 335.048 888.476 343.389C887.604 351.878 887.744 360.682 889.061 369.809C891.838 379.157 895.875 388.839 901.111 398.862C907.562 409.058 914.829 419.525 922.619 430.223C930.735 440.967 938.662 451.84 945.978 462.769C952.487 473.584 957.65 484.35 961.175 495.012C963.038 505.453 962.925 515.741 960.801 525.859C957.004 535.753 951.477 545.516 944.535 555.206C936.821 564.787 928.5 574.396 920.051 584.1C912.233 593.894 905.27 603.795 899.536 613.855C895.439 624.148 892.945 634.653 892.054 645.372C892.905 656.337 895.068 667.474 898.247 678.755C902.362 690.168 906.734 701.618 910.967 713.035C914.917 724.439 917.931 735.711 919.706 746.807C920.239 757.756 919.111 768.483 916.228 778.962C911.81 789.266 905.73 799.348 898.152 809.233C889.458 819.016 879.755 828.685 869.352 838.254C858.66 847.854 847.885 857.456 837.32 867.102C827.298 876.882 817.965 886.774 809.45 896.781C802.019 906.985 795.568 917.342 790.127 927.8C785.781 938.455 782.292 949.189 779.511 959.966C777.502 970.839 775.863 981.693 774.422 992.461C773.209 1003.21 771.81 1013.78 770.079 1024.12C768.079 1034.32 765.468 1044.21 762.134 1053.73C758.233 1063 753.497 1071.83 747.93 1080.2C741.709 1088.23 734.686 1095.73 726.921 1102.7C718.603 1109.27 709.676 1115.28 700.252 1120.69C690.475 1125.7 680.38 1130.09 670.06 1133.88C659.612 1137.28 649.094 1140.07 638.587 1142.27C628.152 1144.1 617.843 1145.37 607.696 1146.07C597.732 1146.5 587.994 1146.42 578.482 1145.86C569.199 1145.14 560.146 1144.01 551.319 1142.52C542.706 1141.02 534.275 1139.24 526.005 1137.26C517.911 1135.43 509.922 1133.48 501.994 1131.52C494.178 1129.88 486.377 1128.31 478.564 1126.88C470.798 1125.92 462.961 1125.21 455.036 1124.78C447.113 1124.94 439.061 1125.45 430.876 1126.33C422.651 1127.87 414.259 1129.78 405.71 1132.08C397.112 1135 388.338 1138.26 379.404 1141.81C370.409 1145.87 361.253 1150.11 351.954 1154.49C342.625 1159.17 333.157 1163.81 323.571 1168.34C313.979 1172.92 304.411 1177.13 294.887 1180.9C285.384 1184.46 275.94 1187.41 266.588 1189.68C257.29 1191.52 248.093 1192.58 239.026 1192.8C230.037 1192.46 221.196 1191.23 212.503 1189.1C203.918 1186.35 195.492 1182.71 187.257 1178.22C179.116 1173.12 171.186 1167.23 163.436 1160.57C155.806 1153.43 148.383 1145.63 141.16 1137.24C134.042 1128.52 127.124 1119.32 120.411 1109.73C113.786 1099.96 107.354 1089.93 101.12 1079.69C94.932 1069.46 88.9087 1059.13 83.078 1048.77C77.2335 1038.54 71.5499 1028.37 65.988 1018.29C60.3882 1008.47 54.8826 998.778 49.4759 989.285C43.97 980.076 38.5266 971.075 33.1224 962.279C27.59 953.82 22.0865 945.55 16.587 937.479C10.9374 929.728 5.29597 922.135 -0.337251 914.699C-6.10611 907.557 -11.8613 900.516 -17.5779 893.566C-23.4027 886.87 -29.1587 880.199 -34.8239 873.569C-40.5319 867.131 -46.1057 860.656 -51.5103 854.148C-56.9053 847.784 -62.0789 841.337 -67.0412 834.792C-71.9169 828.331 -76.5552 821.747 -80.917 815.003C-85.1894 808.314 -89.2059 801.434 -92.956 794.379C-96.6361 787.334 -100.069 780.068 -103.256 772.595C-106.442 765.108 -109.414 757.367 -112.198 749.411C-115.001 741.409 -117.638 733.162 -120.099 724.697C-122.602 716.17 -124.939 707.41 -127.1 698.42C-129.281 689.398 -131.262 680.149 -133.033 670.702C-134.801 661.213 -136.325 651.545 -137.606 641.685C-138.848 631.801 -139.838 621.754 -140.562 611.546C-141.25 601.329 -141.697 590.947 -141.904 580.428C-142.099 569.897 -142.092 559.238 -141.869 548.439C-141.681 537.635 -141.291 526.704 -140.712 515.657C-140.179 504.603 -139.434 493.438 -138.479 482.188C-137.546 470.922 -136.369 459.704 -134.96 448.533C-133.527 437.365 -131.838 426.248 -129.883 415.197C-127.883 404.167 -125.638 393.186 -123.128 382.27C-120.607 371.371 -117.843 360.534 -114.885 349.767C-111.927 339.001 -108.784 328.289 -105.471 317.658C-102.182 307.023 -98.7324 296.44 -95.114 285.952C-91.5306 275.458 -87.7526 265.035 -83.8048 254.693C-79.8349 244.368 -75.6732 234.142 -71.2832 224.005C-66.8595 213.886 -62.1972 203.873 -57.3224 193.989C-52.3905 184.127 -47.2331 174.383 -41.8879 164.779C-36.5091 155.194 -30.9557 145.762 -25.2509 136.479C-19.5621 127.236 -13.7701 118.15 -7.87501 109.221C-2.057 100.352 3.82627 91.6631 9.76174 83.1661C15.5968 74.7259 21.4709 66.4902 27.4061 58.4765C33.2265 50.5459 39.1299 42.8545 45.0917 35.413C51.0074 28.0787 57.0255 21.0289 63.1706 14.253C69.315 7.6049 75.6189 1.26364 82.0925 -4.75508C88.6135 -10.6534 95.3393 -16.2242 102.267 -21.4394C109.291 -26.5417 116.529 -31.3007 123.97 -35.7042C131.519 -40.0071 139.272 -43.9684 147.217 -47.6039C155.26 -51.1404 163.473 -54.3543 171.834 -57.2771C180.284 -60.1305 188.849 -62.7118 197.54 -65.0051C206.267 -67.3076 215.087 -69.3551 223.981 -71.1792C232.89 -73.0436 241.862 -74.7002 250.876 -76.1803C259.885 -77.7322 268.938 -79.1356 278.013 -80.3938C287.077 -81.7815 296.165 -83.0521 305.275 -84.1916C314.378 -85.4886 323.495 -86.6982 332.649 -87.803C341.785 -89.081 350.96 -90.2683 360.16 -91.3524C369.353 -92.6081 378.595 -93.7574 387.872 -94.788C397.142 -95.976 406.468 -97.0139 415.851 -97.9157C425.219 -98.905 434.654 -99.7284 444.139 -100.332C453.617 -100.993 463.155 -101.418 472.747 -101.551" stroke="url(#paint2_linear_1_378)" stroke-opacity="0.4" stroke-width="2.5" stroke-linecap="round" stroke-dasharray="21 26"/>
<path opacity="0.93" d="M499.593 -70.8766C508.795 -70.4291 517.872 -69.7071 526.809 -68.6854C535.724 -67.5966 544.492 -66.1664 553.093 -64.4136C561.666 -62.5521 570.065 -60.3263 578.258 -57.7575C586.416 -55.0384 594.352 -51.951 602.056 -48.5116C609.701 -44.913 617.102 -40.9649 624.237 -36.6723C631.292 -32.2393 638.056 -27.4667 644.547 -22.38C650.924 -17.1741 657.018 -11.6704 662.797 -5.90403C668.489 -0.0275078 673.868 6.09774 678.951 12.4464C683.977 18.8546 688.723 25.4609 693.211 32.2702C697.684 39.1048 701.952 46.1107 706.052 53.2815C710.223 60.4532 714.3 67.7767 718.333 75.2343C722.569 82.6923 726.845 90.2877 731.232 98.0216C735.953 105.755 740.883 113.62 746.066 121.624C751.691 129.637 757.655 137.78 763.978 146.086C770.783 154.365 777.96 162.796 785.498 171.376C793.46 179.917 801.69 188.587 810.143 197.362C818.785 206.078 827.476 214.861 836.087 223.699C844.574 232.41 852.724 241.134 860.386 249.841C867.551 258.355 873.985 266.799 879.533 275.168C886.139 287.277 892.636 310.573 892.536 321.778C890.501 332.642 882.928 354.292 878.627 365.359C876.301 372.876 874.462 380.656 873.319 388.742C873.279 397.049 874.248 405.73 876.307 414.801C879.653 424.148 884.054 433.877 889.419 443.957C895.698 454.246 902.535 464.798 909.617 475.56C916.805 486.33 923.597 497.187 929.664 508.019C934.838 518.66 938.679 529.173 940.949 539.48C941.689 549.459 940.624 559.196 937.729 568.685C933.377 577.848 927.508 586.831 920.381 595.673C912.604 604.377 904.299 613.096 895.86 621.916C887.998 630.874 880.88 639.976 874.826 649.32C870.232 658.977 867.039 668.947 865.285 679.21C865.106 689.825 866.152 700.716 868.185 711.817C871.156 723.12 874.507 734.518 877.856 745.93C881.122 757.338 883.714 768.617 885.332 779.687C885.971 790.591 885.195 801.193 882.897 811.498C879.217 821.522 873.992 831.244 867.318 840.656C859.488 849.879 850.534 858.861 840.709 867.672C830.369 876.401 819.671 885.053 808.866 893.697C798.302 902.407 788.097 911.193 778.442 920.069C769.582 929.143 761.518 938.33 754.305 947.67C748.092 957.195 742.725 966.829 738.123 976.541C734.387 986.381 731.224 996.229 728.478 1006.01C726.219 1015.81 724.081 1025.44 721.926 1034.86C719.827 1044.15 717.42 1053.09 714.614 1061.67C711.51 1070 707.829 1077.86 703.507 1085.2C698.71 1092.21 693.22 1098.65 687.066 1104.49C680.408 1109.93 673.123 1114.77 665.298 1118.97C657.045 1122.76 648.357 1125.93 639.319 1128.49C630.003 1130.65 620.477 1132.23 610.787 1133.21C600.998 1133.9 591.171 1134.04 581.361 1133.66C571.582 1133.07 561.894 1132.04 552.328 1130.58C542.872 1129.03 533.571 1127.16 524.423 1124.98C515.423 1122.86 506.569 1120.55 497.871 1118.09C489.286 1115.82 480.816 1113.51 472.449 1111.23C464.165 1109.28 455.937 1107.43 447.755 1105.75C439.588 1104.54 431.423 1103.55 423.229 1102.85C415.023 1102.7 406.758 1102.87 398.418 1103.38C390.017 1104.47 381.527 1105.9 372.942 1107.67C364.285 1109.99 355.513 1112.6 346.623 1115.45C337.689 1118.74 328.637 1122.2 319.5 1125.73C310.31 1129.55 301.046 1133.3 291.726 1136.94C282.402 1140.61 273.137 1143.97 263.981 1146.91C254.851 1149.68 245.841 1151.88 236.967 1153.5C228.159 1154.74 219.52 1155.26 211.059 1155.05C202.698 1154.34 194.526 1152.84 186.571 1150.52C178.722 1147.65 171.099 1143.99 163.714 1139.53C156.445 1134.53 149.393 1128.8 142.602 1122.35C135.904 1115.44 129.442 1107.91 123.206 1099.83C117.059 1091.39 111.137 1082.48 105.418 1073.17C99.7532 1063.66 94.2886 1053.84 88.9908 1043.79C83.7149 1033.67 78.5777 1023.43 73.5866 1013.09C68.5619 1002.81 63.6342 992.519 58.7991 982.252C53.8656 972.165 49.0049 962.15 44.1741 952.257C39.2269 942.582 34.2939 933.054 29.3614 923.683C24.2811 914.583 19.1896 905.637 14.087 896.847C8.83468 888.34 3.57324 879.975 -1.6741 871.756C-7.05757 863.809 -12.4091 855.969 -17.7172 848.239C-23.1089 840.749 -28.4045 833.337 -33.5904 825.991C-38.8073 818.854 -43.8599 811.738 -48.725 804.647C-53.5548 797.722 -58.1541 790.774 -62.5228 783.804C-66.8133 776.951 -70.8302 770.027 -74.5872 763.044C-79.9608 752.619 -89.3057 731.265 -93.3342 720.239C-97.1367 709.06 -103.809 685.74 -106.726 673.589C-108.684 665.37 -110.473 656.973 -112.099 648.367C-113.756 639.726 -115.24 630.892 -116.529 621.87C-117.839 612.83 -118.931 603.607 -119.797 594.231C-120.647 584.83 -121.257 575.266 -121.62 565.568C-121.956 555.847 -122.047 546.006 -121.877 536.02C-121.708 526.034 -121.291 515.915 -120.629 505.676C-119.978 495.435 -119.097 485.085 -117.984 474.627C-116.88 464.153 -115.549 453.598 -113.987 442.935C-112.425 432.272 -110.631 421.659 -108.629 411.09C-106.612 400.51 -104.366 389.993 -101.902 379.537C-99.4286 369.098 -96.7464 358.703 -93.8459 348.369C-90.9592 338.047 -87.8795 327.794 -84.6164 317.595C-81.3786 307.405 -77.9711 297.28 -74.4075 287.232C-70.8576 277.194 -67.1495 267.22 -63.2758 257.337C-59.4042 247.469 -55.3418 237.685 -51.1022 227.996C-46.8319 218.342 -42.3497 208.791 -37.6597 199.37C-32.9022 189.978 -27.9348 180.703 -22.7406 171.59C-17.4904 162.505 -12.0134 153.582 -6.35387 144.798C-0.656207 136.081 5.21036 127.514 11.2185 119.12C17.2069 110.78 23.3136 102.608 29.4998 94.6259C35.6083 86.684 41.771 78.9402 47.9763 71.3919C54.0629 63.9186 60.1806 56.6383 66.3116 49.5902C72.3237 42.6171 78.3608 35.8787 84.4186 29.4029C90.3924 23.0094 96.4217 16.8859 102.518 11.0348C108.573 5.30382 114.727 -0.133404 120.991 -5.2605C127.262 -10.2715 133.688 -14.9624 140.258 -19.3358C146.893 -23.5807 153.706 -27.5005 160.688 -31.0979C167.77 -34.5732 175.033 -37.7374 182.464 -40.5791C190.014 -43.3379 197.724 -45.8045 205.591 -47.9649C213.571 -50.0728 221.691 -51.9212 229.94 -53.5125C238.27 -55.0865 246.711 -56.4362 255.262 -57.5617C263.867 -58.7328 272.554 -59.7288 281.32 -60.5357C290.122 -61.421 298.975 -62.1664 307.879 -62.7719C316.815 -63.5139 325.781 -64.1348 334.779 -64.6485C343.8 -65.315 352.855 -65.8883 361.92 -66.3732C371.008 -67.011 380.107 -67.5604 389.23 -68.033C398.363 -68.6469 407.517 -69.1701 416.681 -69.5911C425.863 -70.1371 435.063 -70.5645 444.264 -70.8341C453.481 -71.2148 462.695 -71.41 471.916 -71.4171C481.146 -71.4797 490.364 -71.3012 499.581 -70.879" stroke="url(#paint3_linear_1_378)" stroke-opacity="0.4" stroke-width="2.5" stroke-linecap="round" stroke-dasharray="13 18"/>
<path opacity="0.61" d="M519.542 -39.8874C528.288 -38.9413 536.835 -37.7328 545.211 -36.2689C553.565 -34.7533 561.724 -32.9309 569.665 -30.808C577.576 -28.5924 585.252 -26.0522 592.697 -23.2013C600.091 -20.2196 607.24 -16.9167 614.14 -13.2789C620.964 -9.50317 627.53 -5.40953 633.817 -1.00452C640.039 3.54161 645.992 8.40238 651.67 13.5471C657.284 18.8329 662.626 24.3889 667.71 30.2047C672.764 36.1132 677.583 42.2881 682.172 48.7019C686.768 55.2047 691.2 61.9216 695.468 68.8526C699.819 75.8512 704.069 83.0529 708.284 90.433C712.644 97.8697 717.038 105.505 721.493 113.317C726.205 121.174 731.064 129.204 736.094 137.413C741.466 145.663 747.068 154.095 752.94 162.692C759.184 171.309 765.708 180.093 772.503 189.042C779.628 197.97 786.989 207.053 794.533 216.246C802.271 225.38 810.076 234.604 817.847 243.878C825.591 253.042 833.129 262.204 840.345 271.347C847.236 280.295 853.599 289.163 859.307 297.916C864.424 306.412 868.715 314.743 872.119 322.907C875.611 334.622 876.796 356.793 874.779 367.361C871.555 377.611 863.512 398.218 859.821 408.929C857.592 420.132 858.305 444.722 861.772 458.26C865.507 467.737 870.064 477.582 875.335 487.791C881.273 498.178 887.501 508.808 893.748 519.588C899.905 530.328 905.532 541.06 910.338 551.717C914.231 562.096 916.826 572.248 917.928 582.115C917.645 591.584 915.72 600.727 912.167 609.533C907.364 617.993 901.219 626.199 893.96 634.229C886.187 642.098 877.939 649.989 869.562 657.974C861.701 666.107 854.475 674.452 848.165 683.06C843.135 692.05 839.327 701.407 836.787 711.142C835.675 721.302 835.685 731.785 836.629 742.565C838.5 753.612 840.801 764.811 843.25 776.052C845.763 787.341 847.827 798.516 849.157 809.48C849.75 820.26 849.183 830.722 847.323 840.813C844.287 850.608 839.856 859.989 834.061 868.992C827.138 877.699 819.073 886.064 810.023 894.146C800.315 902.068 790.04 909.798 779.427 917.401C768.766 925.006 758.193 932.592 747.88 940.209C738.085 947.961 728.842 955.798 720.268 963.741C712.515 971.876 705.514 980.126 699.248 988.456C693.831 996.958 689.054 1005.47 684.848 1013.97C681.27 1022.54 678.055 1030.99 675.06 1039.24C671.021 1051.39 662.471 1073.68 657.376 1083.54C651.463 1092.41 636.532 1106.65 627.482 1111.95C620.892 1114.87 613.846 1117.17 606.381 1118.84C598.61 1120.17 590.512 1120.89 582.149 1121.05C573.57 1120.91 564.824 1120.27 555.959 1119.13C546.996 1117.82 537.984 1116.08 528.961 1113.98C519.925 1111.82 510.925 1109.36 501.994 1106.68C493.074 1104.06 484.243 1101.3 475.504 1098.44C466.796 1095.8 458.174 1093.14 449.626 1090.54C441.098 1088.26 432.617 1086.12 424.185 1084.14C415.749 1082.62 407.317 1081.31 398.905 1080.27C390.44 1079.74 381.951 1079.51 373.439 1079.57C364.857 1080.17 356.238 1081.07 347.549 1082.26C338.799 1083.94 329.985 1085.88 321.121 1088.01C312.178 1090.53 303.196 1093.19 294.177 1095.91C285.114 1098.85 276.034 1101.76 266.941 1104.54C257.843 1107.35 248.886 1109.89 240.063 1112.06C231.283 1114.06 222.672 1115.59 214.262 1116.6C205.906 1117.28 197.774 1117.32 189.876 1116.73C182.069 1115.69 174.499 1113.95 167.192 1111.51C159.998 1108.55 153.055 1104.89 146.389 1100.5C139.819 1095.64 133.532 1090.09 127.479 1083.91C121.54 1077.28 115.839 1070.07 110.391 1062.32C105 1054.22 99.8251 1045.65 94.8611 1036.69C89.9323 1027.5 85.1638 1017.98 80.5586 1008.2C75.9411 998.291 71.4563 988.206 67.0732 977.976C62.6186 967.74 58.2492 957.441 53.9338 947.114C49.5049 936.871 45.119 926.655 40.7363 916.483C36.2264 906.463 31.7087 896.543 27.186 886.708C22.4993 877.088 17.8137 867.584 13.1289 858.196C8.28624 849.053 3.46741 840.033 -1.34178 831.147C-6.25763 822.491 -11.1125 813.954 -15.8978 805.554C-20.7385 797.369 -25.4783 789.287 -30.0689 781.305C-34.6549 773.542 -39.0604 765.846 -43.2625 758.223C-47.4148 750.773 -51.3467 743.373 -55.0158 735.99C-60.2806 725.143 -69.3786 703.557 -73.2412 692.722C-76.8039 681.901 -82.8477 659.814 -85.4066 648.453C-87.864 636.948 -92.14 613.105 -93.9446 600.756C-95.1625 592.438 -96.2249 583.946 -97.0885 575.308C-97.9952 566.643 -98.7118 557.816 -99.2211 548.859C-99.7248 539.874 -99.9983 530.767 -100.03 521.541C-100.033 512.294 -99.7975 502.942 -99.2857 493.48C-98.7482 484.011 -97.9603 474.44 -96.9104 464.77C-95.8262 455.11 -94.4801 445.351 -92.8977 435.5C-91.2809 425.66 -89.4165 415.73 -87.3185 405.723C-85.1976 395.722 -82.8651 385.753 -80.3151 375.846C-77.7766 365.937 -75.0434 356.083 -72.1156 346.285C-69.2107 336.48 -66.1341 326.725 -62.8798 317.05C-59.6598 307.365 -56.2822 297.74 -52.7614 288.185C-49.2776 278.634 -45.6363 269.143 -41.8571 259.75C-38.1008 250.349 -34.1925 241.036 -30.1206 231.814C-26.0658 222.616 -21.813 213.518 -17.3707 204.562C-12.894 195.616 -8.20476 186.818 -3.31174 178.151C1.65593 169.534 6.83337 161.079 12.232 152.79C17.7053 144.551 23.3856 136.488 29.2588 128.61C35.1809 120.791 41.2616 113.147 47.4952 105.707C53.7092 98.3056 60.039 91.1111 66.4504 84.1143C72.8023 77.173 79.2014 70.4194 85.628 63.8914C91.9378 57.4024 98.2638 51.1358 104.583 45.0849C110.768 39.0973 116.944 33.3391 123.119 27.8274C129.172 22.3822 135.246 17.1901 141.315 12.2719C147.321 7.4229 153.352 2.87147 159.449 -1.39998C165.503 -5.58193 171.654 -9.46031 177.902 -13.0351C184.156 -16.521 190.544 -19.7071 197.06 -22.5661C203.634 -25.3504 210.365 -27.8285 217.24 -30.0035C224.188 -32.1143 231.307 -33.9293 238.576 -35.4686C245.937 -36.9817 253.449 -38.2192 261.108 -39.2256C268.85 -40.2227 276.731 -41.0058 284.713 -41.5709C292.801 -42.1783 300.987 -42.6123 309.261 -42.8761C317.61 -43.2195 326.041 -43.4235 334.542 -43.4914C343.101 -43.6729 351.725 -43.749 360.375 -43.7159C369.1 -43.8206 377.844 -43.8331 386.62 -43.7638C395.437 -43.8422 404.281 -43.8114 413.126 -43.7223C422.021 -43.764 430.91 -43.7199 439.79 -43.5628C448.708 -43.5397 457.624 -43.3864 466.502 -43.0992C475.41 -42.9048 484.299 -42.5561 493.139 -42.0185C501.987 -41.5221 510.793 -40.8198 519.53 -39.8907" stroke="url(#paint4_linear_1_378)" stroke-opacity="0.4" stroke-width="2.5" stroke-linecap="round" stroke-dasharray="24 4"/>
<path opacity="0.18" d="M534.219 -9.21388C542.434 -7.83838 550.453 -6.22421 558.268 -4.38896C566.066 -2.48617 573.628 -0.329975 580.976 2.08783C588.286 4.60962 595.367 7.40242 602.202 10.4892C608.98 13.7028 615.527 17.201 621.815 20.989C628.055 24.9215 634.045 29.1615 639.78 33.6778C648.213 40.8107 663.888 56.7235 671.191 65.4521C676.009 71.5081 680.665 77.8151 685.184 84.3676C689.763 91.0299 694.25 97.9541 698.68 105.108C703.231 112.365 707.783 119.859 712.356 127.566C717.113 135.37 721.958 143.412 726.912 151.656C732.117 159.976 737.476 168.515 743.01 177.235C748.818 186.04 754.817 195.018 760.991 204.177C767.43 213.358 774.014 222.696 780.727 232.154C787.605 241.598 794.532 251.134 801.446 260.724C808.355 270.238 815.118 279.744 821.646 289.253C827.965 298.568 833.884 307.811 839.328 316.941C844.329 325.821 848.698 334.531 852.351 343.055C856.55 355.258 859.957 378.145 859.209 388.846C857.09 399.035 850.112 418.815 846.061 428.715C842.604 438.889 838.656 460.846 838.904 472.912C840.307 481.43 842.517 490.359 845.515 499.721C849.41 509.38 853.902 519.403 858.87 529.732C864.27 540.202 869.752 550.835 875.064 561.555C880.143 572.174 884.58 582.708 888.137 593.07C890.808 603.096 892.239 612.818 892.272 622.181C891.069 631.08 888.401 639.594 884.294 647.718C879.114 655.467 872.764 662.925 865.456 670.182C857.72 677.283 849.559 684.363 841.293 691.567C833.47 698.917 826.192 706.495 819.684 714.382C814.293 722.674 809.968 731.368 806.74 740.49C804.786 750.075 803.839 760.055 803.771 770.354C804.601 780.994 805.898 791.833 807.431 802.758C809.152 813.765 810.611 824.693 811.548 835.445C811.977 846.014 811.48 856.26 809.923 866.122C807.398 875.631 803.651 884.713 798.681 893.335C792.673 901.58 785.554 909.407 777.427 916.838C768.568 924.004 758.997 930.867 748.908 937.497C738.574 944.024 728.085 950.436 717.605 956.762C707.394 963.142 697.485 969.543 688.032 975.991C679.179 982.598 670.926 989.262 663.305 996.007C656.425 1002.93 650.202 1009.89 644.567 1016.85C639.617 1023.94 635.153 1030.94 631.077 1037.82C625.777 1048.04 616.231 1066.93 611.445 1075.31C606.412 1082.86 594.528 1094.84 587.498 1099.15C579.646 1102.33 561.586 1105.25 551.488 1105.05C544.421 1104.49 537.089 1103.42 529.542 1101.89C521.815 1100.19 513.938 1098.11 505.93 1095.67C497.813 1093.18 489.623 1090.45 481.38 1087.48C473.067 1084.6 464.734 1081.6 456.401 1078.5C448.003 1075.61 439.627 1072.73 431.264 1069.9C422.848 1067.38 414.446 1064.99 406.052 1062.77C397.596 1060.93 389.149 1059.31 380.689 1057.94C372.161 1057.02 363.617 1056.37 355.042 1055.98C346.399 1056.06 337.722 1056.42 329.02 1057.02C320.239 1058.03 311.437 1059.27 302.613 1060.7C293.722 1062.44 284.811 1064.31 275.917 1066.21C266.978 1068.33 258.057 1070.39 249.186 1072.34C240.308 1074.33 231.614 1076.07 223.095 1077.5C214.615 1078.79 206.348 1079.66 198.309 1080.08C190.338 1080.22 182.615 1079.82 175.159 1078.85C167.802 1077.49 160.71 1075.52 153.897 1072.93C147.186 1069.89 140.759 1066.21 134.611 1061.91C128.568 1057.15 122.791 1051.78 117.283 1045.83C111.866 1039.47 106.686 1032.56 101.759 1025.13C96.8685 1017.37 92.2024 1009.16 87.713 1000.53C83.2479 991.672 78.946 982.455 74.7901 972.953C70.5974 963.304 66.5259 953.419 62.5359 943.357C58.4773 933.226 54.4833 922.985 50.5356 912.658C46.4842 902.353 42.4509 892.025 38.4322 881.687C34.2927 871.438 30.1576 861.22 26.0168 851.074C21.7561 841.061 17.4974 831.137 13.2599 821.325C8.91833 811.681 4.6092 802.152 0.343769 792.742C-3.98753 783.544 -8.23006 774.482 -12.377 765.528C-16.5447 756.803 -20.5717 748.202 -24.4434 739.717C-28.2805 731.436 -31.9285 723.283 -35.3546 715.225C-38.7314 707.362 -41.8717 699.585 -44.7685 691.867C-48.8797 680.581 -55.7905 658.367 -58.6145 647.342C-61.2053 636.417 -65.4798 614.335 -67.2321 603.11C-68.9458 591.78 -71.8485 568.456 -73.0263 556.466C-73.8496 548.379 -74.5226 540.186 -75.0465 531.84C-75.6042 523.481 -75.9857 515.01 -76.1617 506.407C-76.3489 497.8 -76.3149 489.096 -76.0337 480.29C-75.7266 471.479 -75.1678 462.597 -74.3506 453.617C-73.4658 444.661 -72.3146 435.626 -70.8893 426.528C-69.4042 417.436 -67.6563 408.278 -65.6342 399.057C-63.5704 389.867 -61.2403 380.595 -58.6541 371.285C-56.0532 361.964 -53.2462 352.704 -50.2329 343.504C-47.2421 334.296 -44.0823 325.149 -40.7613 316.046C-37.4776 306.944 -34.0361 297.9 -30.4741 288.914C-26.9605 279.925 -23.323 270.981 -19.5718 262.123C-15.8657 253.248 -12.0425 244.445 -8.08299 235.737C-4.17199 227.025 -0.124748 218.407 4.07786 209.904C8.27363 201.428 12.6394 193.059 17.1876 184.844C21.7662 176.655 26.5609 168.633 31.5492 160.769C36.6095 152.961 41.8826 145.334 47.365 137.901C52.942 130.532 58.7136 123.366 64.6686 116.399C70.6923 109.502 76.8846 102.813 83.2197 96.3383C89.5636 89.9259 96.0243 83.7329 102.568 77.747C109.064 71.8028 115.614 66.0846 122.195 60.5842C128.68 55.1226 135.163 49.8666 141.635 44.843C147.975 39.8596 154.286 35.0871 160.573 30.5564C166.723 26.0794 172.841 21.8267 178.946 17.82C187.93 12.0122 205.78 1.78479 214.748 -2.59806C223.713 -6.62805 242.08 -13.2022 251.533 -15.757C261.184 -17.9745 281.233 -21.0768 291.632 -22.0197C298.711 -22.5757 305.909 -22.9259 313.232 -23.0837C320.65 -23.2804 328.181 -23.2888 335.819 -23.14C343.553 -23.0747 351.372 -22.8605 359.279 -22.5108C367.266 -22.2798 375.334 -21.9309 383.46 -21.4723C391.655 -21.1365 399.91 -20.7046 408.194 -20.1887C416.546 -19.7957 424.93 -19.3322 433.323 -18.7619C441.765 -18.3361 450.228 -17.7994 458.667 -17.1681C467.16 -16.6502 475.622 -16.0108 484.064 -15.2456C492.527 -14.5616 500.953 -13.7289 509.311 -12.7288C517.684 -11.7381 525.99 -10.58 534.208 -9.21797" stroke="url(#paint5_linear_1_378)" stroke-opacity="0.4" stroke-width="2.5" stroke-linecap="round" stroke-dasharray="8 12"/>
<path opacity="0.46" d="M546.025 21.3029C553.716 23.0599 561.208 25.0148 568.508 27.1858C575.788 29.4231 582.861 31.8848 589.722 34.5842C596.545 37.3715 603.159 40.4279 609.542 43.7436C618.959 49.0304 636.659 61.2097 644.958 68.0937C653.039 75.483 668.315 91.9167 675.604 100.942C680.459 107.193 685.217 113.717 689.901 120.523C694.66 127.454 699.397 134.66 704.115 142.129C708.961 149.714 713.838 157.569 718.778 165.662C723.869 173.882 729.043 182.319 734.319 190.997C739.771 199.753 745.329 208.736 750.995 217.902C756.83 227.127 762.739 236.521 768.73 246.056C774.817 255.604 780.914 265.245 786.981 274.98C793.032 284.647 798.963 294.336 804.708 304.018C810.293 313.569 815.567 323.029 820.463 332.411C825.041 341.563 829.128 350.558 832.646 359.362C836.909 372.03 841.317 395.743 841.402 406.776C840.178 417.171 834.647 436.886 830.863 446.466C827.127 456.052 820.831 476.136 819.01 487.004C818.722 494.639 819.068 502.659 820.084 511.11C821.964 519.898 824.496 529.093 827.647 538.683C831.469 548.539 835.686 558.704 840.164 569.121C844.875 579.595 849.479 590.172 853.782 600.752C857.739 611.149 860.993 621.385 863.363 631.352C864.872 640.938 865.217 650.146 864.299 658.931C862.292 667.221 858.984 675.086 854.414 682.529C848.937 689.572 842.452 696.305 835.142 702.824C827.482 709.173 819.461 715.514 811.323 721.952C803.586 728.554 796.304 735.386 789.667 742.533C784.006 750.096 779.238 758.099 775.421 766.521C772.73 775.441 770.948 784.793 769.947 794.504C769.807 804.596 770.154 814.902 770.794 825.354C771.718 835.945 772.531 846.488 773.002 856.879C773.152 867.129 772.611 877.059 771.241 886.622C769.101 895.831 765.924 904.581 761.697 912.823C756.565 920.664 750.385 927.998 743.244 934.863C735.357 941.382 726.701 947.503 717.418 953.255C707.741 958.819 697.728 964.13 687.545 969.259C677.389 974.341 667.332 979.346 657.493 984.297C648.049 989.347 639.019 994.399 630.468 999.483C622.521 1004.73 615.12 1009.99 608.289 1015.27C599.246 1023.39 584.403 1039.4 578.252 1047.05C572.857 1054.39 562.792 1067.26 557.72 1072.54C546.552 1080.02 526.567 1085.03 518.635 1084.56C510.101 1083.25 491.436 1078.26 481.432 1074.76C474.517 1072.28 467.444 1069.53 460.231 1066.58C452.875 1063.7 445.418 1060.69 437.862 1057.59C430.176 1054.68 422.426 1051.77 414.608 1048.87C406.686 1046.28 398.698 1043.77 390.669 1041.4C382.534 1039.37 374.354 1037.53 366.128 1035.89C357.801 1034.64 349.432 1033.63 341.02 1032.83C332.518 1032.44 323.974 1032.28 315.406 1032.32C306.75 1032.72 298.078 1033.3 289.399 1034.02C280.641 1035.05 271.901 1036.13 263.181 1037.28C254.412 1038.58 245.697 1039.83 237.058 1040.99C228.401 1042.18 219.935 1043.15 211.688 1043.85C203.478 1044.44 195.49 1044.67 187.757 1044.52C180.08 1044.11 172.679 1043.25 165.544 1041.89C158.499 1040.19 151.73 1037.97 145.257 1035.18C138.866 1032.01 132.772 1028.29 126.95 1024C121.228 1019.31 115.777 1014.06 110.59 1008.28C105.473 1002.1 100.595 995.437 95.9539 988.288C91.3549 980.797 86.9607 972.885 82.7408 964.568C78.55 955.993 74.5063 947.062 70.5894 937.842C66.659 928.419 62.8392 918.76 59.1106 908.885C55.325 898.91 51.6034 888.768 47.9294 878.511C44.1892 868.225 40.4803 857.878 36.7988 847.482C33.0417 837.128 29.2997 826.766 25.5978 816.437C21.811 806.221 18.0604 796.051 14.3637 785.949C10.6032 776.015 6.91874 766.16 3.32039 756.433C-0.308766 746.888 -3.82571 737.468 -7.20832 728.182C-10.5776 719.098 -13.7863 710.145 -16.8276 701.341C-19.8032 692.731 -22.5962 684.262 -25.1694 675.936C-28.8237 663.777 -34.9268 640.234 -37.3815 628.785C-39.5816 617.57 -43.0158 595.385 -44.3263 584.337C-45.5843 573.282 -47.5906 550.901 -48.3998 539.488C-49.2358 527.957 -50.4833 504.332 -50.8356 492.248C-51.0679 484.143 -51.1339 475.946 -51.0115 467.666C-50.8892 459.387 -50.5563 451.035 -49.9909 442.621C-49.3772 434.212 -48.5089 425.751 -47.3678 417.26C-46.1675 408.78 -44.6834 400.274 -42.9074 391.717C-41.0692 383.203 -38.9472 374.664 -36.5375 366.086C-34.0725 357.533 -31.3348 348.949 -28.3506 340.339C-25.3332 331.744 -22.1199 323.205 -18.7188 314.749C-15.3508 306.279 -11.813 297.868 -8.14676 289.529C-4.53166 281.153 -0.803194 272.857 3.03576 264.609C6.79332 256.341 10.6573 248.135 14.6125 239.999C18.4864 231.842 22.4626 223.76 26.533 215.781C30.5551 207.795 34.7086 199.912 38.9784 192.14C43.2401 184.395 47.6512 176.777 52.2258 169.32C56.8253 161.905 61.6213 154.667 66.6029 147.601C71.6495 140.609 76.9108 133.817 82.3644 127.215C87.9083 120.729 93.6445 114.432 99.5721 108.371C105.572 102.401 111.745 96.6437 118.057 91.128C124.408 85.6897 130.879 80.4702 137.446 75.4731C143.988 70.5555 150.592 65.8456 157.232 61.347C163.791 56.9034 170.36 52.6745 176.927 48.6554C183.371 44.6719 189.786 40.9017 196.159 37.3532C205.498 32.1517 223.745 22.9115 232.689 18.8742C241.44 15.0976 258.833 8.75937 267.54 6.22707C276.245 3.9492 293.987 0.638447 303.085 -0.427902C312.352 -1.2691 331.511 -1.92333 341.42 -1.78934C348.14 -1.69421 354.983 -1.42481 361.927 -0.990905C368.957 -0.638566 376.096 -0.148215 383.317 0.483645C390.63 1.0207 398.026 1.65463 405.493 2.42519C413.049 3.06958 420.662 3.81435 428.332 4.65949C436.075 5.38683 443.854 6.20479 451.667 7.11336C459.536 7.92573 467.428 8.82384 475.309 9.83767C483.249 10.7421 491.164 11.7705 499.064 12.9279C506.985 14.0191 514.875 15.2477 522.702 16.6435C530.552 18.0045 538.319 19.5544 546.014 21.2981" stroke="url(#paint6_linear_1_378)" stroke-opacity="0.4" stroke-width="2.5" stroke-linecap="round" stroke-dasharray="21 15"/>
<path opacity="0.47" d="M557.306 52.5622C564.499 54.6491 571.52 56.9237 578.371 59.4175C585.208 61.95 591.871 64.7146 598.359 67.7114C607.949 72.4555 626.189 83.3613 634.831 89.5804C643.292 96.2595 659.4 111.255 667.121 119.579C672.228 125.38 677.242 131.471 682.168 137.839C687.142 144.356 692.046 151.174 696.918 158.254C701.845 165.501 706.768 173.007 711.692 180.791C716.7 188.696 721.725 196.873 726.782 205.281C731.938 213.803 737.126 222.556 742.338 231.524C747.654 240.56 752.983 249.773 758.313 259.156C763.687 268.562 769.025 278.103 774.297 287.718C779.537 297.316 784.651 306.94 789.588 316.594C794.381 326.112 798.926 335.608 803.145 345.01C807.119 354.237 810.686 363.313 813.804 372.247C816.568 380.918 818.806 389.375 820.497 397.607C822.105 409.415 821.855 431.402 820.105 441.637C817.512 451.4 810.606 470.287 806.822 479.688C803.485 489.307 798.769 509.942 797.897 521.222C798.194 529.187 799.057 537.54 800.491 546.3C802.614 555.39 805.243 564.853 808.304 574.649C811.838 584.663 815.597 594.902 819.417 605.296C823.31 615.698 826.961 626.097 830.207 636.406C833.037 646.482 835.149 656.306 836.394 665.799C836.829 674.867 836.206 683.49 834.44 691.653C831.724 699.318 827.871 706.511 822.944 713.265C817.251 719.618 810.695 725.658 803.428 731.464C795.896 737.116 788.042 742.738 780.08 748.442C772.452 754.321 765.219 760.422 758.521 766.819C752.654 773.651 747.548 780.896 743.251 788.565C739.942 796.767 737.41 805.376 735.606 814.382C734.596 823.787 734.055 833.454 733.864 843.288C734.013 853.317 734.162 863.313 734.137 873.22C733.945 883.023 733.261 892.553 731.944 901.705C730.066 910.564 727.356 918.956 723.758 926.822C719.399 934.274 714.131 941.189 707.98 947.564C701.116 953.534 693.477 959.022 685.195 964.051C676.427 968.794 667.212 973.179 657.682 977.262C648.005 981.22 638.239 984.964 628.526 988.564C618.98 992.161 609.675 995.698 600.684 999.185C592.103 1002.78 583.954 1006.35 576.269 1009.92C565.776 1015.49 547.946 1026.59 540.456 1031.99C528.241 1041.99 512.354 1054.01 507.267 1056.58C496.392 1059.17 477.721 1058.05 470.532 1056.03C462.846 1053.5 446.102 1046.81 437.094 1042.86C430.859 1040.23 424.444 1037.46 417.872 1034.58C411.127 1031.87 404.243 1029.11 397.238 1026.37C390.07 1023.86 382.778 1021.42 375.379 1019.05C367.84 1017 360.202 1015.08 352.475 1013.3C344.603 1011.84 336.661 1010.58 328.652 1009.46C320.5 1008.71 312.302 1008.11 304.063 1007.66C295.717 1007.54 287.34 1007.55 278.94 1007.65C270.466 1007.99 261.995 1008.39 253.556 1008.8C245.055 1009.36 236.61 1009.87 228.228 1010.27C219.838 1010.69 211.644 1010.93 203.652 1010.94C195.692 1010.85 187.966 1010.44 180.474 1009.71C173.047 1008.76 165.881 1007.41 158.987 1005.63C148.894 1002.3 130.227 992.746 121.636 986.461C116.102 981.762 110.82 976.547 105.775 970.856C100.821 964.812 96.1002 958.305 91.5919 951.354C87.1488 944.084 82.8936 936.403 78.8168 928.339C74.7709 920.013 70.8845 911.355 67.1315 902.367C63.3763 893.208 59.7464 883.775 56.2229 874.121C52.6724 864.33 49.2047 854.382 45.8198 844.277C42.4012 834.123 39.0466 823.865 35.7634 813.551C32.4276 803.241 29.1754 792.913 25.9758 782.581C22.7587 772.333 19.6172 762.125 16.5619 751.961C13.5074 741.937 10.5467 732.008 7.70598 722.172C4.89369 712.506 2.20279 702.964 -0.318807 693.558C-2.80593 684.339 -5.11296 675.26 -7.24465 666.335C-9.32028 657.609 -11.2003 649.015 -12.8788 640.574C-15.2165 628.229 -18.8211 604.409 -20.123 592.853C-21.2454 581.546 -22.7856 559.253 -23.2709 548.171C-23.7595 537.134 -24.4294 514.85 -24.6397 503.542C-24.9222 492.151 -25.1524 468.942 -25.0245 457.164C-24.8219 445.288 -23.5465 421.296 -22.3611 409.225C-20.8635 397.179 -16.4122 373.11 -13.4309 361.117C-11.255 353.169 -8.78379 345.222 -6.04833 337.289C-3.23264 329.384 -0.152685 321.493 3.18076 313.612C6.54049 305.729 10.0884 297.93 13.8041 290.233C17.5031 282.513 21.3314 274.86 25.2738 267.282C29.1514 259.671 33.1275 252.142 37.1791 244.652C41.1458 237.149 45.1833 229.698 49.2868 222.312C53.3055 214.913 57.3902 207.58 61.5532 200.348C65.6467 193.096 69.8448 185.945 74.1333 178.934C78.4063 171.93 82.796 165.064 87.33 158.366C91.887 151.711 96.6099 145.235 101.489 138.964C106.446 132.764 111.585 126.768 116.913 120.994C122.308 115.317 127.914 109.874 133.689 104.672C139.542 99.5737 145.568 94.7044 151.743 90.0977C157.968 85.5636 164.32 81.2808 170.767 77.2323C177.238 73.2582 183.771 69.5014 190.346 65.9822C196.891 62.5091 203.457 59.2623 210.015 56.2119C219.704 51.7972 238.763 43.9865 248.069 40.588C257.136 37.3877 274.837 31.9623 283.482 29.7427C291.972 27.7035 308.81 24.6137 317.216 23.5783C325.63 22.7006 342.708 21.8776 351.43 21.9162C360.304 22.0653 378.561 23.1222 387.961 23.9781C397.58 24.8711 417.372 27.1787 427.544 28.5618C434.414 29.4172 441.373 30.3809 448.384 31.4489C455.474 32.4044 462.612 33.477 469.791 34.6483C477.029 35.7273 484.297 36.8993 491.582 38.203C498.916 39.4089 506.25 40.7538 513.567 42.2135C520.926 43.6327 528.259 45.1926 535.546 46.9133C542.857 48.6009 550.114 50.4752 557.296 52.5565" stroke="url(#paint7_linear_1_378)" stroke-opacity="0.4" stroke-width="2.5" stroke-linecap="round" stroke-dasharray="18 15"/>
<path opacity="0.21" d="M569.631 85.7126C576.357 88.1042 582.971 90.6969 589.447 93.4905C599.068 97.8694 617.57 107.871 626.451 113.557C632.294 117.532 638.008 121.777 643.584 126.287C654.682 135.684 665.304 146.232 675.514 157.907C685.748 170.15 695.685 183.559 705.421 198.064C715.28 213.119 725.012 229.19 734.612 246.194C744.316 263.514 753.81 281.546 762.953 300.093C771.866 318.562 780.072 337.202 787.273 355.72C793.672 373.637 798.589 391.063 801.741 407.729C803.635 423.438 803.596 438.253 801.636 452.15C798.791 465.269 794.6 477.821 789.553 490.12C785.075 502.512 780.951 515.406 777.807 529.198C776.857 544.107 777.652 560.444 780.297 578.242C785.105 597.201 790.929 617.19 796.96 637.687C802.745 657.954 806.681 677.537 807.744 695.795C806.461 708.252 797.763 729.996 790.405 739.334C784.575 745.011 778.005 750.379 770.851 755.502C763.467 760.484 755.824 765.42 748.061 770.424C740.607 775.602 733.462 780.983 726.774 786.628C720.784 792.714 715.423 799.184 710.755 806.076C706.926 813.48 703.795 821.295 701.299 829.48C699.512 838.113 698.202 847.022 697.238 856.111C696.345 874.902 695.216 893.439 692.808 910.974C688.842 927.511 682.061 942.062 672.264 954.41C659.934 965.039 644.989 973.613 628.106 980.403C610.186 986.276 591.787 991.129 573.687 995.277C556.534 999.591 540.688 1003.69 526.428 1007.6C513.939 1012.03 503.037 1016.18 493.522 1019.83C485.323 1023.72 477.923 1026.71 470.941 1028.6C464.397 1030.29 457.677 1030.63 450.58 1029.58C443.211 1028.23 435.128 1025.59 426.304 1021.79C416.864 1018.01 406.597 1013.44 395.58 1008.31C383.865 1003.73 371.424 999.022 358.34 994.368C344.608 990.744 330.3 987.449 315.553 984.568C307.961 983.564 300.29 982.655 292.533 981.851C284.654 981.306 276.733 980.83 268.763 980.404C260.714 980.198 252.638 979.992 244.568 979.773C236.459 979.674 228.357 979.499 220.319 979.205C212.264 978.948 204.385 978.498 196.69 977.859C189.023 977.126 181.568 976.111 174.331 974.801C167.152 973.321 160.207 971.476 153.512 969.262C146.902 966.814 140.537 963.946 134.422 960.644C122.497 953.197 111.584 943.928 101.622 932.911C92.026 920.661 83.2819 906.745 75.2942 891.326C67.5333 874.937 60.3955 857.329 53.811 838.728C47.2979 819.616 41.2361 799.877 35.6083 779.737C30.0173 759.604 24.8637 739.405 20.2094 719.368C15.679 699.755 11.7204 680.507 8.4275 661.775C5.33621 643.689 2.95242 626.178 1.3181 609.265C-0.182914 592.973 -1.00219 577.159 -1.20789 561.768C-1.5104 546.728 -1.38231 531.889 -0.880878 517.134C-0.758859 502.433 -0.409868 487.633 0.197963 472.69C0.358812 457.649 0.847341 442.395 1.77364 427.013C2.53167 411.592 3.98503 396.119 6.26478 380.691C8.2216 369.2 13.5763 346.494 17.0057 335.299C20.8661 324.24 30.0647 302.405 35.3662 291.624C39.0091 284.47 42.8199 277.419 46.7881 270.464C50.73 263.509 54.7979 256.631 58.9548 249.823C63.0434 242.989 67.2001 236.212 71.4143 229.518C75.5446 222.773 79.7112 216.097 83.9302 209.485C92.0635 196.139 100.416 183.147 109.024 170.613C117.468 158.09 126.367 146.208 135.788 135.088C145.412 124.235 155.727 114.309 166.683 105.392C177.99 96.8633 189.896 89.3495 202.296 82.8813C214.832 76.7174 227.646 71.4836 240.566 67.1535C253.322 62.9293 265.968 59.4932 278.426 56.8131C290.505 54.0604 302.332 51.9937 313.913 50.6319C325.127 49.0777 336.189 48.1914 347.174 47.9862C357.97 47.5395 368.837 47.7373 379.826 48.58C390.848 49.1262 402.136 50.2618 413.694 51.974C425.449 53.3155 437.527 55.1709 449.892 57.5022C462.523 59.4254 475.436 61.8054 488.551 64.6416C498.528 66.6248 518.726 71.1044 528.895 73.6321C535.698 75.311 542.512 77.1542 549.292 79.1676C556.099 81.1496 562.874 83.3333 569.615 85.7188" stroke="url(#paint8_linear_1_378)" stroke-opacity="0.4" stroke-width="2.5" stroke-linecap="round" stroke-dasharray="25 8"/>
<path opacity="0.96" d="M583.229 121.629C595.877 127.018 608.128 133.274 619.948 140.388C631.667 147.791 642.951 156.197 653.792 165.65C664.536 175.526 674.87 186.521 684.833 198.612C694.722 211.191 704.297 224.859 713.549 239.526C722.755 254.619 731.623 270.603 740.092 287.321C748.393 304.216 756.132 321.616 763.168 339.258C769.692 356.69 775.203 374.047 779.48 391.079C782.875 407.46 784.759 423.221 785.011 438.215C784.316 452.413 782.075 465.837 778.456 478.589C774.529 490.912 769.88 503.008 764.984 515.191C761.066 527.831 757.833 541.246 755.73 555.7C755.624 571.374 757 588.398 759.746 606.695C764.02 625.916 768.758 645.806 773.188 665.823C777.018 685.338 778.882 703.85 777.992 720.822C774.538 735.947 767.654 749.074 757.43 760.267C745.221 770.051 731.028 778.869 715.888 787.447C701.759 796.719 689.086 806.979 678.531 818.626C670.816 832.283 665.327 847.386 661.574 863.544C659.402 880.794 657.369 897.929 654.615 914.248C650.909 929.834 645.068 943.562 636.813 955.138C626.448 965.055 613.695 972.74 599.01 978.4C583.041 982.864 566.188 985.924 549.12 987.916C532.377 989.745 516.394 991.076 501.554 992.081C488.019 993.542 475.888 994.78 465.114 995.725C455.651 997.116 447.196 998.005 439.529 998.203C432.532 998.593 425.805 998.094 419.086 996.601C412.379 995.167 405.298 992.767 397.703 989.434C389.69 986.316 380.967 982.502 371.533 978.157C361.453 974.356 350.621 970.306 339.059 966.186C326.845 962.9 313.953 959.744 300.504 956.752C286.482 954.684 272.018 952.763 257.245 950.92C242.114 949.725 226.862 948.331 211.649 946.522C196.389 944.78 181.745 942.225 167.81 938.664C154.132 934.547 141.304 929.081 129.374 922.167C117.838 914.304 107.241 904.826 97.5424 893.786C88.2643 881.717 79.8243 868.127 72.1918 853.189C64.8747 837.41 58.2537 820.483 52.305 802.655C46.5822 784.364 41.4576 765.461 36.9274 746.208C32.6049 726.92 28.8714 707.571 25.7734 688.373C22.8945 669.509 20.6771 650.995 19.1345 632.97C17.8168 615.463 17.1502 598.495 17.1508 582.06C17.2085 566.123 17.7869 550.6 18.8394 535.475C19.6799 520.561 20.8108 505.835 22.1848 491.197C23.1063 476.537 24.1948 461.813 25.4402 447.02C26.2764 432.087 27.4009 417.094 28.9287 402.058C30.3295 387.03 32.4115 372.088 35.2788 357.353C38.4104 342.804 42.5484 328.568 47.7538 314.688C53.3513 301.067 59.9755 287.774 67.5901 274.8C75.3368 261.918 83.6288 249.484 92.294 237.459C100.705 225.256 109.275 213.344 117.933 201.723C126.198 189.876 134.566 178.378 143.072 167.321C151.37 156.216 160.013 145.746 169.047 136.04C178.216 126.56 187.967 118.012 198.275 110.475C208.92 103.339 220.139 97.2595 231.839 92.2369C243.768 87.5549 256.013 83.8469 268.45 81.0586C280.842 78.4186 293.223 76.5559 305.49 75.4305C317.497 74.2215 329.296 73.6349 340.857 73.6495C352.108 73.4308 363.156 73.7402 374.031 74.599C384.714 75.1262 395.342 76.1553 405.974 77.7096C416.584 78.889 427.319 80.5654 438.218 82.7166C449.235 84.4595 460.501 86.6712 472.004 89.3446C483.678 91.6139 495.617 94.3468 507.766 97.5709C520.087 100.442 532.573 103.869 545.154 107.887C557.829 111.709 570.544 116.262 583.219 121.622" stroke="url(#paint9_linear_1_378)" stroke-opacity="0.4" stroke-width="2.5" stroke-linecap="round" stroke-dasharray="17 1"/>
<path opacity="0.67" d="M597.05 160.32C608.951 166.274 620.516 173.061 631.704 180.702C642.799 188.59 653.491 197.428 663.768 207.242C673.921 217.431 683.64 228.63 692.937 240.815C702.078 253.384 710.774 266.905 718.983 281.223C726.974 295.859 734.416 311.176 741.201 326.986C747.611 342.835 753.215 358.938 757.858 375.087C761.897 390.924 764.778 406.529 766.368 421.68C767.191 436.251 766.66 450.23 764.779 463.556C762.308 476.341 758.76 488.62 754.365 500.512C750.105 512.392 745.632 524.374 741.31 536.748C738.16 549.889 735.832 563.942 734.572 579.104C735.006 595.467 736.55 612.99 738.999 631.508C742.414 650.68 745.809 670.141 748.545 689.363C750.442 707.83 750.376 725.067 747.777 740.6C742.955 754.304 735.194 766.015 724.639 775.83C712.513 784.373 698.741 791.956 684.183 799.249C670.473 807.204 657.949 816.004 647.191 826.031C638.807 837.973 632.361 851.261 627.506 865.584C624.209 881.101 621.316 896.654 618.136 911.604C614.495 926.083 609.359 938.926 602.405 949.772C593.773 959.107 583.11 966.189 570.678 971.11C556.904 974.704 542.03 976.587 526.595 977.088C510.997 977.118 495.682 976.358 481.021 975.035C467.17 973.986 454.403 972.667 442.768 971.117C432.215 970.092 422.707 968.817 414.096 967.175C406.24 965.982 398.897 964.301 391.86 962.016C385.046 960.096 378.15 957.534 371.016 954.357C363.657 951.56 355.784 948.234 347.338 944.465C338.398 941.253 328.743 937.774 318.429 934.106C307.5 931.187 295.899 928.204 283.69 925.194C270.953 922.932 257.706 920.618 244.08 918.172C230.124 916.242 215.966 913.963 201.74 911.172C187.481 908.439 173.708 904.908 160.559 900.433C147.636 895.528 135.461 889.406 124.099 882C113.152 873.823 103.067 864.248 93.8481 853.296C85.0994 841.498 77.1999 828.378 70.1398 814.079C63.4913 799.091 57.6332 783.09 52.5361 766.306C47.808 749.138 43.7886 731.434 40.4975 713.414C37.5361 695.385 35.2605 677.294 33.7032 659.337C32.4137 641.661 31.8065 624.26 31.8817 607.285C32.1266 590.718 32.9593 574.57 34.3436 558.88C35.6789 543.507 37.4354 528.471 39.5053 513.736C41.2682 499.095 43.2303 484.58 45.3132 470.127C46.9389 455.58 48.6692 440.998 50.5138 426.389C51.9894 411.654 53.7294 396.927 55.8613 382.31C57.9214 367.72 60.6149 353.365 64.0757 339.336C67.8205 325.584 72.4958 312.271 78.1964 299.456C84.2626 286.95 91.2985 274.914 99.2389 263.313C107.307 251.813 115.861 240.839 124.692 230.307C133.298 219.594 141.999 209.195 150.707 199.09C159.029 188.71 167.364 178.663 175.729 169.047C183.851 159.305 192.186 150.175 200.795 141.772C209.457 133.53 218.585 126.204 228.173 119.857C238.052 113.878 248.44 108.968 259.285 105.119C270.411 101.63 281.892 99.1553 293.605 97.6123C305.419 96.269 317.305 95.7126 329.178 95.8921C340.923 96.0208 352.548 96.7483 363.983 98.0199C375.209 99.0566 386.255 100.544 397.102 102.465C407.789 104.038 418.356 106.006 428.853 108.377C439.305 110.322 449.79 112.666 460.323 115.406C470.938 117.718 481.687 120.427 492.609 123.561C503.659 126.289 514.894 129.471 526.296 133.143C537.841 136.505 549.537 140.411 561.321 144.948C573.193 149.301 585.12 154.393 597.04 160.312" stroke="url(#paint10_linear_1_378)" stroke-opacity="0.4" stroke-width="2.5" stroke-linecap="round" stroke-dasharray="21 11"/>
<path opacity="0.25" d="M609.175 200.735C620.329 207.177 631.137 214.402 641.565 222.416C651.88 230.61 661.783 239.669 671.222 249.582C680.49 259.764 689.264 270.826 697.5 282.692C705.508 294.829 712.92 307.699 719.68 321.183C726.115 334.831 731.802 348.917 736.657 363.292C741.051 377.604 744.495 391.994 746.881 406.237C748.688 420.205 749.365 433.857 748.857 447.072C747.807 459.884 745.644 472.237 742.47 484.134C739.096 495.832 735.059 507.318 730.579 518.758C726.558 530.524 722.634 542.697 719.111 555.498C716.737 569.216 715.158 583.92 714.456 599.667C715.063 616.475 716.407 634.198 718.215 652.589C720.509 671.332 722.441 689.995 723.475 708.092C723.553 725.27 721.762 741.038 717.701 754.997C711.766 767.223 703.369 777.503 692.668 785.96C680.736 793.302 667.477 799.708 653.564 805.768C640.357 812.487 628.136 819.868 617.341 828.311C608.525 838.529 601.366 849.982 595.647 862.405C591.377 876.086 587.698 889.932 584.072 903.365C580.35 916.623 575.676 928.488 569.731 938.6C562.56 947.425 553.772 954.112 543.447 958.647C531.888 961.815 519.195 963.108 505.753 962.802C491.823 961.771 477.777 959.662 463.989 956.743C450.55 953.857 437.795 950.565 425.872 946.982C414.702 943.869 404.412 940.598 394.959 937.147C386.177 934.27 378.002 931.18 370.283 927.833C362.87 925.01 355.596 921.87 348.307 918.381C340.929 915.431 333.27 912.154 325.239 908.577C316.83 905.577 307.882 902.354 298.373 898.923C288.369 896.159 277.758 893.234 266.599 890.149C254.967 887.697 242.855 885.023 230.36 882.09C217.568 879.56 204.548 876.593 191.424 873.02C178.274 869.511 165.539 865.228 153.324 860.072C141.348 854.583 130.044 848.005 119.485 840.316C109.337 832.043 100.022 822.543 91.558 811.904C83.5692 800.581 76.462 788.163 70.2125 774.736C64.4639 760.771 59.5512 745.972 55.4788 730.518C51.85 714.759 49.0278 698.562 47.0022 682.132C45.3487 665.65 44.4488 649.143 44.2833 632.735C44.3904 616.503 45.1632 600.503 46.5708 584.83C48.0648 569.394 50.0736 554.266 52.5264 539.487C54.8587 524.828 57.4705 510.405 60.3055 496.167C62.7827 481.887 65.3774 467.679 68.0262 453.502C70.2445 439.165 72.5194 424.808 74.9167 410.492C76.9964 396.047 79.3325 381.71 82.0447 367.573C84.7497 353.518 88.0681 339.823 92.0962 326.595C96.4131 313.681 101.609 301.316 107.712 289.595C114.188 278.196 121.539 267.375 129.693 257.106C137.986 246.945 146.675 237.373 155.588 228.287C164.276 218.997 173.013 210.051 181.718 201.413C190.024 192.449 198.274 183.806 206.479 175.564C214.402 167.138 222.421 159.259 230.585 152.042C238.761 144.923 247.252 138.639 256.088 133.304C265.162 128.273 274.675 124.276 284.578 121.324C294.784 118.733 305.342 117.152 316.161 116.515C327.194 116.125 338.371 116.537 349.611 117.714C360.886 118.906 372.12 120.678 383.241 123.004C394.297 125.129 405.208 127.671 415.963 130.602C426.636 133.194 437.179 136.11 447.617 139.356C458.023 142.184 468.398 145.32 478.76 148.78C489.173 151.808 499.643 155.19 510.188 158.922C520.84 162.273 531.599 166.04 542.454 170.264C553.427 174.207 564.485 178.669 575.598 183.747C586.785 188.662 597.988 194.299 609.166 200.727" stroke="url(#paint11_linear_1_378)" stroke-opacity="0.4" stroke-width="2.5" stroke-linecap="round" stroke-dasharray="22 16"/>
<path opacity="0.16" d="M617.48 240.891C627.84 247.731 637.801 255.24 647.311 263.383C656.724 271.685 665.64 280.686 674.007 290.349C682.172 300.233 689.755 310.782 696.682 321.905C703.331 333.225 709.269 345.043 714.432 357.255C719.232 369.543 723.163 382.073 726.19 394.7C728.77 407.259 730.368 419.742 730.944 432.053C731.073 444.166 730.189 456.004 728.34 467.505C726.17 478.846 723.2 489.943 719.548 500.845C715.963 511.871 712.042 522.979 707.994 534.329C704.545 546.273 701.345 558.824 698.612 572.111C696.888 586.373 695.783 601.547 695.331 617.61C695.787 634.528 696.602 652.072 697.513 669.917C698.561 687.829 699 705.359 698.413 722.046C696.855 737.684 693.585 751.813 688.357 764.127C681.56 774.819 672.746 783.691 662.08 790.837C650.473 797.022 637.797 802.318 624.586 807.235C611.974 812.745 600.15 818.801 589.502 825.705C580.466 834.258 572.83 843.888 566.472 854.398C561.428 866.214 557.051 878.266 552.993 890.088C549.083 902.006 544.672 912.8 539.446 922.13C533.411 930.466 526.17 936.865 517.726 941.256C508.22 944.357 497.667 945.535 486.315 945.008C474.321 943.6 461.966 940.915 449.55 937.185C437.112 933.247 424.993 928.708 413.381 923.74C402.155 919.075 391.56 914.22 381.642 909.24C372.171 904.828 363.27 900.331 354.858 895.778C346.695 891.832 338.802 887.79 331.042 883.625C323.257 880.084 315.371 876.402 307.316 872.565C298.967 869.338 290.283 865.972 281.205 862.444C271.723 859.505 261.787 856.399 251.429 853.103C240.671 850.306 229.519 847.256 218.061 843.855C206.349 840.789 194.438 837.241 182.469 833.078C170.462 828.968 158.851 824.15 147.738 818.543C136.836 812.706 126.581 805.936 117.041 798.227C107.881 790.071 99.5311 780.926 92.0363 770.818C85.0103 760.226 78.8671 748.717 73.6238 736.422C68.8622 723.711 64.9917 710.334 62.0063 696.451C59.4635 682.316 57.7665 667.84 56.9004 653.175C56.3891 638.445 56.6427 623.663 57.6115 608.962C58.8015 594.32 60.6111 579.83 62.9691 565.547C65.3731 551.33 68.199 537.303 71.3561 523.485C74.3433 509.623 77.5376 495.861 80.856 482.207C83.8459 468.385 86.8778 454.569 89.9609 440.767C92.6464 426.764 95.4073 412.763 98.2833 398.862C100.918 384.843 103.832 371.018 107.109 357.488C110.429 344.115 114.321 331.178 118.87 318.818C123.717 306.801 129.352 295.459 135.802 284.821C142.603 274.559 150.172 264.935 158.443 255.935C166.857 247.061 175.579 238.819 184.47 231.101C193.163 223.182 201.863 215.602 210.467 208.352C218.706 200.747 226.848 193.451 234.863 186.508C242.585 179.302 250.3 172.608 258.06 166.48C265.763 160.367 273.658 155.008 281.786 150.516C290.079 146.25 298.712 142.942 307.661 140.626C316.899 138.642 326.479 137.637 336.313 137.578C346.407 137.786 356.707 138.834 367.132 140.642C377.705 142.525 388.32 145.046 398.914 148.119C409.573 151.055 420.162 154.439 430.642 158.194C441.146 161.676 451.544 165.459 461.836 169.522C472.162 173.232 482.422 177.188 492.632 181.409C502.901 185.244 513.163 189.37 523.421 193.807C533.78 197.883 544.173 202.327 554.567 207.182C565.06 211.766 575.569 216.83 586.056 222.446C596.592 227.928 607.088 234.054 617.462 240.873" stroke="url(#paint12_linear_1_378)" stroke-opacity="0.4" stroke-width="2.5" stroke-linecap="round" stroke-dasharray="17 16"/>
<path opacity="0.82" d="M620.413 278.446C629.928 285.538 638.943 293.131 647.451 301.195C655.836 309.373 663.654 318.054 670.832 327.21C677.829 336.51 684.134 346.267 689.712 356.381C695.01 366.622 699.522 377.172 703.205 387.922C706.547 398.71 709.008 409.6 710.578 420.483C711.781 431.334 712.075 442.099 711.467 452.706C710.567 463.25 708.848 473.655 706.385 483.908C703.824 494.224 700.721 504.544 697.203 514.913C693.916 525.667 690.51 536.752 687.129 548.277C684.367 560.534 681.876 573.474 679.773 587.173C678.459 601.741 677.558 617.097 677.027 633.112C677.038 649.714 677.114 666.623 677.005 683.517C676.761 700.214 675.781 716.281 673.75 731.316C670.793 745.245 666.327 757.635 660.199 768.269C652.813 777.437 643.807 784.898 633.326 790.798C622.156 795.887 610.139 800.138 597.707 803.991C585.734 808.39 574.434 813.193 564.078 818.671C555.022 825.624 547.123 833.497 540.344 842.17C534.704 852.113 529.776 862.368 525.297 872.532C521.14 883.008 516.81 892.659 512.068 901.132C506.84 908.928 500.784 915.068 493.882 919.412C486.135 922.649 477.508 924.071 468.152 923.774C458.114 922.556 447.61 919.921 436.845 916.125C425.805 911.897 414.802 906.869 404.005 901.257C393.293 895.742 382.943 889.919 373.022 883.906C363.324 878.327 354.06 872.696 345.186 867.066C336.464 862.002 328.017 856.96 319.77 851.954C311.484 847.547 303.239 843.15 294.953 838.723C286.443 834.881 277.758 831.014 268.855 827.052C259.628 823.617 250.124 820.079 240.342 816.338C230.243 813.055 219.882 809.508 209.34 805.637C198.578 802.02 187.716 797.957 176.878 793.334C165.999 788.763 155.543 783.581 145.601 777.778C135.838 771.771 126.712 765.029 118.298 757.541C110.227 749.725 102.968 741.12 96.5367 731.786C90.5403 722.071 85.4229 711.666 81.2112 700.66C77.4437 689.343 74.5665 677.505 72.5654 665.285C70.9769 652.856 70.2246 640.136 70.2691 627.277C70.6282 614.311 71.7188 601.266 73.4592 588.245C75.3654 575.18 77.8216 562.141 80.7627 549.21C83.6857 536.2 86.9426 523.241 90.484 510.355C93.8143 497.305 97.3111 484.25 100.908 471.213C104.184 457.925 107.518 444.605 110.894 431.294C113.958 417.761 117.114 404.275 120.414 390.916C123.564 377.501 126.984 364.358 130.777 351.586C134.648 339.001 139.07 326.952 144.078 315.557C149.375 304.535 155.376 294.243 162.089 284.713C169.117 275.564 176.807 267.117 185.116 259.344C193.528 251.708 202.192 244.715 210.974 238.268C219.586 231.625 228.162 225.353 236.611 219.403C244.754 213.081 252.735 207.043 260.547 201.319C268.078 195.292 275.517 189.687 282.907 184.572C290.194 179.38 297.56 174.845 305.064 171.055C312.653 167.403 320.491 164.623 328.544 162.736C336.851 161.122 345.433 160.45 354.263 160.67C363.356 161.154 372.679 162.47 382.158 164.571C391.856 166.806 401.673 169.687 411.533 173.146C421.551 176.591 431.577 180.476 441.56 184.78C451.657 188.882 461.7 193.315 471.674 198.019C481.734 202.452 491.732 207.125 501.659 212.03C511.689 216.623 521.664 221.467 531.586 226.562C541.62 231.374 551.592 236.488 561.503 241.922C571.519 247.164 581.45 252.798 591.272 258.874C601.143 264.848 610.881 271.355 620.404 278.436" stroke="url(#paint13_linear_1_378)" stroke-opacity="0.4" stroke-width="2.5" stroke-linecap="round" stroke-dasharray="10 21"/>
<path opacity="0.29" d="M617.492 311.45C626.078 318.635 634.12 326.134 641.579 333.916C648.926 341.803 655.638 349.991 661.676 358.447C667.526 367.035 672.668 375.87 677.038 384.909C681.171 394.038 684.516 403.31 687.043 412.664C689.293 422.076 690.725 431.53 691.333 440.937C691.699 450.402 691.274 459.822 690.118 469.187C688.825 478.647 686.89 488.127 684.43 497.633C682.011 507.42 679.236 517.391 676.219 527.631C673.51 538.414 670.761 549.665 668.086 561.448C665.938 573.975 663.993 587.18 662.286 601.025C661.123 615.594 660.15 630.721 659.289 646.243C658.677 662.086 657.889 677.931 656.719 693.489C655.262 708.654 653.014 723.004 649.77 736.19C645.685 748.308 640.333 758.91 633.6 767.851C625.883 775.519 616.882 781.649 606.751 786.359C596.108 790.427 584.815 793.716 573.201 796.59C561.963 799.972 551.267 803.617 541.336 807.798C532.415 813.262 524.452 819.49 517.442 826.411C511.393 834.554 506.041 843.019 501.205 851.527C496.787 860.514 492.428 868.934 487.923 876.479C483.213 883.635 478.013 889.45 472.244 893.76C465.886 897.205 458.864 899.001 451.234 899.221C443.007 898.565 434.292 896.489 425.225 893.167C415.759 889.308 406.147 884.514 396.518 878.97C386.751 873.309 377.106 867.205 367.672 860.79C358.246 854.616 349.057 848.312 340.153 841.982C331.243 836.081 322.548 830.23 314.035 824.427C305.447 819.15 296.94 813.957 288.473 808.815C279.814 804.194 271.104 799.611 262.311 795.023C253.245 790.893 244.055 786.707 234.753 782.416C225.189 778.473 215.515 774.345 205.782 769.954C195.868 765.785 185.99 761.248 176.218 756.267C166.412 751.303 157.086 745.903 148.292 740.027C139.653 734.018 131.656 727.45 124.376 720.335C117.387 712.974 111.175 705.039 105.787 696.572C100.768 687.813 96.6136 678.554 93.3146 668.864C90.4072 658.913 88.345 648.581 87.1249 637.968C86.2452 627.13 86.1556 616.07 86.8033 604.883C87.6982 593.517 89.2544 582.052 91.4035 570.544C93.6495 558.871 96.38 547.16 99.5356 535.439C102.631 523.515 106.028 511.525 109.651 499.515C113.074 487.247 116.65 474.905 120.327 462.509C123.746 449.84 127.233 437.115 130.803 424.414C134.147 411.503 137.629 398.687 141.28 386.07C144.864 373.429 148.73 361.111 152.957 349.259C157.318 337.622 162.159 326.587 167.546 316.236C173.203 306.277 179.461 297.075 186.343 288.68C193.488 280.647 201.202 273.349 209.435 266.744C217.78 260.284 226.288 254.471 234.87 249.19C243.316 243.754 251.708 238.684 259.95 233.917C267.927 228.809 275.729 223.952 283.323 219.365C290.661 214.447 297.846 209.872 304.927 205.721C311.871 201.374 318.806 197.596 325.764 194.429C332.778 191.314 339.901 188.943 347.183 187.358C354.659 185.962 362.324 185.414 370.196 185.694C378.319 186.216 386.642 187.535 395.132 189.612C403.875 191.849 412.763 194.753 421.732 198.26C430.925 201.826 440.185 205.876 449.448 210.365C458.897 214.762 468.351 219.519 477.746 224.574C487.313 229.456 496.839 234.596 506.265 239.961C515.849 245.114 525.366 250.494 534.777 256.088C544.328 261.469 553.779 267.115 563.089 273.014C572.504 278.759 581.766 284.826 590.843 291.234C599.981 297.555 608.873 304.284 617.476 311.449" stroke="url(#paint14_linear_1_378)" stroke-opacity="0.4" stroke-width="2.5" stroke-linecap="round" stroke-dasharray="21 2"/>
<path opacity="0.44" d="M609.374 339.052C617.02 346.15 624.076 353.411 630.527 360.812C636.895 368.293 642.608 375.929 647.648 383.697C652.532 391.546 656.702 399.533 660.146 407.596C663.408 415.748 665.918 423.983 667.699 432.243C669.28 440.59 670.139 448.973 670.31 457.377C670.321 465.902 669.708 474.494 668.523 483.12C667.283 492.001 665.581 501.028 663.494 510.251C661.51 519.867 659.297 529.817 656.92 540.15C654.821 551.066 652.69 562.49 650.609 574.431C648.892 587.036 647.247 600.192 645.698 613.82C644.451 627.954 643.178 642.406 641.821 656.979C640.489 671.634 638.826 686.051 636.677 699.96C634.162 713.335 630.869 725.776 626.684 737.051C621.779 747.299 615.819 756.12 608.76 763.43C600.969 769.671 592.168 774.531 582.506 778.158C572.492 781.272 561.983 783.687 551.23 785.702C540.769 788.142 530.737 790.763 521.342 793.778C512.702 797.895 504.849 802.625 497.786 807.928C491.51 814.357 485.866 821.129 480.758 828.014C476.077 835.501 471.601 842.62 467.191 849.145C460.414 858.242 444.831 869.792 435.677 871.693C428.938 871.76 421.78 870.504 414.286 868.025C406.362 864.965 398.201 860.915 389.89 856.025C381.316 850.884 372.69 845.135 364.109 838.94C355.364 832.815 346.714 826.432 338.177 819.901C329.535 813.639 321.002 807.359 312.603 801.095C304.047 795.203 295.577 789.392 287.169 783.648C278.568 778.313 269.97 773.049 261.402 767.828C252.595 762.97 243.772 758.111 234.952 753.212C225.917 748.598 216.891 743.865 207.937 738.97C198.826 734.248 189.855 729.261 181.084 723.966C172.294 718.689 164.013 713.131 156.291 707.276C148.687 701.306 141.732 694.969 135.491 688.275C129.468 681.385 124.203 674.113 119.711 666.479C115.523 658.62 112.141 650.404 109.561 641.891C107.293 633.143 105.809 624.115 105.095 614.876C104.641 605.417 104.899 595.75 105.828 585.951C106.934 575.922 108.62 565.759 110.842 555.489C113.123 544.995 115.817 534.369 118.894 523.657C121.895 512.656 125.181 501.537 128.675 490.322C132.01 478.808 135.513 467.183 139.13 455.481C142.568 443.518 146.118 431.517 149.79 419.561C153.34 407.45 157.063 395.48 160.984 383.753C164.911 372.057 169.132 360.747 173.705 349.948C178.426 339.388 183.59 329.451 189.239 320.242C195.125 311.402 201.543 303.336 208.473 296.062C215.634 289.145 223.279 282.957 231.353 277.461C239.517 272.095 247.796 267.365 256.106 263.19C264.313 258.842 272.447 254.877 280.439 251.216C288.192 247.206 295.773 243.458 303.144 239.935C310.276 236.043 317.234 232.453 324.048 229.186C330.707 225.67 337.286 222.617 343.827 220.041C353.648 216.423 373.783 212.573 384.25 212.54C391.487 212.933 398.881 214.066 406.419 215.898C414.202 217.908 422.125 220.567 430.141 223.828C438.4 227.178 446.76 231.051 455.149 235.389C463.771 239.734 472.413 244.462 481.043 249.529C489.873 254.51 498.672 259.778 507.409 265.289C516.313 270.69 525.151 276.303 533.869 282.143C542.733 287.84 551.471 293.752 560.031 299.895C568.71 305.921 577.192 312.195 585.42 318.72C593.71 325.202 601.709 331.971 609.366 339.041" stroke="url(#paint15_linear_1_378)" stroke-opacity="0.4" stroke-width="2.5" stroke-linecap="round" stroke-dasharray="8 2"/>
<path opacity="0.47" d="M597.613 361.786C604.316 368.646 610.45 375.6 616.007 382.587C621.487 389.64 626.352 396.76 630.586 403.942C636.429 414.852 644.682 437.087 647.094 448.392C648.696 459.969 648.92 483.855 647.761 496.306C646.853 504.975 645.575 513.898 644.005 523.109C642.549 532.746 640.891 542.769 639.102 553.203C637.509 564.147 635.836 575.562 634.123 587.414C632.617 599.749 631.055 612.447 629.437 625.439C627.927 638.702 626.239 652.034 624.313 665.26C622.275 678.374 619.813 691.055 616.838 703.083C613.477 714.523 609.426 724.995 604.572 734.316C599.165 742.724 592.898 749.838 585.771 755.609C578.101 760.51 569.677 764.217 560.609 766.864C551.304 769.123 541.618 770.755 531.746 772.007C522.11 773.648 512.819 775.354 504.014 777.333C495.795 780.251 488.187 783.648 481.219 787.499C474.868 792.365 469.083 797.539 463.789 802.897C456.59 811.786 443.304 828.036 436.597 834.33C429.397 839.117 413.089 842.219 403.927 840.494C397.35 838.468 390.513 835.463 383.489 831.574C376.16 827.375 368.685 822.482 361.14 817.04C353.353 811.513 345.53 805.614 337.726 799.437C329.708 793.36 321.724 787.149 313.792 780.857C305.67 774.801 297.573 768.74 289.549 762.703C281.303 756.947 273.111 751.232 264.963 745.566C256.604 740.153 248.293 734.769 240.066 729.38C231.66 724.201 223.337 718.966 215.168 713.65C206.883 708.452 198.788 703.089 190.961 697.543C183.108 692.003 175.796 686.323 169.034 680.493C162.368 674.58 156.337 668.443 150.957 662.106C145.757 655.611 141.271 648.876 137.497 641.921C132.538 631.077 126.589 607.982 125.531 595.79C125.245 587.361 125.597 578.759 126.525 570.002C127.588 560.989 129.168 551.819 131.198 542.503C133.273 532.901 135.738 523.151 138.535 513.252C141.279 503.049 144.296 492.695 147.53 482.221C150.676 471.458 153.998 460.576 157.478 449.643C160.859 438.499 164.403 427.336 168.111 416.274C171.772 405.112 175.653 394.144 179.766 383.461C183.925 372.878 188.392 362.707 193.195 353.064C198.148 343.691 203.515 334.952 209.295 326.917C215.287 319.256 221.73 312.336 228.595 306.183C235.662 300.361 243.127 295.219 250.941 290.77C258.83 286.447 266.8 282.734 274.771 279.527C282.672 276.206 290.478 273.23 298.15 270.563C305.652 267.59 312.965 264.835 320.083 262.286C330.371 258.05 349.876 250.427 359.228 247.288C368.46 244.359 387.009 241.133 396.47 241.026C402.962 241.258 409.555 242.136 416.242 243.647C423.133 245.278 430.145 247.518 437.241 250.349C444.568 253.275 451.979 256.721 459.437 260.651C467.117 264.613 474.842 269.008 482.579 273.758C490.503 278.503 498.418 283.57 506.29 288.902C514.327 294.194 522.307 299.728 530.164 305.491C538.176 311.172 546.041 317.068 553.737 323.165C561.542 329.201 569.125 335.448 576.447 341.888C583.824 348.299 590.894 354.924 597.606 361.775" stroke="url(#paint16_linear_1_378)" stroke-opacity="0.4" stroke-width="2.5" stroke-linecap="round" stroke-dasharray="16 6"/>
<path opacity="0.7" d="M584.06 381.46C589.874 388.005 595.168 394.598 599.945 401.219C606.745 411.25 617.474 431.624 621.397 442.006C624.615 452.613 628.308 474.529 628.902 485.931C629.112 493.821 628.911 501.91 628.35 510.242C627.805 518.864 626.965 527.797 625.872 537.042C624.839 546.66 623.621 556.639 622.235 566.982C620.941 577.707 619.509 588.774 617.948 600.123C616.445 611.764 614.796 623.601 612.952 635.521C611.092 647.487 608.952 659.349 606.484 670.911C603.849 682.216 600.759 692.982 597.159 703.032C593.219 712.473 588.671 720.989 583.467 728.435C577.832 735.104 571.528 740.627 564.555 745.006C557.206 748.683 549.297 751.366 540.914 753.139C532.375 754.647 523.56 755.612 514.59 756.21C505.788 757.148 497.277 758.08 489.126 759.188C481.405 761.073 474.159 763.296 467.427 765.878C458.261 771.206 442.6 783.815 435.736 790.357C429.234 796.922 416.22 806.923 409.38 809.773C402.034 811.184 385.888 808.701 377.097 804.984C370.897 801.923 364.527 798.155 358.039 793.773C351.298 789.233 344.456 784.217 337.555 778.828C330.418 773.418 323.243 767.753 316.051 761.9C308.661 756.149 301.257 750.291 293.883 744.36C286.311 738.581 278.765 732.799 271.275 726.99C263.606 721.37 255.992 715.724 248.507 710.08C240.859 704.578 233.329 699.035 225.996 693.441C218.57 687.935 211.358 682.332 204.435 676.59C197.499 670.876 191.067 665.109 185.164 659.286C179.334 653.391 174.084 647.401 169.433 641.303C162.981 631.895 153.483 612.149 150.461 601.778C148.314 590.95 147.195 568.144 148.085 556.169C148.942 547.894 150.259 539.433 151.98 530.812C153.74 521.925 155.866 512.858 158.291 503.644C160.713 494.164 163.402 484.529 166.341 474.786C169.221 464.802 172.327 454.745 175.633 444.669C178.906 434.45 182.383 424.276 186.083 414.231C189.778 404.174 193.72 394.346 197.92 384.84C202.211 375.481 206.797 366.566 211.706 358.175C216.76 350.057 222.171 342.553 227.952 335.739C233.91 329.256 240.244 323.475 246.943 318.402C253.792 313.633 260.964 309.521 268.424 306.026C275.964 302.654 283.535 299.862 291.096 297.548C298.606 295.138 306.036 293.075 313.342 291.276C320.513 289.228 327.519 287.391 334.355 285.735C344.269 282.851 363.061 277.628 372.027 275.456C380.8 273.315 398.144 270.901 406.816 270.818C415.669 271.282 433.885 274.99 443.264 278.238C449.718 280.65 456.238 283.549 462.799 286.918C469.556 290.339 476.336 294.194 483.134 298.422C490.114 302.678 497.076 307.265 504.004 312.181C511.083 317.065 518.108 322.241 525.032 327.646C532.081 333.023 539.009 338.643 545.758 344.452C552.605 350.235 559.243 356.23 565.637 362.395C572.084 368.554 578.23 374.91 584.054 381.448" stroke="url(#paint17_linear_1_378)" stroke-opacity="0.4" stroke-width="2.5" stroke-linecap="round" stroke-dasharray="14 18"/>
<path opacity="0.35" d="M570.24 400.5C577.495 409.812 589.742 428.794 594.687 438.48C600.773 451.639 605.012 465.234 607.549 479.262C609.837 493.911 610.597 509.363 610.07 525.699C609.531 543.046 607.942 561.554 605.524 581.058C603.17 601.506 599.945 622.574 595.777 643.532C591.232 664.145 585.248 683.331 577.579 699.96C568.763 714.4 557.862 725.258 544.94 732.149C538.071 734.753 530.785 736.553 523.147 737.603C515.423 738.468 507.489 738.858 499.432 738.927C491.486 739.261 483.765 739.557 476.332 739.95C469.188 740.958 462.406 742.192 456.009 743.7C444.226 748.871 433.809 754.739 424.532 760.648C415.83 767.839 407.427 773.452 399.049 776.813C390.176 779.52 380.791 779.205 370.899 775.993C360.101 771.771 348.739 765.048 337.037 756.418C324.441 747.466 311.594 737.259 298.739 726.312C285.125 715.65 271.604 704.553 258.475 693.224C251.716 687.707 245.08 682.107 238.637 676.457C232.107 670.851 225.805 665.156 219.767 659.363C213.709 653.584 208.12 647.797 203.004 641.982C197.94 636.133 193.384 630.216 189.354 624.269C181.603 612.054 176.059 599.42 172.65 586.384C169.762 572.673 168.916 558.363 169.893 543.506C171.198 527.764 174.052 511.35 178.188 494.445C182.401 476.695 187.689 458.56 193.928 440.465C200.218 422.077 207.517 404.255 215.821 387.684C224.494 371.786 234.393 357.783 245.529 346.217C251.319 340.907 257.419 336.231 263.819 332.194C270.335 328.436 277.123 325.255 284.156 322.654C291.24 320.165 298.351 318.191 305.437 316.656C312.484 315.065 319.475 313.788 326.34 312.79C339.788 310.076 352.686 308.09 364.907 306.705C376.709 304.195 388.049 302.545 398.979 301.949C409.887 300.818 420.715 301.214 431.503 303.255C442.673 305.332 454.005 309.225 465.396 314.827C477.346 320.587 489.381 327.909 501.253 336.555C513.643 345.241 525.768 355.061 537.325 365.829C543.213 371.189 548.93 376.76 554.424 382.546C559.955 388.324 565.241 394.3 570.235 400.488" stroke="url(#paint18_linear_1_378)" stroke-opacity="0.4" stroke-width="2.5" stroke-linecap="round" stroke-dasharray="25 13"/>
<path opacity="0.89" d="M556.932 421.116C565.392 432.756 572.368 444.87 577.866 457.344C583.163 470.03 586.958 483.309 589.37 497.145C591.577 511.478 592.492 526.627 592.263 542.539C591.917 559.131 590.538 576.562 588.201 594.505C585.718 612.831 582.203 631.194 577.593 648.894C572.5 665.887 566.015 681.196 558.031 694.036C549.184 704.978 538.684 712.882 526.659 717.516C513.999 720.652 500.255 721.469 485.892 720.638C471.875 720.689 458.632 720.775 446.468 721.455C435.242 724.413 425.064 727.952 415.833 731.662C407.132 736.773 398.849 740.948 390.801 743.669C382.543 746.292 374.067 746.734 365.342 744.888C355.986 742.39 346.213 737.703 336.176 731.144C325.395 724.203 314.364 715.839 303.289 706.4C291.592 697.011 279.95 686.884 268.638 676.218C256.924 665.755 245.747 654.776 235.459 643.34C225.107 631.941 216.393 620.418 209.397 608.771C202.688 596.863 197.809 584.593 194.729 572.01C192.021 558.896 191.051 545.255 191.643 531.172C192.541 516.424 194.834 501.145 198.351 485.559C202.041 469.432 206.854 453.168 212.666 437.169C218.666 421.153 225.719 405.89 233.771 391.926C242.201 378.7 251.758 367.281 262.381 358.065C273.452 349.923 285.551 343.958 298.506 340.195C311.641 336.844 324.746 335.128 337.556 334.589C350.12 333.377 362.251 332.842 373.814 332.842C385.065 331.816 395.878 331.454 406.258 331.831C416.565 331.544 426.689 332.385 436.607 334.46C446.763 336.35 456.922 339.697 467.001 344.489C477.474 349.286 487.918 355.528 498.162 363.05C508.78 370.588 519.129 379.304 528.985 389.062C539.046 398.777 548.446 409.476 556.927 421.104" stroke="url(#paint19_linear_1_378)" stroke-opacity="0.4" stroke-width="2.5" stroke-linecap="round" stroke-dasharray="22 19"/>
<path opacity="0.88" d="M544.041 444.413C551.127 455.279 556.997 466.753 561.667 478.702C566.18 490.822 569.457 503.573 571.563 516.878C573.491 530.516 574.284 544.813 574.021 559.636C573.586 574.804 572.119 590.381 569.656 606.027C566.936 621.632 563.154 636.82 558.258 651.003C552.921 664.322 546.33 675.973 538.481 685.361C530.038 693.257 520.31 698.661 509.444 701.452C498.205 703.237 486.133 703.175 473.566 701.723C461.227 700.968 449.41 700.06 438.346 699.449C427.882 700.603 418.181 702.155 409.208 703.895C400.639 706.947 392.507 709.49 384.694 711.156C376.821 713.126 368.947 713.584 361.024 712.399C352.708 710.922 344.171 707.674 335.498 702.782C326.304 697.6 316.928 690.979 307.548 683.168C297.69 675.305 287.9 666.46 278.425 656.832C268.627 647.303 259.288 637.04 250.695 626.131C242.068 615.238 234.775 604.108 228.896 592.792C223.217 581.316 219.047 569.484 216.345 557.363C213.936 544.912 212.978 532.013 213.373 518.821C214.041 505.203 215.966 491.278 219.043 477.252C222.339 462.98 226.733 448.817 232.129 435.118C237.776 421.63 244.435 408.997 252.058 397.673C260.008 387.072 268.95 378.116 278.831 371.092C289.019 364.955 300.095 360.714 311.879 358.366C323.801 356.379 335.707 355.851 347.382 356.387C358.912 356.429 370.123 357.135 380.884 358.341C391.44 358.701 401.623 359.567 411.4 360.989C421.094 361.733 430.553 363.267 439.727 365.707C449.031 367.824 458.208 371.043 467.185 375.416C476.418 379.677 485.511 385.155 494.357 391.795C503.433 398.397 512.231 406.147 520.555 414.958C529.02 423.731 536.917 433.551 544.041 444.413Z" stroke="url(#paint20_linear_1_378)" stroke-opacity="0.4" stroke-width="2.5" stroke-linecap="round" stroke-dasharray="9 21"/>
<path opacity="0.78" d="M530.769 469.917C536.603 479.946 541.42 490.593 545.219 501.726C548.911 512.964 551.545 524.763 553.178 536.981C554.645 549.357 555.105 562.17 554.599 575.178C553.892 588.269 552.211 601.394 549.569 614.218C546.671 626.76 542.759 638.605 537.859 649.323C532.6 659.235 526.28 667.602 518.952 674.044C511.235 679.407 502.558 682.795 493.023 684.18C483.28 684.934 472.883 684.213 462.068 682.351C451.396 681.027 441.038 679.407 431.175 677.864C421.674 677.606 412.678 677.54 404.215 677.594C396.018 678.778 388.18 679.693 380.674 680.08C373.178 680.972 365.786 680.892 358.489 679.682C350.973 678.489 343.408 675.971 335.854 672.118C327.952 668.142 320.005 662.898 312.131 656.488C303.94 650.016 295.856 642.498 288.082 634.073C280.077 625.67 272.483 616.408 265.517 606.345C258.517 596.295 252.619 585.876 247.861 575.218C243.251 564.469 239.858 553.36 237.658 542.023C235.69 530.498 234.933 518.676 235.328 506.702C235.96 494.554 237.703 482.285 240.479 470.138C243.49 457.982 247.509 446.122 252.471 434.885C257.662 423.969 263.803 413.958 270.81 405.169C278.071 397.037 286.208 390.332 295.116 385.293C304.252 380.951 314.121 378.186 324.615 377.057C335.191 376.209 345.774 376.628 356.201 378.01C366.541 379.054 376.674 380.753 386.48 382.917C396.152 384.45 405.543 386.429 414.57 388.829C423.538 390.641 432.26 393.019 440.676 396.063C449.151 398.709 457.427 402.171 465.433 406.507C473.572 410.654 481.505 415.769 489.126 421.866C496.88 427.863 504.322 434.887 511.295 442.914C518.353 450.891 524.897 459.89 530.769 469.917Z" stroke="url(#paint21_linear_1_378)" stroke-opacity="0.4" stroke-width="2.5" stroke-linecap="round" stroke-dasharray="20 3"/>
<path opacity="0.7" d="M516.139 495.587C520.819 504.647 524.603 514.217 527.528 524.138C530.368 534.117 532.305 544.462 533.364 555.033C534.304 565.615 534.342 576.372 533.531 587.051C532.548 597.628 530.679 607.977 527.961 617.794C525.037 627.256 521.241 635.929 516.599 643.51C511.732 650.449 506.004 656.082 499.485 660.18C492.757 663.556 485.282 665.425 477.169 665.795C468.947 665.806 460.21 664.673 451.09 662.598C442.057 660.889 433.186 658.832 424.621 656.671C416.254 655.396 408.184 654.138 400.475 652.903C392.917 652.512 385.637 651.953 378.623 651.069C371.637 650.718 364.801 649.758 358.137 648.08C351.355 646.574 344.645 644.133 338.053 640.743C331.267 637.36 324.546 632.957 317.992 627.558C311.241 622.153 304.676 615.775 298.428 608.512C292.033 601.254 286.033 593.128 280.574 584.187C275.093 575.254 270.518 565.909 266.881 556.289C263.323 546.642 260.761 536.701 259.173 526.589C257.745 516.422 257.317 506.091 257.844 495.758C258.565 485.418 260.23 475.138 262.808 465.148C265.565 455.289 269.218 445.858 273.691 437.101C278.346 428.693 283.829 421.148 290.061 414.699C296.469 408.79 303.601 404.073 311.393 400.746C319.329 397.927 327.879 396.41 336.946 396.243C346.078 396.304 355.244 397.439 364.301 399.403C373.327 401.187 382.215 403.575 390.876 406.452C399.477 408.865 407.863 411.718 415.952 414.922C424.022 417.677 431.851 420.866 439.402 424.532C446.966 427.841 454.302 431.741 461.336 436.272C468.441 440.588 475.279 445.64 481.773 451.456C488.345 457.142 494.566 463.667 500.323 471.024C506.13 478.335 511.446 486.518 516.139 495.587Z" stroke="url(#paint22_linear_1_378)" stroke-opacity="0.4" stroke-width="2.5" stroke-linecap="round" stroke-dasharray="9 9"/>
<path opacity="0.89" d="M499.429 518.418C506.591 534.285 510.66 551.29 511.793 568.337C512.579 585.26 510.297 601.638 505.207 615.869C499.61 628.92 491.148 638.669 480.248 643.831C468.946 647.336 455.457 646.709 440.473 642.359C425.692 639.038 411.231 634.52 397.709 629.724C384.482 627.249 371.849 623.807 360.109 618.87C348.131 614.864 336.581 608.214 326.01 598.703C314.963 589.288 304.905 576.807 296.75 561.507C288.524 546.212 283.402 529.573 281.363 512.651C279.736 495.807 281.361 478.939 285.963 463.376C291.073 448.532 299.105 435.804 309.648 426.616C320.593 418.955 333.894 415.238 348.996 416.044C364.224 417.54 379.595 422.221 394.32 428.896C408.949 434.526 423.026 441.734 435.999 450.217C449.036 457.672 461.2 466.993 471.905 478.276C482.767 489.171 492.208 502.553 499.429 518.418Z" stroke="url(#paint23_linear_1_378)" stroke-opacity="0.4" stroke-width="2.5" stroke-linecap="round" stroke-dasharray="2 2"/>
</g>
<defs>
<linearGradient id="paint0_linear_1_378" x1="408.916" y1="-161.262" x2="408.916" y2="1262.44" gradientUnits="userSpaceOnUse">
<stop stop-color="white"/>
<stop offset="1" stop-color="#EAE7FF"/>
</linearGradient>
<linearGradient id="paint1_linear_1_378" x1="441.514" y1="-134.857" x2="344.842" y2="1234.34" gradientUnits="userSpaceOnUse">
<stop stop-color="white"/>
<stop offset="1" stop-color="#EAE7FF"/>
</linearGradient>
<linearGradient id="paint2_linear_1_378" x1="471.523" y1="-106.358" x2="286.378" y2="1200.23" gradientUnits="userSpaceOnUse">
<stop stop-color="white"/>
<stop offset="1" stop-color="#EAE7FF"/>
</linearGradient>
<linearGradient id="paint3_linear_1_378" x1="498.855" y1="-76.0095" x2="234.373" y2="1161.07" gradientUnits="userSpaceOnUse">
<stop stop-color="white"/>
<stop offset="1" stop-color="#EAE7FF"/>
</linearGradient>
<linearGradient id="paint4_linear_1_378" x1="523.444" y1="-44.0992" x2="189.432" y2="1118.01" gradientUnits="userSpaceOnUse">
<stop stop-color="white"/>
<stop offset="1" stop-color="#EAE7FF"/>
</linearGradient>
<linearGradient id="paint5_linear_1_378" x1="545.25" y1="-10.9232" x2="151.906" y2="1072.22" gradientUnits="userSpaceOnUse">
<stop stop-color="white"/>
<stop offset="1" stop-color="#EAE7FF"/>
</linearGradient>
<linearGradient id="paint6_linear_1_378" x1="564.254" y1="23.2306" x2="121.898" y2="1024.87" gradientUnits="userSpaceOnUse">
<stop stop-color="white"/>
<stop offset="1" stop-color="#EAE7FF"/>
</linearGradient>
<linearGradient id="paint7_linear_1_378" x1="580.381" y1="58.262" x2="99.7415" y2="976.217" gradientUnits="userSpaceOnUse">
<stop stop-color="white"/>
<stop offset="1" stop-color="#EAE7FF"/>
</linearGradient>
<linearGradient id="paint8_linear_1_378" x1="592.976" y1="93.105" x2="83.0007" y2="929.283" gradientUnits="userSpaceOnUse">
<stop stop-color="white"/>
<stop offset="1" stop-color="#EAE7FF"/>
</linearGradient>
<linearGradient id="paint9_linear_1_378" x1="603.752" y1="128.644" x2="74.218" y2="883.492" gradientUnits="userSpaceOnUse">
<stop stop-color="white"/>
<stop offset="1" stop-color="#EAE7FF"/>
</linearGradient>
<linearGradient id="paint10_linear_1_378" x1="611.546" y1="164.013" x2="71.153" y2="839.78" gradientUnits="userSpaceOnUse">
<stop stop-color="white"/>
<stop offset="1" stop-color="#EAE7FF"/>
</linearGradient>
<linearGradient id="paint11_linear_1_378" x1="616.615" y1="199.018" x2="73.2979" y2="798.798" gradientUnits="userSpaceOnUse">
<stop stop-color="white"/>
<stop offset="1" stop-color="#EAE7FF"/>
</linearGradient>
<linearGradient id="paint12_linear_1_378" x1="619.028" y1="233.403" x2="79.9432" y2="760.914" gradientUnits="userSpaceOnUse">
<stop stop-color="white"/>
<stop offset="1" stop-color="#EAE7FF"/>
</linearGradient>
<linearGradient id="paint13_linear_1_378" x1="618.853" y1="266.916" x2="90.3669" y2="726.354" gradientUnits="userSpaceOnUse">
<stop stop-color="white"/>
<stop offset="1" stop-color="#EAE7FF"/>
</linearGradient>
<linearGradient id="paint14_linear_1_378" x1="616.143" y1="299.255" x2="103.867" y2="695.138" gradientUnits="userSpaceOnUse">
<stop stop-color="white"/>
<stop offset="1" stop-color="#EAE7FF"/>
</linearGradient>
<linearGradient id="paint15_linear_1_378" x1="610.982" y1="330.145" x2="119.801" y2="667.206" gradientUnits="userSpaceOnUse">
<stop stop-color="white"/>
<stop offset="1" stop-color="#EAE7FF"/>
</linearGradient>
<linearGradient id="paint16_linear_1_378" x1="603.552" y1="359.422" x2="137.677" y2="642.516" gradientUnits="userSpaceOnUse">
<stop stop-color="white"/>
<stop offset="1" stop-color="#EAE7FF"/>
</linearGradient>
<linearGradient id="paint17_linear_1_378" x1="593.503" y1="387.392" x2="157.793" y2="620.742" gradientUnits="userSpaceOnUse">
<stop stop-color="white"/>
<stop offset="1" stop-color="#EAE7FF"/>
</linearGradient>
<linearGradient id="paint18_linear_1_378" x1="582.461" y1="412.397" x2="177.686" y2="602.121" gradientUnits="userSpaceOnUse">
<stop stop-color="white"/>
<stop offset="1" stop-color="#EAE7FF"/>
</linearGradient>
<linearGradient id="paint19_linear_1_378" x1="569.188" y1="435.956" x2="198.947" y2="586.33" gradientUnits="userSpaceOnUse">
<stop stop-color="white"/>
<stop offset="1" stop-color="#EAE7FF"/>
</linearGradient>
<linearGradient id="paint20_linear_1_378" x1="554.203" y1="457.058" x2="220.638" y2="572.832" gradientUnits="userSpaceOnUse">
<stop stop-color="white"/>
<stop offset="1" stop-color="#EAE7FF"/>
</linearGradient>
<linearGradient id="paint21_linear_1_378" x1="537.758" y1="475.69" x2="242.618" y2="561.525" gradientUnits="userSpaceOnUse">
<stop stop-color="white"/>
<stop offset="1" stop-color="#EAE7FF"/>
</linearGradient>
<linearGradient id="paint22_linear_1_378" x1="520.019" y1="491.705" x2="264.752" y2="552.163" gradientUnits="userSpaceOnUse">
<stop stop-color="white"/>
<stop offset="1" stop-color="#EAE7FF"/>
</linearGradient>
<linearGradient id="paint23_linear_1_378" x1="501.161" y1="505.23" x2="287.012" y2="544.769" gradientUnits="userSpaceOnUse">
<stop stop-color="white"/>
<stop offset="1" stop-color="#EAE7FF"/>
</linearGradient>
</defs>
</svg>
