<svg width="40" height="40" viewBox="0 0 40 40" fill="none" xmlns="http://www.w3.org/2000/svg">
<circle cx="20" cy="20" r="20" fill="#EAE7FF"/>
<path d="M15.5 26V20.5M15.5 20.5V13.5H20C20.4596 13.5 20.9148 13.5905 21.3394 13.7664C21.764 13.9423 22.1499 14.2001 22.4749 14.5251C22.7999 14.8501 23.0577 15.236 23.2336 15.6606C23.4095 16.0852 23.5 16.5404 23.5 17C23.5 17.4596 23.4095 17.9148 23.2336 18.3394C23.0577 18.764 22.7999 19.1499 22.4749 19.4749C22.1499 19.7999 21.764 20.0577 21.3394 20.2336C20.9148 20.4095 20.4596 20.5 20 20.5H15.5ZM15.5 20.5H20.5C21.2956 20.5 22.0587 20.8161 22.6213 21.3787C23.1839 21.9413 23.5 22.7044 23.5 23.5V26" stroke="#C0C0C0"/>
</svg>
