<svg width="327" height="70" viewBox="0 0 327 70" fill="none" xmlns="http://www.w3.org/2000/svg">
<rect width="327" height="70" rx="8" fill="white"/>
<rect x="12" y="15" width="40" height="40" rx="20" fill="#FFCB66" fill-opacity="0.2"/>
<path d="M24 31C24 30.0289 24.0021 29.4012 24.0643 28.9387C24.1226 28.505 24.2168 28.369 24.2929 28.2929C24.369 28.2168 24.505 28.1226 24.9387 28.0643C25.4012 28.0021 26.0289 28 27 28H37C37.9711 28 38.5988 28.0021 39.0613 28.0643C39.495 28.1226 39.631 28.2168 39.7071 28.2929C39.7832 28.369 39.8774 28.505 39.9357 28.9387C39.9979 29.4012 40 30.0289 40 31V39H24V31Z" stroke="#FFCB66" stroke-width="2"/>
<path d="M23.6667 39C22.7462 39 22 39.7462 22 40.6667C22 41.9553 23.0447 43 24.3333 43H39.6667C40.9553 43 42 41.9553 42 40.6667C42 39.7462 41.2538 39 40.3333 39H23.6667Z" stroke="#FFCB66" stroke-width="2"/>
<path d="M68.7841 30.4545V15.9091H69.7159V30.4545H68.7841ZM71.4716 20.5625C71.4186 20.0663 71.1951 19.6799 70.8011 19.4034C70.411 19.1269 69.9034 18.9886 69.2784 18.9886C68.839 18.9886 68.4621 19.0549 68.1477 19.1875C67.8333 19.3201 67.5928 19.5 67.4261 19.7273C67.2595 19.9545 67.1742 20.214 67.1705 20.5057C67.1705 20.7481 67.2254 20.9583 67.3352 21.1364C67.4489 21.3144 67.6023 21.4659 67.7955 21.5909C67.9886 21.7121 68.2027 21.8144 68.4375 21.8977C68.6723 21.9811 68.9091 22.0511 69.1477 22.108L70.2386 22.3807C70.678 22.483 71.1004 22.6212 71.5057 22.7955C71.9148 22.9697 72.2803 23.1894 72.6023 23.4545C72.928 23.7197 73.1856 24.0398 73.375 24.4148C73.5644 24.7898 73.6591 25.2292 73.6591 25.733C73.6591 26.4148 73.4848 27.0152 73.1364 27.5341C72.7879 28.0492 72.2841 28.4527 71.625 28.7443C70.9697 29.0322 70.1761 29.1761 69.2443 29.1761C68.339 29.1761 67.553 29.036 66.8864 28.7557C66.2235 28.4754 65.7045 28.0663 65.3295 27.5284C64.9583 26.9905 64.7576 26.3352 64.7273 25.5625H66.8011C66.8314 25.9678 66.9564 26.3049 67.1761 26.5739C67.3958 26.8428 67.6818 27.0436 68.0341 27.1761C68.3902 27.3087 68.7879 27.375 69.2273 27.375C69.6856 27.375 70.0871 27.3068 70.4318 27.1705C70.7803 27.0303 71.053 26.8371 71.25 26.5909C71.447 26.3409 71.5473 26.0492 71.5511 25.7159C71.5473 25.4129 71.4583 25.1629 71.2841 24.9659C71.1098 24.7652 70.8655 24.5985 70.5511 24.4659C70.2405 24.3295 69.8769 24.2083 69.4602 24.1023L68.1364 23.7614C67.178 23.5152 66.4205 23.142 65.8636 22.642C65.3106 22.1383 65.0341 21.4697 65.0341 20.6364C65.0341 19.9508 65.2197 19.3504 65.5909 18.8352C65.9659 18.3201 66.4754 17.9205 67.1193 17.6364C67.7633 17.3485 68.4924 17.2045 69.3068 17.2045C70.1326 17.2045 70.8561 17.3485 71.4773 17.6364C72.1023 17.9205 72.5928 18.3163 72.9489 18.8239C73.3049 19.3277 73.4886 19.9072 73.5 20.5625H71.4716ZM79.4702 29.1591C78.7126 29.1591 78.0346 29.017 77.4361 28.733C76.8376 28.4451 76.3622 28.0511 76.0099 27.5511C75.6615 27.0511 75.4759 26.4792 75.4531 25.8352H77.4986C77.5365 26.3125 77.7429 26.7027 78.1179 27.0057C78.4929 27.3049 78.9437 27.4545 79.4702 27.4545C79.883 27.4545 80.2505 27.3598 80.5724 27.1705C80.8944 26.9811 81.1482 26.7178 81.3338 26.3807C81.5194 26.0436 81.6103 25.6591 81.6065 25.2273C81.6103 24.7879 81.5175 24.3977 81.3281 24.0568C81.1387 23.7159 80.8793 23.4489 80.5497 23.2557C80.2202 23.0587 79.8414 22.9602 79.4134 22.9602C79.0649 22.9564 78.7221 23.0208 78.3849 23.1534C78.0478 23.286 77.7808 23.4602 77.5838 23.6761L75.6804 23.3636L76.2884 17.3636H83.0384V19.125H78.0327L77.6974 22.2102H77.7656C77.9815 21.9564 78.2865 21.7462 78.6804 21.5795C79.0743 21.4091 79.5062 21.3239 79.9759 21.3239C80.6804 21.3239 81.3092 21.4905 81.8622 21.8239C82.4152 22.1534 82.8509 22.608 83.169 23.1875C83.4872 23.767 83.6463 24.4299 83.6463 25.1761C83.6463 25.9451 83.4683 26.6307 83.1122 27.233C82.7599 27.8314 82.2694 28.303 81.6406 28.6477C81.0156 28.9886 80.2921 29.1591 79.4702 29.1591ZM89.8509 29.2216C88.9152 29.2216 88.1122 28.9848 87.4418 28.5114C86.7751 28.0341 86.2618 27.3466 85.902 26.4489C85.5459 25.5473 85.3679 24.4621 85.3679 23.1932C85.3717 21.9242 85.5516 20.8447 85.9077 19.9545C86.2675 19.0606 86.7808 18.3788 87.4474 17.9091C88.1179 17.4394 88.919 17.2045 89.8509 17.2045C90.7827 17.2045 91.5838 17.4394 92.2543 17.9091C92.9247 18.3788 93.438 19.0606 93.794 19.9545C94.1539 20.8485 94.3338 21.928 94.3338 23.1932C94.3338 24.4659 94.1539 25.553 93.794 26.4545C93.438 27.3523 92.9247 28.0379 92.2543 28.5114C91.5876 28.9848 90.7865 29.2216 89.8509 29.2216ZM89.8509 27.4432C90.5781 27.4432 91.152 27.0852 91.5724 26.3693C91.9967 25.6496 92.2088 24.5909 92.2088 23.1932C92.2088 22.2689 92.1122 21.4924 91.919 20.8636C91.7259 20.2348 91.4531 19.7614 91.1009 19.4432C90.7486 19.1212 90.3319 18.9602 89.8509 18.9602C89.1274 18.9602 88.5554 19.3201 88.1349 20.0398C87.7145 20.7557 87.5024 21.8068 87.4986 23.1932C87.4948 24.1212 87.5876 24.9015 87.777 25.5341C87.9702 26.1667 88.2429 26.6439 88.5952 26.9659C88.9474 27.2841 89.366 27.4432 89.8509 27.4432ZM100.523 29.2216C99.5871 29.2216 98.7841 28.9848 98.1136 28.5114C97.447 28.0341 96.9337 27.3466 96.5739 26.4489C96.2178 25.5473 96.0398 24.4621 96.0398 23.1932C96.0436 21.9242 96.2235 20.8447 96.5795 19.9545C96.9394 19.0606 97.4527 18.3788 98.1193 17.9091C98.7898 17.4394 99.5909 17.2045 100.523 17.2045C101.455 17.2045 102.256 17.4394 102.926 17.9091C103.597 18.3788 104.11 19.0606 104.466 19.9545C104.826 20.8485 105.006 21.928 105.006 23.1932C105.006 24.4659 104.826 25.553 104.466 26.4545C104.11 27.3523 103.597 28.0379 102.926 28.5114C102.259 28.9848 101.458 29.2216 100.523 29.2216ZM100.523 27.4432C101.25 27.4432 101.824 27.0852 102.244 26.3693C102.669 25.6496 102.881 24.5909 102.881 23.1932C102.881 22.2689 102.784 21.4924 102.591 20.8636C102.398 20.2348 102.125 19.7614 101.773 19.4432C101.42 19.1212 101.004 18.9602 100.523 18.9602C99.7992 18.9602 99.2273 19.3201 98.8068 20.0398C98.3864 20.7557 98.1742 21.8068 98.1705 23.1932C98.1667 24.1212 98.2595 24.9015 98.4489 25.5341C98.642 26.1667 98.9148 26.6439 99.267 26.9659C99.6193 27.2841 100.038 27.4432 100.523 27.4432ZM110.885 29V20.2727L112.879 20.2727V21.7273H112.97C113.129 21.2235 113.402 20.8352 113.788 20.5625C114.179 20.286 114.624 20.1477 115.124 20.1477C115.237 20.1477 115.364 20.1534 115.504 20.1648C115.648 20.1723 115.768 20.1856 115.862 20.2045V22.0966C115.775 22.0663 115.637 22.0398 115.447 22.017C115.262 21.9905 115.082 21.9773 114.908 21.9773C114.533 21.9773 114.196 22.0587 113.896 22.2216C113.601 22.3807 113.368 22.6023 113.197 22.8864C113.027 23.1705 112.942 23.4981 112.942 23.8693V29H110.885ZM120.733 29.1705C119.858 29.1705 119.102 28.9886 118.466 28.625C117.833 28.2576 117.347 27.7386 117.006 27.0682C116.665 26.3939 116.494 25.6004 116.494 24.6875C116.494 23.7898 116.665 23.0019 117.006 22.3239C117.35 21.642 117.831 21.1117 118.449 20.733C119.066 20.3504 119.792 20.1591 120.625 20.1591C121.163 20.1591 121.67 20.2462 122.148 20.4205C122.629 20.5909 123.053 20.8561 123.42 21.2159C123.792 21.5758 124.083 22.0341 124.295 22.5909C124.508 23.1439 124.614 23.803 124.614 24.5682V25.1989H117.46V23.8125H122.642C122.638 23.4186 122.553 23.0682 122.386 22.7614C122.22 22.4508 121.987 22.2064 121.688 22.0284C121.392 21.8504 121.047 21.7614 120.653 21.7614C120.233 21.7614 119.864 21.8636 119.545 22.0682C119.227 22.2689 118.979 22.5341 118.801 22.8636C118.627 23.1894 118.538 23.5473 118.534 23.9375V25.1477C118.534 25.6553 118.627 26.0909 118.812 26.4545C118.998 26.8144 119.258 27.0909 119.591 27.2841C119.924 27.4735 120.314 27.5682 120.761 27.5682C121.061 27.5682 121.331 27.5265 121.574 27.4432C121.816 27.3561 122.027 27.2292 122.205 27.0625C122.383 26.8958 122.517 26.6894 122.608 26.4432L124.528 26.6591C124.407 27.1667 124.176 27.6098 123.835 27.9886C123.498 28.3636 123.066 28.6553 122.54 28.8636C122.013 29.0682 121.411 29.1705 120.733 29.1705ZM130.161 29.1705C129.289 29.1705 128.541 28.9792 127.916 28.5966C127.295 28.214 126.816 27.6856 126.479 27.0114C126.145 26.3333 125.979 25.553 125.979 24.6705C125.979 23.7841 126.149 23.0019 126.49 22.3239C126.831 21.642 127.312 21.1117 127.933 20.733C128.558 20.3504 129.297 20.1591 130.149 20.1591C130.857 20.1591 131.484 20.2898 132.03 20.5511C132.579 20.8087 133.017 21.1742 133.342 21.6477C133.668 22.1174 133.854 22.6667 133.899 23.2955H131.933C131.854 22.875 131.664 22.5246 131.365 22.2443C131.07 21.9602 130.674 21.8182 130.178 21.8182C129.757 21.8182 129.388 21.9318 129.07 22.1591C128.751 22.3826 128.503 22.7045 128.325 23.125C128.151 23.5455 128.064 24.0492 128.064 24.6364C128.064 25.2311 128.151 25.7424 128.325 26.1705C128.5 26.5947 128.744 26.9223 129.058 27.1534C129.376 27.3807 129.75 27.4943 130.178 27.4943C130.481 27.4943 130.751 27.4375 130.99 27.3239C131.232 27.2064 131.435 27.0379 131.598 26.8182C131.761 26.5985 131.873 26.3314 131.933 26.017H133.899C133.85 26.6345 133.668 27.1818 133.354 27.6591C133.039 28.1326 132.611 28.5038 132.07 28.7727C131.528 29.0379 130.892 29.1705 130.161 29.1705ZM139.452 29.1705C138.577 29.1705 137.821 28.9886 137.185 28.625C136.552 28.2576 136.065 27.7386 135.724 27.0682C135.384 26.3939 135.213 25.6004 135.213 24.6875C135.213 23.7898 135.384 23.0019 135.724 22.3239C136.069 21.642 136.55 21.1117 137.168 20.733C137.785 20.3504 138.51 20.1591 139.344 20.1591C139.882 20.1591 140.389 20.2462 140.866 20.4205C141.348 20.5909 141.772 20.8561 142.139 21.2159C142.51 21.5758 142.802 22.0341 143.014 22.5909C143.226 23.1439 143.332 23.803 143.332 24.5682V25.1989H136.179V23.8125H141.361C141.357 23.4186 141.272 23.0682 141.105 22.7614C140.938 22.4508 140.705 22.2064 140.406 22.0284C140.111 21.8504 139.766 21.7614 139.372 21.7614C138.952 21.7614 138.582 21.8636 138.264 22.0682C137.946 22.2689 137.698 22.5341 137.52 22.8636C137.346 23.1894 137.257 23.5473 137.253 23.9375V25.1477C137.253 25.6553 137.346 26.0909 137.531 26.4545C137.717 26.8144 137.976 27.0909 138.31 27.2841C138.643 27.4735 139.033 27.5682 139.48 27.5682C139.779 27.5682 140.05 27.5265 140.293 27.4432C140.535 27.3561 140.745 27.2292 140.923 27.0625C141.101 26.8958 141.236 26.6894 141.327 26.4432L143.247 26.6591C143.126 27.1667 142.895 27.6098 142.554 27.9886C142.217 28.3636 141.785 28.6553 141.259 28.8636C140.732 29.0682 140.13 29.1705 139.452 29.1705ZM145.072 29V20.2727H147.129V29H145.072ZM146.107 19.0341C145.781 19.0341 145.5 18.9261 145.266 18.7102C145.031 18.4905 144.913 18.2273 144.913 17.9205C144.913 17.6098 145.031 17.3466 145.266 17.1307C145.5 16.911 145.781 16.8011 146.107 16.8011C146.436 16.8011 146.716 16.911 146.947 17.1307C147.182 17.3466 147.3 17.6098 147.3 17.9205C147.3 18.2273 147.182 18.4905 146.947 18.7102C146.716 18.9261 146.436 19.0341 146.107 19.0341ZM157.04 20.2727L153.932 29H151.659L148.551 20.2727H150.744L152.75 26.7557H152.841L154.852 20.2727H157.04ZM162.03 29.1705C161.155 29.1705 160.399 28.9886 159.763 28.625C159.13 28.2576 158.643 27.7386 158.303 27.0682C157.962 26.3939 157.791 25.6004 157.791 24.6875C157.791 23.7898 157.962 23.0019 158.303 22.3239C158.647 21.642 159.128 21.1117 159.746 20.733C160.363 20.3504 161.089 20.1591 161.922 20.1591C162.46 20.1591 162.967 20.2462 163.445 20.4205C163.926 20.5909 164.35 20.8561 164.717 21.2159C165.089 21.5758 165.38 22.0341 165.592 22.5909C165.804 23.1439 165.911 23.803 165.911 24.5682V25.1989H158.757V23.8125H163.939C163.935 23.4186 163.85 23.0682 163.683 22.7614C163.517 22.4508 163.284 22.2064 162.984 22.0284C162.689 21.8504 162.344 21.7614 161.95 21.7614C161.53 21.7614 161.161 21.8636 160.842 22.0682C160.524 22.2689 160.276 22.5341 160.098 22.8636C159.924 23.1894 159.835 23.5473 159.831 23.9375V25.1477C159.831 25.6553 159.924 26.0909 160.109 26.4545C160.295 26.8144 160.554 27.0909 160.888 27.2841C161.221 27.4735 161.611 27.5682 162.058 27.5682C162.357 27.5682 162.628 27.5265 162.871 27.4432C163.113 27.3561 163.323 27.2292 163.501 27.0625C163.679 26.8958 163.814 26.6894 163.905 26.4432L165.825 26.6591C165.704 27.1667 165.473 27.6098 165.132 27.9886C164.795 28.3636 164.363 28.6553 163.837 28.8636C163.31 29.0682 162.708 29.1705 162.03 29.1705ZM170.889 29.1534C170.204 29.1534 169.59 28.9773 169.048 28.625C168.507 28.2727 168.079 27.7614 167.764 27.0909C167.45 26.4205 167.293 25.6061 167.293 24.6477C167.293 23.678 167.452 22.8598 167.77 22.1932C168.092 21.5227 168.526 21.017 169.071 20.6761C169.616 20.3314 170.224 20.1591 170.895 20.1591C171.406 20.1591 171.827 20.2462 172.156 20.4205C172.486 20.5909 172.747 20.7973 172.94 21.0398C173.134 21.2784 173.283 21.5038 173.389 21.7159H173.474V17.3636H175.537V29H173.514V27.625H173.389C173.283 27.8371 173.13 28.0625 172.929 28.3011C172.728 28.536 172.463 28.7367 172.134 28.9034C171.804 29.0701 171.389 29.1534 170.889 29.1534ZM171.463 27.4659C171.899 27.4659 172.27 27.3485 172.577 27.1136C172.884 26.875 173.116 26.5436 173.276 26.1193C173.435 25.6951 173.514 25.2008 173.514 24.6364C173.514 24.072 173.435 23.5814 173.276 23.1648C173.12 22.7481 172.889 22.4242 172.582 22.1932C172.279 21.9621 171.906 21.8466 171.463 21.8466C171.005 21.8466 170.622 21.9659 170.315 22.2045C170.009 22.4432 169.777 22.7727 169.622 23.1932C169.467 23.6136 169.389 24.0947 169.389 24.6364C169.389 25.1818 169.467 25.6686 169.622 26.0966C169.781 26.5208 170.014 26.8561 170.321 27.1023C170.632 27.3447 171.012 27.4659 171.463 27.4659Z" fill="#242424"/>
<path d="M64.6761 43.9119V42.8182H72.3125V43.9119H69.1108V53H67.8778V43.9119H64.6761ZM75.2644 53.179C74.7805 53.179 74.3413 53.0878 73.9469 52.9055C73.5525 52.7199 73.2393 52.4531 73.0073 52.1051C72.7753 51.7538 72.6593 51.3295 72.6593 50.8324C72.6593 50.3949 72.7454 50.0402 72.9178 49.7685C73.0901 49.4934 73.3205 49.2779 73.6088 49.1222C73.8972 48.9664 74.2154 48.8504 74.5634 48.7741C74.9147 48.6946 75.2677 48.6316 75.6223 48.5852C76.0864 48.5256 76.4625 48.4808 76.7509 48.451C77.0426 48.4179 77.2547 48.3632 77.3873 48.2869C77.5231 48.2107 77.5911 48.0781 77.5911 47.8892V47.8494C77.5911 47.3589 77.4569 46.9777 77.1884 46.706C76.9232 46.4342 76.5205 46.2983 75.9803 46.2983C75.4202 46.2983 74.981 46.4209 74.6628 46.6662C74.3446 46.9115 74.1209 47.1733 73.9917 47.4517L72.878 47.054C73.0769 46.59 73.342 46.2287 73.6735 45.9702C74.0082 45.7083 74.3728 45.526 74.7672 45.4233C75.165 45.3172 75.556 45.2642 75.9405 45.2642C76.1858 45.2642 76.4675 45.294 76.7857 45.3537C77.1072 45.41 77.4171 45.5277 77.7154 45.7067C78.017 45.8857 78.2672 46.1558 78.4661 46.517C78.665 46.8783 78.7644 47.3622 78.7644 47.9688V53H77.5911V51.9659H77.5314C77.4519 52.1316 77.3193 52.3089 77.1337 52.4979C76.9481 52.6868 76.7012 52.8475 76.3929 52.9801C76.0847 53.1127 75.7085 53.179 75.2644 53.179ZM75.4434 52.125C75.9074 52.125 76.2985 52.0339 76.6167 51.8516C76.9382 51.6693 77.1801 51.4339 77.3425 51.1456C77.5082 50.8572 77.5911 50.554 77.5911 50.2358V49.1619C77.5414 49.2216 77.432 49.2763 77.263 49.326C77.0972 49.3724 76.905 49.4138 76.6863 49.4503C76.4708 49.4834 76.2604 49.5133 76.0549 49.5398C75.8527 49.563 75.6886 49.5829 75.5627 49.5994C75.2578 49.6392 74.9727 49.7038 74.7076 49.7933C74.4457 49.8795 74.2336 50.0104 74.0712 50.1861C73.9121 50.3584 73.8326 50.5937 73.8326 50.892C73.8326 51.2997 73.9834 51.608 74.285 51.8168C74.5899 52.0223 74.976 52.125 75.4434 52.125ZM81.7809 45.3636L83.6104 48.4858L85.44 45.3636H86.7923L84.3263 49.1818L86.7923 53H85.44L83.6104 50.0369L81.7809 53H80.4286L82.8548 49.1818L80.4286 45.3636H81.7809ZM92.4039 53V45.3636H93.5375V46.517H93.617C93.7562 46.1392 94.0081 45.8326 94.3727 45.5973C94.7373 45.362 95.1483 45.2443 95.6056 45.2443C95.6918 45.2443 95.7995 45.246 95.9288 45.2493C96.0581 45.2526 96.1558 45.2576 96.2221 45.2642V46.4574C96.1824 46.4474 96.0912 46.4325 95.9487 46.4126C95.8095 46.3894 95.662 46.3778 95.5062 46.3778C95.135 46.3778 94.8036 46.4557 94.5119 46.6115C94.2235 46.764 93.9949 46.9761 93.8258 47.2479C93.6601 47.5163 93.5772 47.8229 93.5772 48.1676V53H92.4039ZM100.582 53.1591C99.8464 53.1591 99.2117 52.9967 98.6781 52.6719C98.1478 52.3438 97.7385 51.8864 97.4501 51.2997C97.1651 50.7098 97.0225 50.0237 97.0225 49.2415C97.0225 48.4593 97.1651 47.7699 97.4501 47.1733C97.7385 46.5734 98.1395 46.1061 98.6532 45.7713C99.1703 45.4332 99.7735 45.2642 100.463 45.2642C100.861 45.2642 101.253 45.3305 101.641 45.4631C102.029 45.5956 102.382 45.8111 102.7 46.1094C103.018 46.4044 103.272 46.7955 103.461 47.2827C103.65 47.7699 103.744 48.3698 103.744 49.0824V49.5795H97.8578V48.5653H102.551C102.551 48.1345 102.465 47.75 102.292 47.4119C102.123 47.0739 101.881 46.8071 101.567 46.6115C101.255 46.416 100.887 46.3182 100.463 46.3182C99.9956 46.3182 99.5912 46.4342 99.2498 46.6662C98.9118 46.8949 98.6516 47.1932 98.4693 47.5611C98.287 47.929 98.1958 48.3234 98.1958 48.7443V49.4205C98.1958 49.9972 98.2953 50.486 98.4941 50.8871C98.6963 51.2848 98.9764 51.5881 99.3343 51.7969C99.6923 52.0024 100.108 52.1051 100.582 52.1051C100.89 52.1051 101.169 52.062 101.417 51.9759C101.669 51.8864 101.886 51.7538 102.069 51.5781C102.251 51.3991 102.392 51.1771 102.491 50.9119L103.625 51.2301C103.506 51.6146 103.305 51.9527 103.023 52.2443C102.742 52.5327 102.394 52.758 101.979 52.9205C101.565 53.0795 101.099 53.1591 100.582 53.1591ZM108.85 45.3636V46.358H104.893V45.3636H108.85ZM106.046 43.5341H107.219V50.8125C107.219 51.1439 107.267 51.3925 107.363 51.5582C107.463 51.7206 107.589 51.83 107.741 51.8864C107.897 51.9394 108.061 51.9659 108.233 51.9659C108.363 51.9659 108.469 51.9593 108.552 51.946C108.635 51.9295 108.701 51.9162 108.751 51.9062L108.989 52.9602C108.91 52.9901 108.799 53.0199 108.656 53.0497C108.514 53.0829 108.333 53.0994 108.114 53.0994C107.783 53.0994 107.458 53.0282 107.14 52.8857C106.825 52.7431 106.563 52.526 106.354 52.2344C106.149 51.9427 106.046 51.5748 106.046 51.1307V43.5341ZM115.427 49.8778V45.3636H116.601V53H115.427V51.7074H115.348C115.169 52.0952 114.89 52.425 114.513 52.6967C114.135 52.9652 113.657 53.0994 113.081 53.0994C112.604 53.0994 112.179 52.995 111.808 52.7862C111.437 52.5741 111.145 52.2559 110.933 51.8317C110.721 51.4041 110.615 50.8655 110.615 50.2159V45.3636H111.788V50.1364C111.788 50.6932 111.944 51.1373 112.256 51.4688C112.57 51.8002 112.971 51.9659 113.459 51.9659C113.75 51.9659 114.047 51.8913 114.349 51.7422C114.653 51.593 114.909 51.3643 115.114 51.0561C115.323 50.7479 115.427 50.3551 115.427 49.8778ZM118.75 53V45.3636H119.883V46.517H119.963C120.102 46.1392 120.354 45.8326 120.718 45.5973C121.083 45.362 121.494 45.2443 121.951 45.2443C122.038 45.2443 122.145 45.246 122.275 45.2493C122.404 45.2526 122.502 45.2576 122.568 45.2642V46.4574C122.528 46.4474 122.437 46.4325 122.294 46.4126C122.155 46.3894 122.008 46.3778 121.852 46.3778C121.481 46.3778 121.149 46.4557 120.858 46.6115C120.569 46.764 120.341 46.9761 120.172 47.2479C120.006 47.5163 119.923 47.8229 119.923 48.1676V53H118.75ZM125.132 48.4062V53H123.959V45.3636H125.092V46.5568H125.192C125.371 46.169 125.642 45.8575 126.007 45.6222C126.372 45.3835 126.842 45.2642 127.419 45.2642C127.936 45.2642 128.388 45.3703 128.776 45.5824C129.164 45.7912 129.465 46.1094 129.681 46.5369C129.896 46.9612 130.004 47.4981 130.004 48.1477V53H128.831V48.2273C128.831 47.6274 128.675 47.16 128.363 46.8253C128.052 46.4872 127.624 46.3182 127.081 46.3182C126.706 46.3182 126.372 46.3994 126.077 46.5618C125.785 46.7242 125.555 46.9612 125.385 47.2727C125.216 47.5843 125.132 47.9621 125.132 48.4062ZM137.557 47.0739L136.503 47.3722C136.437 47.1965 136.339 47.0258 136.21 46.8601C136.084 46.6911 135.912 46.5518 135.693 46.4425C135.474 46.3331 135.194 46.2784 134.853 46.2784C134.385 46.2784 133.996 46.3861 133.684 46.6016C133.376 46.8137 133.222 47.0838 133.222 47.4119C133.222 47.7036 133.328 47.9339 133.54 48.103C133.752 48.272 134.084 48.4129 134.534 48.5256L135.668 48.804C136.351 48.9697 136.859 49.2232 137.194 49.5646C137.529 49.9027 137.696 50.3385 137.696 50.8722C137.696 51.3097 137.57 51.7008 137.319 52.0455C137.07 52.3902 136.722 52.6619 136.275 52.8608C135.827 53.0597 135.307 53.1591 134.713 53.1591C133.935 53.1591 133.29 52.9901 132.779 52.652C132.269 52.3139 131.946 51.8201 131.81 51.1705L132.924 50.892C133.03 51.303 133.23 51.6113 133.525 51.8168C133.824 52.0223 134.213 52.125 134.694 52.125C135.24 52.125 135.675 52.009 135.996 51.777C136.321 51.5417 136.483 51.2599 136.483 50.9318C136.483 50.6667 136.391 50.4446 136.205 50.2656C136.019 50.0833 135.734 49.9474 135.35 49.858L134.077 49.5597C133.378 49.3939 132.864 49.1371 132.536 48.7891C132.211 48.4377 132.049 47.9986 132.049 47.4716C132.049 47.0407 132.17 46.6596 132.412 46.3281C132.657 45.9967 132.99 45.7365 133.411 45.5476C133.835 45.3587 134.316 45.2642 134.853 45.2642C135.608 45.2642 136.202 45.4299 136.632 45.7614C137.067 46.0928 137.375 46.5303 137.557 47.0739Z" fill="#707070"/>
<path d="M252.784 42.4545V27.9091H253.716V42.4545H252.784ZM255.472 32.5625C255.419 32.0663 255.195 31.6799 254.801 31.4034C254.411 31.1269 253.903 30.9886 253.278 30.9886C252.839 30.9886 252.462 31.0549 252.148 31.1875C251.833 31.3201 251.593 31.5 251.426 31.7273C251.259 31.9545 251.174 32.214 251.17 32.5057C251.17 32.7481 251.225 32.9583 251.335 33.1364C251.449 33.3144 251.602 33.4659 251.795 33.5909C251.989 33.7121 252.203 33.8144 252.438 33.8977C252.672 33.9811 252.909 34.0511 253.148 34.108L254.239 34.3807C254.678 34.483 255.1 34.6212 255.506 34.7955C255.915 34.9697 256.28 35.1894 256.602 35.4545C256.928 35.7197 257.186 36.0398 257.375 36.4148C257.564 36.7898 257.659 37.2292 257.659 37.733C257.659 38.4148 257.485 39.0152 257.136 39.5341C256.788 40.0492 256.284 40.4527 255.625 40.7443C254.97 41.0322 254.176 41.1761 253.244 41.1761C252.339 41.1761 251.553 41.036 250.886 40.7557C250.223 40.4754 249.705 40.0663 249.33 39.5284C248.958 38.9905 248.758 38.3352 248.727 37.5625H250.801C250.831 37.9678 250.956 38.3049 251.176 38.5739C251.396 38.8428 251.682 39.0436 252.034 39.1761C252.39 39.3087 252.788 39.375 253.227 39.375C253.686 39.375 254.087 39.3068 254.432 39.1705C254.78 39.0303 255.053 38.8371 255.25 38.5909C255.447 38.3409 255.547 38.0492 255.551 37.7159C255.547 37.4129 255.458 37.1629 255.284 36.9659C255.11 36.7652 254.866 36.5985 254.551 36.4659C254.241 36.3295 253.877 36.2083 253.46 36.1023L252.136 35.7614C251.178 35.5152 250.42 35.142 249.864 34.642C249.311 34.1383 249.034 33.4697 249.034 32.6364C249.034 31.9508 249.22 31.3504 249.591 30.8352C249.966 30.3201 250.475 29.9205 251.119 29.6364C251.763 29.3485 252.492 29.2045 253.307 29.2045C254.133 29.2045 254.856 29.3485 255.477 29.6364C256.102 29.9205 256.593 30.3163 256.949 30.8239C257.305 31.3277 257.489 31.9072 257.5 32.5625H255.472ZM263.47 41.1591C262.713 41.1591 262.035 41.017 261.436 40.733C260.838 40.4451 260.362 40.0511 260.01 39.5511C259.661 39.0511 259.476 38.4792 259.453 37.8352H261.499C261.536 38.3125 261.743 38.7027 262.118 39.0057C262.493 39.3049 262.944 39.4545 263.47 39.4545C263.883 39.4545 264.25 39.3598 264.572 39.1705C264.894 38.9811 265.148 38.7178 265.334 38.3807C265.519 38.0436 265.61 37.6591 265.607 37.2273C265.61 36.7879 265.518 36.3977 265.328 36.0568C265.139 35.7159 264.879 35.4489 264.55 35.2557C264.22 35.0587 263.841 34.9602 263.413 34.9602C263.065 34.9564 262.722 35.0208 262.385 35.1534C262.048 35.286 261.781 35.4602 261.584 35.6761L259.68 35.3636L260.288 29.3636H267.038V31.125H262.033L261.697 34.2102H261.766C261.982 33.9564 262.286 33.7462 262.68 33.5795C263.074 33.4091 263.506 33.3239 263.976 33.3239C264.68 33.3239 265.309 33.4905 265.862 33.8239C266.415 34.1534 266.851 34.608 267.169 35.1875C267.487 35.767 267.646 36.4299 267.646 37.1761C267.646 37.9451 267.468 38.6307 267.112 39.233C266.76 39.8314 266.269 40.303 265.641 40.6477C265.016 40.9886 264.292 41.1591 263.47 41.1591ZM273.851 41.2216C272.915 41.2216 272.112 40.9848 271.442 40.5114C270.775 40.0341 270.262 39.3466 269.902 38.4489C269.546 37.5473 269.368 36.4621 269.368 35.1932C269.372 33.9242 269.552 32.8447 269.908 31.9545C270.268 31.0606 270.781 30.3788 271.447 29.9091C272.118 29.4394 272.919 29.2045 273.851 29.2045C274.783 29.2045 275.584 29.4394 276.254 29.9091C276.925 30.3788 277.438 31.0606 277.794 31.9545C278.154 32.8485 278.334 33.928 278.334 35.1932C278.334 36.4659 278.154 37.553 277.794 38.4545C277.438 39.3523 276.925 40.0379 276.254 40.5114C275.588 40.9848 274.786 41.2216 273.851 41.2216ZM273.851 39.4432C274.578 39.4432 275.152 39.0852 275.572 38.3693C275.997 37.6496 276.209 36.5909 276.209 35.1932C276.209 34.2689 276.112 33.4924 275.919 32.8636C275.726 32.2348 275.453 31.7614 275.101 31.4432C274.749 31.1212 274.332 30.9602 273.851 30.9602C273.127 30.9602 272.555 31.3201 272.135 32.0398C271.714 32.7557 271.502 33.8068 271.499 35.1932C271.495 36.1212 271.588 36.9015 271.777 37.5341C271.97 38.1667 272.243 38.6439 272.595 38.9659C272.947 39.2841 273.366 39.4432 273.851 39.4432ZM284.523 41.2216C283.587 41.2216 282.784 40.9848 282.114 40.5114C281.447 40.0341 280.934 39.3466 280.574 38.4489C280.218 37.5473 280.04 36.4621 280.04 35.1932C280.044 33.9242 280.223 32.8447 280.58 31.9545C280.939 31.0606 281.453 30.3788 282.119 29.9091C282.79 29.4394 283.591 29.2045 284.523 29.2045C285.455 29.2045 286.256 29.4394 286.926 29.9091C287.597 30.3788 288.11 31.0606 288.466 31.9545C288.826 32.8485 289.006 33.928 289.006 35.1932C289.006 36.4659 288.826 37.553 288.466 38.4545C288.11 39.3523 287.597 40.0379 286.926 40.5114C286.259 40.9848 285.458 41.2216 284.523 41.2216ZM284.523 39.4432C285.25 39.4432 285.824 39.0852 286.244 38.3693C286.669 37.6496 286.881 36.5909 286.881 35.1932C286.881 34.2689 286.784 33.4924 286.591 32.8636C286.398 32.2348 286.125 31.7614 285.773 31.4432C285.42 31.1212 285.004 30.9602 284.523 30.9602C283.799 30.9602 283.227 31.3201 282.807 32.0398C282.386 32.7557 282.174 33.8068 282.17 35.1932C282.167 36.1212 282.259 36.9015 282.449 37.5341C282.642 38.1667 282.915 38.6439 283.267 38.9659C283.619 39.2841 284.038 39.4432 284.523 39.4432ZM291.73 41.125C291.385 41.125 291.09 41.0038 290.844 40.7614C290.598 40.5189 290.476 40.2235 290.48 39.875C290.476 39.5341 290.598 39.2424 290.844 39C291.09 38.7576 291.385 38.6364 291.73 38.6364C292.063 38.6364 292.353 38.7576 292.599 39C292.849 39.2424 292.976 39.5341 292.98 39.875C292.976 40.1061 292.916 40.3163 292.798 40.5057C292.685 40.6951 292.533 40.8466 292.344 40.9602C292.158 41.0701 291.954 41.125 291.73 41.125ZM298.929 41.2216C297.993 41.2216 297.19 40.9848 296.52 40.5114C295.853 40.0341 295.34 39.3466 294.98 38.4489C294.624 37.5473 294.446 36.4621 294.446 35.1932C294.45 33.9242 294.63 32.8447 294.986 31.9545C295.346 31.0606 295.859 30.3788 296.526 29.9091C297.196 29.4394 297.997 29.2045 298.929 29.2045C299.861 29.2045 300.662 29.4394 301.332 29.9091C302.003 30.3788 302.516 31.0606 302.872 31.9545C303.232 32.8485 303.412 33.928 303.412 35.1932C303.412 36.4659 303.232 37.553 302.872 38.4545C302.516 39.3523 302.003 40.0379 301.332 40.5114C300.666 40.9848 299.865 41.2216 298.929 41.2216ZM298.929 39.4432C299.656 39.4432 300.23 39.0852 300.651 38.3693C301.075 37.6496 301.287 36.5909 301.287 35.1932C301.287 34.2689 301.19 33.4924 300.997 32.8636C300.804 32.2348 300.531 31.7614 300.179 31.4432C299.827 31.1212 299.41 30.9602 298.929 30.9602C298.205 30.9602 297.634 31.3201 297.213 32.0398C296.793 32.7557 296.58 33.8068 296.577 35.1932C296.573 36.1212 296.666 36.9015 296.855 37.5341C297.048 38.1667 297.321 38.6439 297.673 38.9659C298.026 39.2841 298.444 39.4432 298.929 39.4432ZM309.601 41.2216C308.665 41.2216 307.862 40.9848 307.192 40.5114C306.525 40.0341 306.012 39.3466 305.652 38.4489C305.296 37.5473 305.118 36.4621 305.118 35.1932C305.122 33.9242 305.302 32.8447 305.658 31.9545C306.018 31.0606 306.531 30.3788 307.197 29.9091C307.868 29.4394 308.669 29.2045 309.601 29.2045C310.533 29.2045 311.334 29.4394 312.004 29.9091C312.675 30.3788 313.188 31.0606 313.544 31.9545C313.904 32.8485 314.084 33.928 314.084 35.1932C314.084 36.4659 313.904 37.553 313.544 38.4545C313.188 39.3523 312.675 40.0379 312.004 40.5114C311.338 40.9848 310.536 41.2216 309.601 41.2216ZM309.601 39.4432C310.328 39.4432 310.902 39.0852 311.322 38.3693C311.747 37.6496 311.959 36.5909 311.959 35.1932C311.959 34.2689 311.862 33.4924 311.669 32.8636C311.476 32.2348 311.203 31.7614 310.851 31.4432C310.499 31.1212 310.082 30.9602 309.601 30.9602C308.877 30.9602 308.305 31.3201 307.885 32.0398C307.464 32.7557 307.252 33.8068 307.249 35.1932C307.245 36.1212 307.338 36.9015 307.527 37.5341C307.72 38.1667 307.993 38.6439 308.345 38.9659C308.697 39.2841 309.116 39.4432 309.601 39.4432Z" fill="#0A9E01"/>
</svg>
