<svg width="40" height="40" viewBox="0 0 40 40" fill="none" xmlns="http://www.w3.org/2000/svg">
<circle cx="20" cy="20" r="20" fill="white"/>
<path d="M24.6 13.82C23.9164 13.0396 23.5397 12.0374 23.54 11H20.45V23.4C20.4262 24.071 20.1429 24.7066 19.6598 25.1729C19.1767 25.6393 18.5315 25.8999 17.86 25.9C16.44 25.9 15.26 24.74 15.26 23.3C15.26 21.58 16.92 20.29 18.63 20.82V17.66C15.18 17.2 12.16 19.88 12.16 23.3C12.16 26.63 14.92 29 17.85 29C20.99 29 23.54 26.45 23.54 23.3V17.01C24.793 17.9099 26.2974 18.3926 27.84 18.39V15.3C27.84 15.3 25.96 15.39 24.6 13.82Z" fill="url(#paint0_linear_1_713)"/>
<defs>
<linearGradient id="paint0_linear_1_713" x1="20" y1="11" x2="20" y2="29" gradientUnits="userSpaceOnUse">
<stop stop-color="#6364FF"/>
<stop offset="1" stop-color="#563ACC"/>
</linearGradient>
</defs>
</svg>
