<svg width="40" height="40" viewBox="0 0 40 40" fill="none" xmlns="http://www.w3.org/2000/svg">
<circle cx="20" cy="20" r="20" fill="white"/>
<path d="M30.46 14C29.69 14.35 28.86 14.58 28 14.69C28.88 14.16 29.56 13.32 29.88 12.31C29.05 12.81 28.13 13.16 27.16 13.36C26.37 12.5 25.26 12 24 12C21.65 12 19.73 13.92 19.73 16.29C19.73 16.63 19.77 16.96 19.84 17.27C16.28 17.09 13.11 15.38 11 12.79C10.63 13.42 10.42 14.16 10.42 14.94C10.42 16.43 11.17 17.75 12.33 18.5C11.62 18.5 10.96 18.3 10.38 18V18.03C10.38 20.11 11.86 21.85 13.82 22.24C13.1907 22.4122 12.5301 22.4362 11.89 22.31C12.1616 23.1625 12.6935 23.9084 13.411 24.4429C14.1285 24.9775 14.9954 25.2737 15.89 25.29C14.3736 26.4904 12.494 27.1393 10.56 27.13C10.22 27.13 9.87998 27.11 9.53998 27.07C11.44 28.29 13.7 29 16.12 29C24 29 28.33 22.46 28.33 16.79C28.33 16.6 28.33 16.42 28.32 16.23C29.16 15.63 29.88 14.87 30.46 14Z" fill="url(#paint0_linear_1_709)"/>
<defs>
<linearGradient id="paint0_linear_1_709" x1="20" y1="12" x2="20" y2="29" gradientUnits="userSpaceOnUse">
<stop stop-color="#6364FF"/>
<stop offset="1" stop-color="#563ACC"/>
</linearGradient>
</defs>
</svg>
