<svg width="40" height="40" viewBox="0 0 40 40" fill="none" xmlns="http://www.w3.org/2000/svg">
<circle cx="20" cy="20" r="20" fill="#EAE7FF"/>
<path d="M10 11H12L13.33 17H17.33L18.67 11H21.33L22.67 17H26.67L28 11H30L28.67 17H30V19H28.22L27.78 21H30V23H27.33L26 29H23.33L22 23H18L16.67 29H14L12.67 23H10V21H12.22L11.78 19H10V17H11.33L10 11ZM21.11 19H18.89L18.44 21H21.56L21.11 19ZM15.33 26L16 23H14.67L15.33 26ZM16.89 19H13.78L14.22 21H16.44L16.89 19ZM24.67 26L25.33 23H24L24.67 26ZM26.22 19H23.11L23.56 21H25.78L26.22 19ZM20 14L19.33 17H20.67L20 14Z" fill="#C0C0C0"/>
</svg>
