<svg width="61" height="30" viewBox="0 0 61 30" fill="none" xmlns="http://www.w3.org/2000/svg">
<g clip-path="url(#clip0_209_79)">
<path d="M30 0H0V30H30V0Z" fill="#838383"/>
<path d="M14 17L8.79999 7.30005H11.2L14.2 13.4C14.2 13.5 14.3 13.6 14.4 13.7C14.5 13.8 14.5 13.9 14.6 14.1L14.7 14.2V14.3C14.8 14.5 14.8 14.6 14.9 14.8C15 14.9 15 15.1 15.1 15.2C15.2 14.9 15.4 14.7 15.5 14.3C15.6 14 15.8 13.7 16 13.4L19 7.30005H21.2L16 17.1V23.3H14V17Z" fill="white"/>
<path d="M43.7 5.80005C45.2 5.80005 46.5 6.20005 47.5 7.00005L46.5 8.20005C45.6 7.60005 44.7 7.20005 43.6 7.20005C41.9 7.20005 40.6 8.10005 39.9 9.80005C39.5 10.8 39.3 12.1 39.3 13.8C39.3 15.1 39.5 16.2 39.8 17C40.6 18.9 41.9 19.8 43.9 19.8C45 19.8 46 19.5 46.9 18.8L47.9 20.1C46.6 20.9 45.2 21.3 43.7 21.3C41.9 21.3 40.4 20.6 39.2 19.1C38 17.7 37.5 15.8 37.5 13.5C37.5 11.2 38.1 9.40005 39.3 7.90005C40.4 6.60005 41.9 5.80005 43.7 5.80005Z" fill="#838383"/>
<path d="M49.4 15.6999C49.4 13.8999 49.8 12.4999 50.7 11.4999C51.6 10.4999 52.7 9.8999 54.1 9.8999C55.7 9.8999 57 10.4999 57.9 11.7999C58.6 12.7999 58.9 14.1999 58.9 15.8999C58.9 17.8999 58.3 19.4999 57.2 20.4999C56.4 21.1999 55.4 21.5999 54.2 21.5999C52.7 21.5999 51.6 21.0999 50.7 19.9999C49.8 18.9999 49.4 17.4999 49.4 15.6999ZM56.4 12.7999C55.9 11.8999 55.2 11.3999 54.1 11.3999C53 11.3999 52.3 11.7999 51.8 12.5999C51.4 13.1999 51.3 14.1999 51.3 15.4999C51.3 17.1999 51.5 18.3999 52 19.0999C52.5 19.7999 53.2 20.1999 54.2 20.1999C55.4 20.1999 56.2 19.5999 56.6 18.4999C56.8 17.8999 56.9 17.0999 56.9 16.0999C57 14.5999 56.8 13.4999 56.4 12.7999Z" fill="#838383"/>
</g>
<defs>
<clipPath id="clip0_209_79">
<rect width="145" height="30" fill="white"/>
</clipPath>
</defs>
</svg>
