<svg width="40" height="40" viewBox="0 0 40 40" fill="none" xmlns="http://www.w3.org/2000/svg">
<circle cx="20" cy="20" r="20" fill="white"/>
<path d="M30.0575 14.9449C29.938 14.5009 29.704 14.0961 29.3789 13.771C29.0538 13.4459 28.649 13.2119 28.205 13.0924C26.57 12.6499 20 12.6499 20 12.6499C20 12.6499 13.43 12.6499 11.795 13.0924C11.351 13.2119 10.9462 13.4459 10.6211 13.771C10.296 14.0961 10.062 14.5009 9.94251 14.9449C9.63722 16.6124 9.48907 18.3048 9.50002 19.9999C9.48907 21.695 9.63722 23.3875 9.94251 25.0549C10.062 25.4989 10.296 25.9037 10.6211 26.2288C10.9462 26.5539 11.351 26.7879 11.795 26.9074C13.43 27.3499 20 27.3499 20 27.3499C20 27.3499 26.57 27.3499 28.205 26.9074C28.649 26.7879 29.0538 26.5539 29.3789 26.2288C29.704 25.9037 29.938 25.4989 30.0575 25.0549C30.3628 23.3875 30.511 21.695 30.5 19.9999C30.511 18.3048 30.3628 16.6124 30.0575 14.9449ZM17.9 23.1499V16.8499L23.3525 19.9999L17.9 23.1499Z" fill="url(#paint0_linear_1_717)"/>
<defs>
<linearGradient id="paint0_linear_1_717" x1="20" y1="12.6499" x2="20" y2="27.3499" gradientUnits="userSpaceOnUse">
<stop stop-color="#6364FF"/>
<stop offset="1" stop-color="#563ACC"/>
</linearGradient>
</defs>
</svg>
